{"glyphs":{"0":{"ha":694,"x_min":42,"x_max":643,"o":"m 643 436 q 551 758 643 621 q 343 896 461 896 q 132 758 224 896 q 42 436 42 619 q 132 115 42 254 q 342 -22 221 -22 q 553 115 461 -22 q 643 436 643 254 m 474 267 q 440 79 474 147 q 343 10 408 10 q 243 79 275 10 q 211 267 211 150 l 211 607 q 243 794 211 724 q 342 864 275 864 q 442 794 408 864 q 474 607 474 724 l 474 267 z "},"1":{"ha":694,"x_min":115,"x_max":600,"o":"m 600 0 l 600 35 l 439 35 l 439 896 l 301 885 q 115 881 239 881 l 115 846 l 235 846 q 279 835 269 846 q 289 785 289 822 l 289 35 l 124 35 l 124 0 l 600 0 z "},"2":{"ha":694,"x_min":40,"x_max":601,"o":"m 601 668 q 526 832 601 765 q 336 896 450 896 q 146 831 224 896 q 69 671 69 767 q 92 592 69 628 q 165 553 115 554 q 251 624 244 550 l 251 635 q 179 703 251 697 q 140 696 168 703 l 132 694 q 113 715 114 694 q 163 808 113 768 q 276 847 213 847 q 392 789 343 847 q 438 643 438 732 q 392 453 438 525 q 340 381 368 417 q 275 310 311 344 l 40 90 l 40 0 l 589 0 l 597 257 l 565 257 q 550 153 565 181 q 496 126 536 126 l 135 126 l 444 400 q 550 508 496 446 q 601 668 601 568 z "},"3":{"ha":694,"x_min":51,"x_max":615,"o":"m 615 229 q 544 393 615 331 q 319 471 475 457 q 517 563 458 506 q 574 697 574 619 q 499 839 574 782 q 310 896 422 896 q 160 851 224 896 q 97 746 96 806 q 169 664 100 664 l 175 664 q 244 726 238 664 q 215 786 244 763 q 186 818 186 807 q 219 849 186 829 q 289 865 250 865 q 388 824 356 865 q 418 706 418 785 q 374 547 418 608 q 256 489 332 492 l 181 486 q 151 468 157 486 q 150 463 150 465 q 157 451 150 453 q 179 449 164 449 l 222 449 q 396 393 340 449 q 450 221 450 339 q 403 68 450 124 q 275 11 357 11 q 186 28 224 11 q 149 67 149 42 q 181 99 149 75 q 214 160 211 119 q 143 232 210 232 l 135 232 q 53 138 57 232 q 121 24 51 72 q 283 -22 188 -22 q 519 51 421 -22 q 615 229 615 122 z "},"4":{"ha":694,"x_min":13,"x_max":653,"o":"m 653 132 l 653 378 l 617 378 l 617 275 l 517 275 l 517 896 l 417 896 l 13 275 l 13 236 l 367 236 l 367 35 l 263 35 l 263 0 l 621 0 l 621 35 l 517 35 l 517 236 l 617 236 l 617 132 l 653 132 m 367 275 l 61 275 l 367 744 l 367 275 z "},"5":{"ha":694,"x_min":65,"x_max":624,"o":"m 624 263 q 539 457 624 385 q 322 531 454 531 q 279 529 300 531 q 239 525 258 528 q 163 508 197 521 l 174 765 l 360 765 q 515 799 467 765 q 563 935 563 832 l 532 935 q 519 906 532 915 q 485 896 504 896 l 140 896 l 121 468 q 126 456 121 456 q 150 460 135 456 q 206 483 178 476 q 237 488 221 486 q 271 490 253 490 q 414 431 367 490 q 463 260 463 369 q 418 71 463 136 q 278 7 375 7 q 193 22 231 7 q 157 60 157 35 q 189 92 157 72 q 224 144 224 110 q 153 229 222 229 l 147 229 q 68 143 72 229 q 82 73 65 103 q 129 21 99 43 q 292 -22 189 -22 q 535 53 444 -22 q 624 263 624 128 z "},"6":{"ha":694,"x_min":51,"x_max":653,"o":"m 653 267 q 578 472 653 386 q 396 557 506 557 q 282 529 335 557 q 225 489 251 513 q 306 708 251 632 q 594 872 396 833 l 594 903 q 217 738 385 894 q 51 361 51 583 q 143 81 51 182 q 353 -22 233 -22 q 564 64 474 -22 q 653 267 653 147 m 486 303 q 463 78 486 153 q 361 4 439 4 q 242 75 267 4 q 217 353 217 146 q 217 399 217 379 q 219 433 218 419 q 283 496 253 478 q 374 522 326 522 q 461 465 433 522 q 486 303 486 408 z "},"7":{"ha":694,"x_min":64,"x_max":636,"o":"m 636 878 l 636 896 l 142 896 l 64 635 l 101 635 q 142 750 129 738 q 190 765 157 765 l 539 765 l 283 182 q 272 153 276 167 q 264 125 268 139 q 259 101 261 111 q 257 85 257 92 q 350 -19 257 -19 q 439 85 439 -19 q 421 161 439 111 q 403 272 403 210 q 482 547 404 378 q 559 714 521 632 q 636 878 597 796 z "},"8":{"ha":694,"x_min":46,"x_max":646,"o":"m 646 206 q 582 372 646 308 q 393 461 518 436 q 565 547 508 493 q 621 676 621 599 q 544 835 621 775 q 346 896 467 896 q 146 838 221 896 q 71 678 71 781 q 113 557 71 608 q 294 461 151 506 q 115 375 188 436 q 46 219 46 314 q 129 43 46 107 q 346 -22 211 -22 q 558 44 471 -22 q 646 206 646 111 m 460 672 q 433 531 460 578 q 343 485 406 485 q 254 532 276 485 q 232 682 232 576 q 257 822 232 776 q 346 868 282 868 q 439 822 415 868 q 460 672 460 778 m 482 226 q 453 63 482 117 q 347 10 424 10 q 239 61 269 10 q 208 218 208 110 q 242 385 208 326 q 347 442 275 442 q 453 388 421 442 q 482 226 482 335 z "},"9":{"ha":694,"x_min":44,"x_max":646,"o":"m 646 514 q 554 794 646 692 q 344 896 465 896 q 133 810 224 896 q 44 607 44 726 q 119 401 44 486 q 301 317 194 317 q 415 344 363 317 q 471 385 449 363 q 392 167 446 242 q 103 4 304 44 l 103 -26 q 481 139 318 -15 q 646 514 646 293 m 481 521 q 480 474 481 494 q 478 440 479 454 q 414 378 444 396 q 325 351 371 351 q 236 408 264 351 q 211 571 211 464 q 235 796 211 721 q 336 869 258 869 q 457 799 432 869 q 481 521 481 725 z "},"\u0007":{"ha":1389,"x_min":0,"x_max":0,"o":""},"‛":{"ha":1389,"x_min":0,"x_max":0,"o":""},"‟":{"ha":1389,"x_min":0,"x_max":0,"o":""},"\u0005":{"ha":463,"x_min":28,"x_max":436,"o":"m 436 900 l 386 900 q 329 799 367 825 q 232 772 290 772 q 135 799 174 772 q 78 900 97 825 l 28 900 q 92 732 33 782 q 232 682 150 682 q 372 732 314 682 q 436 900 431 782 z "},"\u0006":{"ha":463,"x_min":157,"x_max":304,"o":"m 304 743 q 282 794 304 772 q 231 815 261 815 q 178 793 200 815 q 157 743 157 772 q 179 692 157 714 q 231 671 200 671 q 283 693 261 671 q 304 743 304 714 z "},"\b":{"ha":463,"x_min":90,"x_max":374,"o":"m 374 760 q 332 860 374 818 q 232 901 290 901 q 132 860 174 901 q 90 760 90 818 q 132 660 90 701 q 232 618 174 618 q 332 660 290 618 q 374 760 374 701 m 317 760 q 292 699 317 724 q 232 675 268 675 q 172 700 197 675 q 147 760 147 722 q 172 819 147 794 q 232 844 197 844 q 293 819 268 844 q 317 760 317 793 z "},"\n":{"ha":463,"x_min":-32,"x_max":499,"o":"m 499 876 q 482 910 499 893 q 446 928 465 928 q 408 914 426 928 q 318 828 381 894 q 252 760 286 796 q 181 685 218 724 l 253 685 l 479 840 q 499 876 499 860 m 285 876 q 269 910 285 892 q 233 928 253 928 q 194 914 214 928 q 159 883 181 904 q 106 828 138 861 q 40 760 74 796 q -32 685 6 724 l 40 685 l 265 840 q 285 876 285 860 z "},"\u000b":{"ha":463,"x_min":113,"x_max":353,"o":"m 353 -153 l 335 -108 q 294 -126 313 -121 q 261 -131 279 -131 q 214 -117 233 -131 q 193 -76 193 -104 q 207 -32 193 -54 q 246 6 222 -8 l 211 6 q 142 -40 171 -11 q 113 -108 113 -69 q 149 -167 113 -146 q 236 -187 183 -187 q 301 -175 265 -187 q 353 -153 336 -165 z "},"\f":{"ha":463,"x_min":11,"x_max":451,"o":"m 451 900 l 392 900 l 232 756 l 71 900 l 11 900 l 185 665 l 279 665 l 451 900 z "},"\r":{"ha":386,"x_min":14,"x_max":369,"o":"m 369 0 l 369 35 l 268 35 l 268 735 l 18 728 l 18 693 l 118 693 l 118 35 l 14 35 l 14 0 l 369 0 z "},"\u0019":{"ha":232,"x_min":-233,"x_max":463,"o":"m 463 896 l 390 896 l -233 0 l -161 0 l 463 896 z "},"\u001a":{"ha":772,"x_min":24,"x_max":747,"o":"m 747 0 l 747 35 l 650 35 l 650 735 l 400 728 l 271 728 l 271 758 q 269 792 271 776 q 269 823 268 808 q 274 851 269 838 q 289 875 278 864 q 308 895 300 886 q 323 910 315 904 q 339 918 331 915 q 361 921 347 921 q 390 920 369 921 q 432 918 410 919 q 473 914 454 917 q 497 908 492 911 q 518 886 518 897 q 501 856 517 875 q 486 813 486 838 q 560 749 488 749 q 633 818 631 749 q 583 911 635 869 q 544 928 571 921 q 487 940 518 935 q 426 947 456 944 q 378 949 396 949 q 154 847 243 949 q 131 816 138 829 q 124 790 125 803 q 123 763 122 778 q 122 728 124 749 l 24 728 l 24 693 l 121 693 l 121 647 l 121 35 l 24 35 l 24 0 l 351 0 l 351 35 l 271 35 l 271 693 l 400 693 l 428 693 l 500 693 l 500 35 l 419 35 l 419 0 l 747 0 z "},"\u001b":{"ha":772,"x_min":22,"x_max":750,"o":"m 750 0 l 750 35 l 649 35 l 649 949 q 574 924 600 929 q 535 918 563 921 q 504 932 524 926 q 463 941 485 938 q 417 947 440 944 q 375 949 393 949 q 265 926 311 949 q 169 847 218 903 q 147 819 154 831 q 135 795 139 807 q 128 768 131 783 q 124 728 126 753 l 22 728 l 22 693 l 121 693 l 121 661 l 121 35 l 22 35 l 22 0 l 356 0 l 356 35 l 271 35 l 271 693 l 499 693 l 499 35 l 421 35 l 421 0 l 750 0 m 499 728 l 271 728 l 271 758 q 271 821 271 792 q 292 874 271 850 q 328 909 313 897 q 374 921 343 921 q 395 920 382 921 q 422 918 408 919 q 449 915 436 917 q 465 910 461 913 q 483 876 483 900 q 467 840 483 858 q 451 799 451 822 q 499 749 451 758 l 499 728 z "},"\u001c":{"ha":849,"x_min":24,"x_max":817,"o":"m 817 313 l 774 313 q 710 108 769 181 q 525 35 651 35 l 346 35 l 346 528 l 536 686 l 536 756 l 346 597 l 346 893 l 490 893 l 490 928 l 24 928 l 24 893 l 169 893 l 169 451 l 33 339 l 33 269 l 169 382 l 169 35 l 32 35 l 32 0 l 801 0 l 817 313 z "},"\u001d":{"ha":386,"x_min":15,"x_max":372,"o":"m 372 604 l 372 661 l 269 579 l 269 949 q 198 938 229 942 q 144 931 167 933 q 91 928 122 929 q 19 928 60 928 l 19 893 l 119 893 l 119 460 l 15 376 l 15 319 l 119 403 l 119 35 l 15 35 l 15 0 l 371 0 l 371 35 l 269 35 l 269 522 l 372 604 z "},"\u001e":{"ha":849,"x_min":54,"x_max":794,"o":"m 643 1278 l 583 1278 l 424 1133 l 263 1278 l 203 1278 l 376 1043 l 471 1043 l 643 1278 m 794 299 l 757 299 q 649 71 717 108 q 481 35 579 35 l 256 35 l 792 888 l 792 928 l 122 928 l 100 678 l 143 678 q 244 858 175 822 q 413 893 313 893 l 594 893 l 54 38 l 54 0 l 783 0 l 794 299 z "},"\u001f":{"ha":617,"x_min":42,"x_max":542,"o":"m 542 686 l 542 728 l 400 728 l 526 900 l 467 900 l 307 756 l 146 900 l 86 900 l 214 728 l 74 728 l 74 513 l 110 513 q 165 650 124 604 q 242 690 190 679 l 260 665 l 354 665 l 358 671 l 42 39 l 42 0 l 540 0 l 540 236 l 501 236 q 458 82 493 129 q 331 35 424 35 l 217 35 l 542 686 z "}," ":{"ha":347,"x_min":0,"x_max":0,"o":""},"!":{"ha":463,"x_min":139,"x_max":322,"o":"m 322 861 q 294 926 322 903 q 231 949 268 949 q 165 926 192 949 q 139 861 139 904 q 174 672 139 836 q 213 297 208 511 l 249 297 q 260 497 251 403 q 288 674 269 590 q 322 861 322 835 m 318 68 q 292 131 318 104 q 231 156 267 156 q 168 129 194 156 q 143 68 143 104 q 169 6 143 32 q 231 -19 194 -19 q 293 7 267 -19 q 318 68 318 32 z "},"\"":{"ha":472,"x_min":86,"x_max":386,"o":"m 386 897 q 371 933 386 918 q 335 949 356 949 q 299 933 314 949 q 283 897 283 918 l 286 793 l 306 543 q 335 511 308 511 q 364 543 361 511 l 383 792 l 386 897 m 189 897 q 174 933 189 918 q 138 949 158 949 q 101 933 117 949 q 86 897 86 918 l 89 793 l 108 543 q 138 511 111 511 q 167 543 164 511 l 186 792 l 189 897 z "},"#":{"ha":694,"x_min":7,"x_max":690,"o":"m 690 563 l 690 639 l 558 639 l 597 896 l 517 896 l 478 639 l 289 639 l 328 896 l 247 896 l 208 639 l 44 639 l 44 563 l 196 563 l 168 376 l 7 376 l 7 300 l 156 300 l 110 0 l 190 0 l 236 300 l 425 300 l 379 0 l 460 0 l 506 300 l 653 300 l 653 376 l 518 376 l 546 563 l 690 563 m 465 563 l 438 376 l 249 376 l 276 563 l 465 563 z "},"$":{"ha":694,"x_min":58,"x_max":628,"o":"m 628 267 q 563 439 628 381 q 505 478 540 458 q 418 517 469 497 l 418 849 q 485 828 461 840 q 535 772 535 801 q 506 739 535 751 q 476 689 476 726 q 538 626 476 626 l 543 626 q 610 703 610 626 q 542 826 610 776 q 418 871 503 856 l 418 983 l 385 983 l 385 875 q 365 876 378 876 q 339 876 354 876 q 289 872 307 876 l 289 983 l 256 983 l 256 865 q 160 811 197 846 q 89 643 89 746 q 146 482 89 540 q 256 414 181 446 l 256 33 q 182 58 204 44 q 135 111 135 89 q 169 144 135 128 q 203 211 203 161 q 143 271 203 271 l 131 271 q 58 183 58 265 q 135 56 58 110 q 256 7 185 21 l 256 -132 l 289 -132 l 289 3 q 306 1 296 1 q 326 1 315 1 q 385 6 361 1 l 385 -132 l 418 -132 l 418 11 q 544 74 497 32 q 628 267 628 146 m 385 528 q 349 539 371 533 q 319 547 333 543 q 289 556 304 550 l 289 849 q 344 854 310 854 q 368 854 358 854 q 385 853 378 854 l 385 528 m 256 568 q 211 585 233 575 q 142 694 142 614 q 201 807 142 760 q 256 838 222 825 l 256 568 m 574 203 q 503 78 574 128 q 465 56 486 65 q 418 39 443 46 l 418 364 q 467 344 446 354 q 507 324 489 335 q 574 203 574 283 m 385 32 q 329 28 361 28 q 306 28 315 28 q 289 29 296 28 l 289 401 q 332 389 304 394 q 362 381 349 385 q 385 375 375 378 l 385 32 z "},"%":{"ha":1311,"x_min":93,"x_max":1219,"o":"m 1219 354 q 1171 468 1219 419 q 1058 515 1124 515 q 860 397 961 515 q 758 157 758 279 q 803 36 758 85 q 915 -11 846 -11 q 1129 97 1038 -11 q 1219 354 1219 207 m 1185 338 q 1107 126 1185 228 q 951 28 1029 28 q 896 49 914 28 q 876 107 876 71 q 956 340 876 219 q 1088 460 1033 460 q 1160 428 1135 460 q 1185 338 1185 396 m 1014 921 l 951 921 q 839 813 900 850 q 706 775 778 775 l 688 775 q 526 814 571 775 q 506 839 515 828 q 393 886 458 886 q 194 768 296 886 q 93 529 93 650 q 138 408 93 457 q 250 361 181 361 q 464 469 372 361 q 554 725 554 579 q 553 742 554 735 q 551 757 553 750 q 600 744 567 751 q 672 738 639 738 q 853 785 767 738 l 317 -42 l 388 -42 l 1014 921 m 519 708 q 442 500 519 601 q 286 400 364 400 q 231 421 251 400 q 211 479 211 443 q 289 711 211 592 q 418 831 367 829 q 510 771 449 800 q 519 708 519 750 z "},"&":{"ha":1157,"x_min":86,"x_max":1072,"o":"m 1072 0 l 1072 35 l 933 35 q 875 122 904 79 q 815 208 846 165 q 856 264 838 236 q 889 322 874 292 q 942 539 933 411 l 1072 539 l 1072 574 l 763 574 l 763 539 l 900 539 q 856 347 894 431 q 793 240 832 294 q 769 274 782 257 q 746 307 757 290 q 656 438 701 374 q 564 567 610 501 q 690 629 633 593 q 789 779 789 690 q 718 900 789 856 q 553 942 647 942 q 375 885 447 942 q 304 735 304 828 q 332 622 304 682 q 358 572 344 594 q 383 529 371 549 q 168 413 243 479 q 86 219 86 339 q 164 44 86 118 q 393 -28 243 -28 q 593 19 494 -28 q 693 82 649 46 l 750 0 l 1072 0 m 661 768 q 611 633 661 671 q 583 615 600 625 q 542 594 565 606 q 511 635 528 613 q 475 685 494 657 q 429 807 429 751 q 464 883 429 857 q 543 910 496 910 q 632 876 603 910 q 661 768 661 844 m 671 115 l 617 78 q 478 32 543 32 q 314 143 381 32 q 247 324 247 253 q 285 433 247 393 q 401 503 321 469 l 671 115 z "},"'":{"ha":278,"x_min":86,"x_max":189,"o":"m 189 897 q 174 933 189 918 q 138 949 158 949 q 101 933 117 949 q 86 897 86 918 l 89 793 l 108 543 q 138 511 111 511 q 167 543 164 511 l 186 792 l 189 897 z "},"(":{"ha":463,"x_min":68,"x_max":397,"o":"m 397 -325 l 397 -286 q 231 -53 269 -197 q 193 311 193 90 q 232 678 193 536 q 397 910 269 819 l 397 949 q 174 704 281 883 q 68 311 68 528 q 174 -82 68 94 q 397 -325 281 -260 z "},")":{"ha":463,"x_min":68,"x_max":397,"o":"m 397 311 q 292 706 397 529 q 68 949 185 883 l 68 910 q 235 676 194 819 q 272 311 272 532 q 233 -54 272 88 q 68 -286 196 -196 l 68 -325 q 292 -81 185 -260 q 397 311 397 96 z "},"*":{"ha":694,"x_min":94,"x_max":604,"o":"m 604 496 q 572 542 604 521 q 497 563 549 554 q 376 611 447 571 q 499 660 449 651 q 572 681 550 668 q 604 726 604 701 q 596 753 604 738 q 557 779 582 779 q 522 769 540 779 q 497 748 511 763 q 465 714 483 733 q 363 633 433 676 q 368 707 364 674 q 382 764 372 740 q 400 839 400 815 q 350 896 400 896 q 300 839 300 896 q 319 764 300 814 q 338 633 335 718 q 233 715 269 674 q 178 769 199 756 q 143 779 160 779 q 103 753 117 779 q 94 726 94 738 q 128 681 94 701 q 203 660 150 668 q 324 611 253 651 q 201 563 251 571 q 128 542 150 554 q 94 494 94 521 q 103 468 94 482 q 143 443 117 443 q 178 453 160 443 q 203 474 189 460 q 235 508 217 489 q 338 589 267 546 q 332 515 336 549 q 318 458 328 482 q 300 383 300 407 q 350 326 300 326 q 400 383 400 326 q 381 458 400 408 q 363 589 365 504 q 467 507 431 549 q 522 453 501 467 q 557 443 540 443 q 596 468 581 443 q 604 496 604 482 z "},"+":{"ha":694,"x_min":40,"x_max":656,"o":"m 656 274 l 656 349 l 386 349 l 386 613 l 311 613 l 311 349 l 40 349 l 40 274 l 311 274 l 311 6 l 386 6 l 386 274 l 656 274 z "},",":{"ha":463,"x_min":140,"x_max":376,"o":"m 376 6 q 338 121 376 82 q 242 160 299 160 q 167 132 194 160 q 140 64 140 106 q 163 3 140 26 q 215 -21 186 -21 q 283 17 268 -21 q 311 53 299 53 q 335 10 335 53 q 331 -31 335 -8 q 214 -196 318 -117 q 204 -211 204 -204 q 211 -221 204 -217 q 225 -225 217 -225 q 239 -219 228 -225 q 293 -173 268 -199 q 338 -115 318 -147 q 376 6 376 -51 z "},"-":{"ha":463,"x_min":44,"x_max":421,"o":"m 421 400 l 421 474 l 44 474 l 44 400 l 421 400 z "},".":{"ha":271,"x_min":43,"x_max":218,"o":"m 218 68 q 192 131 218 104 q 131 156 167 156 q 68 129 94 156 q 43 68 43 104 q 69 6 43 32 q 131 -19 94 -19 q 193 7 167 -19 q 218 68 218 32 z "},"/":{"ha":386,"x_min":3,"x_max":383,"o":"m 383 949 l 303 949 l 3 -21 l 83 -21 l 383 949 z "},":":{"ha":463,"x_min":143,"x_max":318,"o":"m 318 460 q 292 522 318 496 q 231 547 267 547 q 168 521 194 547 q 143 460 143 496 q 169 397 143 424 q 231 372 194 372 q 293 399 267 372 q 318 460 318 424 m 318 68 q 292 131 318 104 q 231 156 267 156 q 168 129 194 156 q 143 68 143 104 q 169 6 143 32 q 231 -19 194 -19 q 293 7 267 -19 q 318 68 318 32 z "},";":{"ha":463,"x_min":144,"x_max":381,"o":"m 347 460 q 321 522 347 496 q 260 547 296 547 q 197 521 224 547 q 172 460 172 496 q 199 397 172 424 q 260 372 224 372 q 322 399 296 372 q 347 460 347 424 m 381 6 q 342 121 381 82 q 246 160 303 160 q 171 132 199 160 q 144 64 144 106 q 167 3 144 26 q 219 -21 190 -21 q 288 17 272 -21 q 315 53 303 53 q 339 10 339 53 q 335 -31 339 -8 q 218 -196 322 -117 q 208 -211 208 -204 q 215 -221 208 -217 q 229 -225 221 -225 q 243 -219 232 -225 q 297 -173 272 -199 q 342 -115 322 -147 q 381 6 381 -51 z "},"<":{"ha":694,"x_min":19,"x_max":674,"o":"m 674 -28 l 674 50 l 106 308 l 674 567 l 674 644 l 19 343 l 19 274 l 674 -28 z "},"=":{"ha":694,"x_min":42,"x_max":657,"o":"m 657 363 l 657 438 l 42 438 l 42 363 l 657 363 m 657 179 l 657 254 l 42 254 l 42 179 l 657 179 z "},">":{"ha":694,"x_min":19,"x_max":674,"o":"m 674 274 l 674 343 l 19 644 l 19 567 l 588 308 l 19 50 l 19 -28 l 674 274 z "},"?":{"ha":617,"x_min":82,"x_max":536,"o":"m 536 721 q 474 878 536 804 q 300 949 411 949 q 140 894 200 949 q 82 781 82 840 l 82 775 q 154 699 82 700 q 225 765 225 696 q 189 822 225 807 q 153 849 153 838 q 201 894 153 869 q 297 918 251 918 q 407 881 363 918 q 450 793 450 843 q 390 682 450 729 q 294 597 329 635 q 232 507 249 547 q 217 424 217 465 l 232 293 l 267 293 l 267 331 q 294 408 267 383 q 389 481 322 436 q 485 572 432 510 q 536 721 536 632 m 333 68 q 307 131 333 104 q 246 156 282 156 q 183 129 210 156 q 158 68 158 104 q 185 6 158 32 q 246 -19 210 -19 q 308 7 282 -19 q 333 68 333 32 z "},"@":{"ha":626,"x_min":-3,"x_max":593,"o":"m 593 678 q 513 863 593 783 q 308 942 433 942 q 88 846 179 942 q -3 624 -3 749 q 86 399 -3 493 q 317 301 175 301 q 483 361 410 301 q 585 482 560 421 l 547 482 q 456 383 519 426 q 308 339 388 339 q 121 418 204 339 q 36 621 36 499 q 118 822 36 738 q 311 904 199 904 q 486 838 415 904 q 556 681 556 771 q 501 528 556 592 q 399 463 449 463 q 378 471 382 463 l 376 479 q 381 503 376 488 l 476 792 l 406 792 l 396 758 q 360 797 386 785 q 308 810 332 810 q 169 726 225 810 q 114 563 114 646 q 144 465 114 496 q 221 433 174 433 q 279 449 251 433 q 301 464 292 456 q 317 479 310 472 q 347 442 328 451 q 392 432 368 432 q 528 506 464 432 q 593 678 593 579 m 378 724 q 333 582 378 707 q 233 460 290 460 q 196 471 213 460 q 179 507 179 483 q 226 692 179 599 q 332 786 274 786 q 364 767 349 786 q 378 724 378 746 z "},"A":{"ha":926,"x_min":4,"x_max":922,"o":"m 922 0 l 922 35 l 813 35 l 496 949 l 447 949 l 115 35 l 4 35 l 4 0 l 299 0 l 299 35 l 157 35 l 243 281 l 544 281 l 626 35 l 483 35 l 483 0 l 922 0 m 528 315 l 258 315 l 399 703 l 528 315 z "},"B":{"ha":926,"x_min":22,"x_max":853,"o":"m 853 247 q 769 406 853 340 q 549 482 689 467 q 750 560 679 501 q 821 707 821 619 q 733 874 821 819 q 485 928 646 928 l 22 928 l 22 893 l 160 893 l 160 35 l 22 35 l 22 0 l 514 0 q 763 64 674 0 q 853 247 853 129 m 632 707 q 592 551 632 607 q 468 497 551 497 l 336 497 l 336 893 l 476 893 q 596 847 558 893 q 632 707 632 803 m 654 249 q 619 92 654 147 q 519 35 586 35 l 336 35 l 336 463 l 468 463 q 608 410 563 463 q 654 249 654 357 z "},"C":{"ha":926,"x_min":72,"x_max":826,"o":"m 826 -8 l 826 275 l 786 275 q 674 68 746 122 q 518 14 600 14 q 336 97 396 14 q 276 338 276 179 l 276 590 q 335 831 276 744 q 510 914 390 914 q 668 863 592 914 q 774 667 744 813 l 814 667 l 814 935 l 782 935 l 728 876 q 638 928 693 906 q 515 949 585 949 q 201 804 333 949 q 72 460 72 660 q 203 124 72 267 q 503 -21 332 -21 q 631 -1 568 -21 q 739 57 689 17 l 796 -8 l 826 -8 z "},"D":{"ha":1003,"x_min":36,"x_max":933,"o":"m 933 463 q 807 796 933 665 q 457 928 682 928 l 36 928 l 36 893 l 174 893 l 174 35 l 36 35 l 36 0 l 440 0 q 814 135 696 0 q 933 463 933 269 m 743 490 q 682 140 743 247 q 444 35 622 35 l 350 35 l 350 893 l 413 893 q 683 811 621 893 q 743 490 743 728 z "},"E":{"ha":926,"x_min":49,"x_max":850,"o":"m 850 299 l 810 299 q 736 100 789 165 q 549 35 683 35 l 363 35 l 363 460 l 400 460 q 540 404 506 460 q 574 276 574 350 l 613 276 l 613 664 l 574 664 q 539 544 574 596 q 400 494 506 494 l 363 494 l 363 893 l 522 893 q 696 851 638 893 q 785 678 754 811 l 824 678 l 814 928 l 49 928 l 49 893 l 186 893 l 186 35 l 49 35 l 49 0 l 838 0 l 850 299 z "},"F":{"ha":849,"x_min":35,"x_max":814,"o":"m 814 644 l 804 928 l 35 928 l 35 893 l 172 893 l 172 35 l 35 35 l 35 0 l 486 0 l 486 35 l 349 35 l 349 460 l 386 460 q 528 404 493 460 q 561 276 561 350 l 600 276 l 600 664 l 561 664 q 526 544 561 596 q 386 494 493 494 l 349 494 l 349 893 l 513 893 q 686 846 629 893 q 775 644 744 796 l 814 644 z "},"G":{"ha":1003,"x_min":72,"x_max":969,"o":"m 969 303 l 969 338 l 535 338 l 535 303 l 675 303 l 675 189 q 628 53 675 92 q 510 14 583 14 q 325 104 374 14 q 276 389 276 194 l 276 578 q 333 831 276 746 q 521 914 389 914 q 672 860 599 914 q 785 667 744 808 l 825 667 l 825 935 l 793 935 l 736 876 q 640 928 699 907 q 511 949 583 949 q 201 804 331 949 q 72 457 72 660 q 200 115 72 251 q 518 -21 325 -21 q 768 64 669 -21 q 872 303 867 147 l 969 303 z "},"H":{"ha":1081,"x_min":39,"x_max":1040,"o":"m 1040 0 l 1040 35 l 903 35 l 903 893 l 1040 893 l 1040 928 l 589 928 l 589 893 l 726 893 l 726 493 l 353 493 l 353 893 l 490 893 l 490 928 l 39 928 l 39 893 l 176 893 l 176 35 l 39 35 l 39 0 l 490 0 l 490 35 l 353 35 l 353 460 l 726 460 l 726 35 l 589 35 l 589 0 l 1040 0 z "},"I":{"ha":540,"x_min":43,"x_max":496,"o":"m 496 0 l 496 35 l 358 35 l 358 893 l 496 893 l 496 928 l 43 928 l 43 893 l 181 893 l 181 35 l 43 35 l 43 0 l 496 0 z "},"J":{"ha":694,"x_min":29,"x_max":633,"o":"m 633 893 l 633 928 l 174 928 l 174 893 l 321 893 l 321 24 q 296 -58 321 -29 q 226 -86 272 -86 q 175 -76 194 -86 q 154 -56 154 -68 q 175 -15 154 -44 q 194 32 194 13 q 117 108 189 108 l 111 108 q 31 18 33 108 q 44 -36 29 -11 q 85 -81 58 -61 q 215 -121 138 -121 q 419 -39 342 -121 q 497 174 497 43 l 497 893 l 633 893 z "},"K":{"ha":1003,"x_min":32,"x_max":1006,"o":"m 1006 0 l 1006 35 l 943 35 l 500 575 l 803 893 l 939 893 l 939 928 l 590 928 l 590 893 l 749 893 l 361 481 l 719 35 l 575 35 l 575 0 l 1006 0 m 483 0 l 483 35 l 346 35 l 346 481 l 346 893 l 483 893 l 483 928 l 32 928 l 32 893 l 169 893 l 169 35 l 32 35 l 32 0 l 483 0 z "},"L":{"ha":849,"x_min":32,"x_max":817,"o":"m 817 313 l 774 313 q 710 108 769 181 q 525 35 651 35 l 346 35 l 346 893 l 490 893 l 490 928 l 32 928 l 32 893 l 169 893 l 169 35 l 32 35 l 32 0 l 801 0 l 817 313 z "},"M":{"ha":1157,"x_min":25,"x_max":1131,"o":"m 1131 0 l 1131 35 l 993 35 l 993 893 l 1131 893 l 1131 928 l 779 928 l 578 292 l 383 928 l 25 928 l 25 893 l 163 893 l 163 35 l 25 35 l 25 0 l 343 0 l 343 35 l 206 35 l 206 883 l 486 0 l 533 0 l 817 883 l 817 35 l 679 35 l 679 0 l 1131 0 z "},"N":{"ha":1003,"x_min":26,"x_max":975,"o":"m 975 893 l 975 928 l 660 928 l 660 893 l 793 893 l 793 321 l 382 928 l 26 928 l 26 893 l 163 893 l 163 35 l 26 35 l 26 0 l 343 0 l 343 35 l 207 35 l 207 867 l 796 -18 l 838 -18 l 838 893 l 975 893 z "},"O":{"ha":1003,"x_min":68,"x_max":933,"o":"m 933 464 q 803 804 933 660 q 500 949 671 949 q 197 803 328 949 q 68 464 68 658 q 199 124 68 268 q 500 -21 328 -21 q 803 125 671 -21 q 933 464 933 268 m 729 299 q 672 86 729 160 q 500 14 617 14 q 328 86 383 14 q 272 299 272 158 l 272 629 q 328 842 272 769 q 500 914 383 914 q 674 842 615 914 q 729 629 729 767 l 729 299 z "},"P":{"ha":926,"x_min":58,"x_max":894,"o":"m 894 676 q 797 867 894 804 q 522 928 700 928 l 58 928 l 58 893 l 196 893 l 196 35 l 58 35 l 58 0 l 521 0 l 521 35 l 372 35 l 372 421 l 529 421 q 796 488 696 421 q 894 676 894 554 m 699 681 q 660 511 699 567 q 538 456 622 456 l 372 456 l 372 893 l 543 893 q 663 840 626 893 q 699 681 699 788 z "},"Q":{"ha":1003,"x_min":68,"x_max":933,"o":"m 933 464 q 803 804 933 660 q 500 949 671 949 q 197 803 328 949 q 68 464 68 658 q 197 124 68 269 q 404 -8 283 26 q 476 -217 406 -164 q 575 -271 549 -271 q 619 -283 575 -272 q 683 -294 646 -290 q 769 -296 721 -297 l 868 -293 l 868 -260 l 840 -260 q 672 -228 708 -260 q 640 -194 639 -199 q 615 -147 638 -194 q 599 -57 599 -114 q 599 -33 599 -46 q 601 -7 600 -21 q 803 124 718 29 q 933 464 933 268 m 729 299 q 672 86 729 160 q 500 14 617 14 q 328 86 383 14 q 272 299 272 158 l 272 629 q 328 842 272 769 q 500 914 383 914 q 674 842 615 914 q 729 629 729 767 l 729 299 z "},"R":{"ha":1003,"x_min":63,"x_max":968,"o":"m 968 0 l 968 32 q 910 28 932 28 q 865 35 878 28 q 832 79 840 47 l 831 147 q 819 264 829 210 q 785 364 808 318 q 565 490 739 454 q 786 569 713 513 q 858 717 858 625 q 781 878 858 829 q 551 928 706 928 l 63 928 l 63 893 l 200 893 l 200 35 l 63 35 l 63 0 l 514 0 l 514 35 l 376 35 l 376 478 l 449 478 q 594 404 550 478 q 624 317 615 368 q 636 199 632 265 l 640 139 q 742 3 661 40 q 843 -17 785 -17 q 968 0 899 -17 m 668 701 q 626 558 668 604 q 494 513 585 513 l 376 513 l 376 893 l 513 893 q 635 847 599 893 q 668 701 668 803 z "},"S":{"ha":772,"x_min":96,"x_max":675,"o":"m 675 290 q 613 489 675 418 q 389 599 551 557 q 232 651 286 625 q 179 754 179 675 q 231 867 179 819 q 353 914 282 914 q 515 846 451 914 q 592 672 579 775 l 636 672 l 636 935 l 610 935 l 557 881 q 464 932 514 915 q 356 949 414 949 q 174 875 247 949 q 103 688 103 801 q 161 510 103 578 q 350 408 219 443 q 531 336 458 379 q 599 207 599 294 q 538 69 599 126 q 389 14 478 14 q 221 89 285 14 q 136 268 157 164 l 96 268 l 96 -8 l 119 -8 l 186 50 q 278 -3 225 17 q 385 -21 324 -21 q 594 65 513 -21 q 675 290 675 150 z "},"T":{"ha":926,"x_min":50,"x_max":876,"o":"m 876 631 l 861 928 l 65 928 l 50 631 l 94 631 q 181 843 118 792 q 338 893 244 893 l 376 893 l 376 35 l 231 35 l 231 0 l 699 0 l 699 35 l 553 35 l 553 893 l 589 893 q 746 842 682 893 q 832 631 808 793 l 876 631 z "},"U":{"ha":1003,"x_min":21,"x_max":981,"o":"m 981 893 l 981 928 l 663 928 l 663 893 l 800 893 l 800 279 q 738 89 800 156 q 558 24 676 24 q 389 82 443 24 q 335 260 335 138 l 335 893 l 472 893 l 472 928 l 21 928 l 21 893 l 158 893 l 158 322 q 239 57 158 136 q 501 -21 319 -21 q 763 56 682 -21 q 843 303 843 131 l 843 893 l 981 893 z "},"V":{"ha":926,"x_min":0,"x_max":925,"o":"m 925 893 l 925 928 l 624 928 l 624 893 l 768 893 l 533 243 l 297 893 l 440 893 l 440 928 l 0 928 l 0 893 l 115 893 l 446 -21 l 488 -21 l 810 893 l 925 893 z "},"W":{"ha":1311,"x_min":21,"x_max":1286,"o":"m 1286 893 l 1286 928 l 1031 928 l 1031 893 l 1143 893 l 897 222 l 764 585 l 874 893 l 965 893 l 965 928 l 757 928 l 404 928 l 21 928 l 21 893 l 126 893 l 460 -21 l 504 -21 l 658 406 l 815 -21 l 858 -21 l 1185 893 l 1286 893 m 836 893 l 744 654 l 644 893 l 757 893 l 836 893 m 638 467 l 551 221 l 301 893 l 404 893 l 482 893 l 638 467 z "},"X":{"ha":1003,"x_min":24,"x_max":976,"o":"m 976 0 l 976 35 l 872 35 l 551 539 l 796 893 l 926 893 l 926 928 l 590 928 l 590 893 l 747 893 l 529 575 l 335 893 l 472 893 l 472 928 l 29 928 l 29 893 l 136 893 l 422 421 l 154 35 l 24 35 l 24 0 l 367 0 l 367 35 l 203 35 l 449 385 l 667 35 l 524 35 l 524 0 l 976 0 z "},"Y":{"ha":926,"x_min":1,"x_max":926,"o":"m 926 893 l 926 928 l 626 928 l 626 893 l 771 893 l 547 494 l 311 893 l 453 893 l 453 928 l 1 928 l 1 893 l 103 893 l 394 421 l 394 35 l 247 35 l 247 0 l 725 0 l 725 35 l 571 35 l 571 451 l 813 893 l 926 893 z "},"Z":{"ha":849,"x_min":54,"x_max":794,"o":"m 794 299 l 757 299 q 649 71 717 108 q 481 35 579 35 l 256 35 l 792 888 l 792 928 l 122 928 l 100 678 l 143 678 q 244 858 175 822 q 413 893 313 893 l 594 893 l 54 38 l 54 0 l 783 0 l 794 299 z "},"[":{"ha":540,"x_min":100,"x_max":442,"o":"m 442 -325 l 442 -274 l 213 -276 l 213 897 l 442 897 l 442 949 l 100 949 l 100 -325 l 442 -325 z "},"\\":{"ha":722,"x_min":171,"x_max":560,"o":"m 560 -21 l 251 949 l 171 949 l 479 -21 l 560 -21 z "},"]":{"ha":540,"x_min":100,"x_max":442,"o":"m 442 -325 l 442 949 l 100 949 l 100 897 l 329 900 l 329 -274 l 100 -274 l 100 -325 l 442 -325 z "},"^":{"ha":694,"x_min":15,"x_max":676,"o":"m 676 240 l 379 896 l 313 896 l 15 240 l 92 240 l 346 807 l 600 240 l 676 240 z "},"_":{"ha":694,"x_min":0,"x_max":694,"o":"m 694 -349 l 694 -268 l 0 -268 l 0 -349 l 694 -349 z "},"`":{"ha":463,"x_min":72,"x_max":390,"o":"m 390 685 q 336 740 363 713 q 282 796 310 768 q 229 851 256 824 q 175 904 203 878 q 129 926 153 926 q 89 908 107 926 q 72 878 72 893 q 106 832 72 854 l 321 685 l 390 685 z "},"a":{"ha":694,"x_min":69,"x_max":657,"o":"m 657 53 l 640 72 q 631 65 638 69 q 618 53 625 60 q 592 40 603 40 q 567 49 576 40 q 558 68 558 54 l 558 565 q 494 689 558 642 q 333 736 428 736 q 169 694 232 736 q 108 592 107 651 q 176 529 110 529 q 247 589 242 529 q 235 642 247 618 q 224 667 224 664 q 256 694 224 679 q 324 708 285 708 q 388 683 356 708 q 417 622 417 658 l 417 396 q 381 396 399 396 q 346 394 364 396 q 311 392 328 393 q 279 388 294 390 q 128 311 186 371 q 69 156 69 253 q 107 28 69 79 q 213 -22 144 -22 q 318 1 264 -22 q 417 76 368 24 q 449 7 421 38 q 526 -21 474 -21 q 601 0 572 -21 q 657 53 631 22 m 417 246 q 385 107 417 168 q 303 47 354 47 q 236 90 257 47 q 215 199 215 133 q 242 306 215 267 q 314 357 267 344 q 350 361 335 361 q 374 357 363 361 q 417 332 396 347 l 417 246 z "},"b":{"ha":772,"x_min":22,"x_max":706,"o":"m 706 357 q 624 624 706 508 q 436 736 544 736 q 350 713 393 736 q 272 635 308 689 l 272 949 q 201 938 232 942 q 147 931 169 933 q 94 928 125 929 q 22 928 63 928 l 22 893 l 122 893 l 122 35 l 22 35 l 22 0 q 105 -1 65 0 q 181 -1 144 -1 q 272 -14 253 -4 l 272 75 q 353 1 308 25 q 443 -21 393 -21 q 629 90 551 -21 q 706 357 706 203 m 542 226 q 515 68 542 126 q 439 7 488 7 q 322 81 372 7 q 272 263 272 153 l 272 436 q 322 629 272 547 q 442 708 369 708 q 515 646 486 708 q 535 575 528 614 q 542 489 542 536 l 542 226 z "},"c":{"ha":617,"x_min":54,"x_max":564,"o":"m 564 246 l 529 244 q 471 89 521 169 q 343 7 422 7 q 243 72 271 7 q 217 263 217 135 l 217 450 q 246 639 217 568 q 333 708 274 708 q 401 696 368 708 q 439 664 435 686 q 417 631 439 649 q 394 581 394 614 q 472 515 403 515 q 550 590 543 515 q 485 699 550 661 q 343 736 419 736 q 136 628 217 736 q 54 357 54 518 q 131 89 54 199 q 319 -21 207 -21 q 476 44 411 -21 q 564 246 542 111 z "},"d":{"ha":772,"x_min":57,"x_max":742,"o":"m 742 0 l 742 35 l 640 35 l 640 949 q 569 938 600 942 q 515 931 538 933 q 462 928 493 929 q 390 928 431 928 l 390 893 l 490 893 l 490 619 q 415 713 461 688 q 326 736 371 736 q 138 622 218 736 q 57 357 57 511 q 128 88 57 197 q 307 -21 199 -21 q 408 4 358 -21 q 492 96 457 31 l 492 -11 q 533 -6 507 -8 q 599 -3 560 -3 q 672 0 638 0 q 742 0 708 0 m 492 276 q 439 89 492 171 q 324 7 389 7 q 249 69 275 7 q 224 231 224 132 l 224 485 q 249 647 224 585 q 321 708 272 708 q 442 622 393 708 q 492 407 492 539 l 492 276 z "},"e":{"ha":617,"x_min":44,"x_max":572,"o":"m 572 263 l 538 263 q 513 178 531 221 q 469 93 496 136 q 332 7 417 7 q 238 74 264 7 q 210 263 210 142 l 210 396 l 556 396 q 565 406 565 396 q 567 417 567 411 q 568 432 568 424 q 496 647 568 558 q 324 736 425 736 q 126 621 208 736 q 44 344 44 506 q 125 89 44 199 q 310 -21 206 -21 q 474 49 401 -21 q 572 263 543 118 m 414 526 l 411 431 l 210 431 l 210 456 q 231 644 210 579 q 314 708 249 708 q 389 660 364 708 q 414 526 415 608 z "},"f":{"ha":463,"x_min":17,"x_max":522,"o":"m 521 835 q 483 915 522 881 q 381 949 447 949 q 321 942 353 949 q 258 924 289 936 q 200 892 226 911 q 156 847 174 872 q 136 815 142 828 q 128 792 131 803 q 127 766 126 781 q 128 728 128 751 l 17 728 l 17 693 l 128 693 l 128 661 l 128 35 l 19 35 l 19 0 l 397 0 l 397 35 l 278 35 l 278 693 l 410 693 l 410 728 l 278 728 l 278 758 q 272 821 278 792 q 283 874 267 850 q 349 921 314 921 q 380 919 358 921 q 408 914 401 917 q 421 894 421 907 q 400 871 421 888 q 381 831 381 856 q 447 767 381 767 q 521 835 517 767 z "},"g":{"ha":617,"x_min":50,"x_max":614,"o":"m 614 688 q 594 728 614 713 q 556 742 576 742 q 503 726 531 742 q 444 665 483 714 l 440 669 q 292 736 379 736 q 140 671 201 736 q 82 500 82 606 q 146 342 82 406 q 164 325 154 333 q 185 310 174 317 q 86 246 121 289 q 50 125 50 201 q 153 -39 50 -28 q 82 -89 104 -67 q 50 -176 50 -121 q 117 -282 50 -239 q 288 -325 182 -325 q 503 -253 414 -325 q 590 -58 590 -181 q 557 47 590 11 q 471 81 525 81 q 185 85 276 83 q 94 154 94 88 q 149 247 94 218 q 299 276 200 276 q 447 340 389 276 q 503 507 503 407 q 463 643 503 586 q 469 653 465 649 q 478 664 474 658 q 506 681 492 681 q 528 657 517 681 q 571 635 538 635 q 601 650 586 635 q 614 688 614 664 m 369 506 q 367 406 369 446 q 363 343 365 365 q 292 300 357 300 q 224 346 232 300 q 219 408 221 368 q 217 507 217 449 q 219 603 217 564 q 226 664 221 642 q 296 708 235 708 q 364 664 357 708 q 368 603 367 642 q 369 506 369 564 m 542 -104 q 463 -242 542 -192 q 293 -290 382 -290 q 176 -249 214 -290 q 140 -154 140 -208 q 154 -78 140 -107 q 211 -43 164 -54 q 318 -48 261 -46 q 442 -50 375 -50 q 518 -64 494 -50 q 542 -104 542 -76 z "},"h":{"ha":772,"x_min":29,"x_max":750,"o":"m 750 0 l 750 35 l 658 35 l 658 457 q 618 665 658 593 q 485 736 578 736 q 371 706 426 736 q 279 603 315 676 l 279 949 q 208 938 239 942 q 154 931 176 933 q 101 928 132 929 q 29 928 69 928 l 29 893 l 129 893 l 129 35 l 35 35 l 35 0 l 363 0 l 363 35 l 279 35 l 279 357 q 328 601 279 515 q 433 686 375 686 q 494 628 479 686 q 508 463 508 574 l 508 35 l 421 35 l 421 0 l 750 0 z "},"i":{"ha":386,"x_min":14,"x_max":369,"o":"m 272 875 q 249 931 272 907 q 193 954 225 954 q 138 931 161 954 q 114 874 114 907 q 138 818 114 842 q 193 794 161 794 q 249 818 225 794 q 272 875 272 842 m 369 0 l 369 35 l 268 35 l 268 735 l 18 728 l 18 693 l 118 693 l 118 35 l 14 35 l 14 0 l 369 0 z "},"j":{"ha":463,"x_min":-25,"x_max":338,"o":"m 338 889 q 314 944 338 921 q 258 968 290 968 q 203 944 226 968 q 179 888 179 921 q 203 832 179 856 q 258 808 226 808 q 314 832 290 808 q 338 889 338 856 m 333 46 l 333 735 l 83 728 l 83 693 l 183 693 l 183 -128 q 169 -246 183 -204 q 124 -289 156 -289 q 99 -283 108 -289 q 89 -265 89 -278 q 97 -236 89 -256 q 106 -204 106 -218 q 47 -147 103 -147 l 39 -147 q -25 -219 -25 -147 q 7 -292 -25 -257 q 92 -325 38 -325 q 271 -229 208 -325 q 333 46 333 -133 z "},"k":{"ha":772,"x_min":31,"x_max":739,"o":"m 739 0 l 739 35 l 685 35 l 425 458 l 578 693 l 700 693 l 700 728 l 401 728 l 401 693 l 517 693 l 299 396 l 510 35 l 431 35 l 431 0 l 739 0 m 367 0 l 367 35 l 281 35 l 281 396 l 281 949 q 209 938 240 942 q 156 931 178 933 q 102 928 133 929 q 31 928 71 928 l 31 893 l 131 893 l 131 35 l 42 35 l 42 0 l 367 0 z "},"l":{"ha":386,"x_min":15,"x_max":371,"o":"m 371 0 l 371 35 l 269 35 l 269 949 q 198 938 229 942 q 144 931 167 933 q 91 928 122 929 q 19 928 60 928 l 19 893 l 119 893 l 119 35 l 15 35 l 15 0 l 371 0 z "},"m":{"ha":1081,"x_min":25,"x_max":1063,"o":"m 1063 0 l 1063 35 l 971 35 l 971 457 q 936 668 971 600 q 804 736 901 736 q 690 700 739 736 q 622 621 646 665 q 565 704 604 672 q 456 736 529 736 q 350 706 401 736 q 267 603 300 676 l 267 735 l 25 728 l 25 693 l 119 693 l 119 35 l 25 35 l 25 0 l 347 0 l 347 35 l 269 35 l 269 419 q 315 613 269 539 q 392 686 361 686 l 403 686 q 458 647 446 686 q 471 528 471 607 l 471 35 l 400 35 l 400 0 l 697 0 l 697 35 l 621 35 l 621 413 q 664 618 621 550 q 756 686 706 686 l 767 686 q 813 647 804 686 q 821 528 821 607 l 821 35 l 749 35 l 749 0 l 1063 0 z "},"n":{"ha":772,"x_min":32,"x_max":740,"o":"m 740 0 l 740 35 l 651 35 l 651 457 q 613 665 651 596 q 481 736 572 736 q 365 706 421 736 q 274 603 310 676 l 274 735 l 32 728 l 32 693 l 126 693 l 126 35 l 32 35 l 32 0 l 361 0 l 361 35 l 274 35 l 274 357 q 322 601 274 515 q 429 686 369 686 q 492 628 476 686 q 502 558 499 600 q 506 463 506 517 l 506 35 l 418 35 l 418 0 l 740 0 z "},"o":{"ha":694,"x_min":54,"x_max":639,"o":"m 639 357 q 550 624 639 510 q 346 736 463 736 q 142 622 231 736 q 54 357 54 510 q 143 92 54 206 q 346 -21 231 -21 q 551 93 463 -21 q 639 357 639 206 m 472 267 q 446 72 472 138 q 346 7 418 7 q 247 74 274 7 q 221 267 221 136 l 221 449 q 247 643 221 578 q 346 708 275 708 q 446 642 418 708 q 472 449 472 579 l 472 267 z "},"p":{"ha":772,"x_min":24,"x_max":707,"o":"m 707 357 q 629 625 707 514 q 444 736 554 736 q 353 708 397 736 q 271 621 311 683 l 271 735 l 24 728 l 24 693 l 124 693 l 124 -290 l 25 -290 l 25 -325 l 369 -325 l 369 -290 l 274 -290 l 274 82 q 347 1 301 25 q 438 -21 390 -21 q 628 92 546 -21 q 707 357 707 201 m 543 211 q 515 64 543 124 q 443 7 490 7 q 321 86 368 7 q 274 281 274 163 l 274 458 q 288 548 274 506 q 331 631 303 590 q 440 708 383 708 q 517 651 489 708 q 543 504 543 597 l 543 211 z "},"q":{"ha":772,"x_min":60,"x_max":744,"o":"m 744 689 l 744 732 l 493 738 l 493 601 q 414 711 460 678 q 322 744 368 744 q 136 633 213 744 q 60 365 60 521 q 140 100 60 210 q 329 -12 219 -12 q 419 11 375 -12 q 493 89 464 38 l 493 -282 l 396 -282 l 396 -317 l 743 -317 l 743 -282 l 643 -282 l 643 685 l 744 689 m 493 292 q 443 96 493 176 q 324 15 394 15 q 250 82 276 15 q 222 247 222 149 l 222 476 q 247 650 222 581 q 319 717 272 717 q 450 624 407 717 q 493 358 493 533 l 493 292 z "},"r":{"ha":617,"x_min":42,"x_max":590,"o":"m 590 643 q 561 710 590 682 q 482 736 533 736 q 372 699 422 736 q 281 581 325 664 l 281 735 l 42 728 l 42 693 l 133 693 l 133 35 l 51 35 l 51 0 l 408 0 l 408 35 l 283 35 l 283 314 q 329 572 283 460 q 429 683 375 683 q 433 683 432 683 q 438 682 435 682 q 440 675 440 679 l 435 629 q 507 568 439 568 l 513 568 q 590 643 588 568 z "},"s":{"ha":540,"x_min":71,"x_max":469,"o":"m 469 213 q 433 368 469 315 q 380 412 415 394 q 292 442 344 429 q 169 493 203 464 q 140 568 140 518 q 171 667 140 626 q 256 708 200 708 q 354 661 313 708 q 399 564 394 614 l 435 564 l 435 742 l 411 742 l 389 692 q 331 724 364 711 q 256 736 294 736 q 126 676 176 736 q 76 517 76 618 q 133 358 76 407 q 193 319 161 335 q 261 294 225 303 q 378 249 344 275 q 411 153 411 221 q 372 49 411 89 q 283 7 335 7 q 167 61 214 7 q 108 199 121 115 l 71 199 l 71 -4 l 93 -4 l 133 38 q 203 -7 165 10 q 278 -22 242 -22 q 421 39 371 -22 q 469 213 469 100 z "},"t":{"ha":463,"x_min":36,"x_max":442,"o":"m 442 93 l 414 107 q 382 54 403 75 q 328 33 363 33 q 286 47 299 33 q 275 94 275 63 l 275 686 l 406 686 l 406 728 l 275 728 l 275 881 l 125 844 l 125 728 l 36 728 l 36 686 l 125 686 l 125 92 q 158 4 125 29 q 267 -21 189 -21 q 390 18 351 -21 q 442 93 432 57 z "},"u":{"ha":772,"x_min":31,"x_max":742,"o":"m 742 0 l 742 35 l 646 35 l 646 733 l 392 728 l 392 693 l 496 693 l 496 306 q 447 106 496 190 q 332 24 399 24 q 285 60 300 24 q 271 158 271 93 l 271 733 l 31 728 l 31 693 l 121 693 l 121 201 q 165 39 121 100 q 289 -21 207 -21 q 401 11 349 -21 q 497 114 453 40 l 497 -11 q 540 -5 521 -7 q 574 -1 560 -3 q 629 0 588 0 q 742 0 671 0 z "},"v":{"ha":694,"x_min":29,"x_max":661,"o":"m 661 693 l 661 728 l 447 728 l 447 693 l 543 693 l 396 208 l 257 693 l 344 693 l 344 728 l 29 728 l 29 693 l 100 693 l 324 -21 l 361 -21 l 585 693 l 661 693 z "},"w":{"ha":926,"x_min":7,"x_max":911,"o":"m 911 693 l 911 728 l 692 728 l 692 693 l 786 693 l 672 186 l 525 728 l 458 728 l 458 708 l 333 176 l 228 693 l 321 693 l 321 728 l 7 728 l 7 693 l 75 693 l 269 -21 l 313 -21 l 451 518 l 606 -21 l 650 -21 l 829 693 l 911 693 z "},"x":{"ha":694,"x_min":26,"x_max":663,"o":"m 663 0 l 663 35 l 604 35 l 399 413 l 547 693 l 640 693 l 640 728 l 411 728 l 411 693 l 503 693 l 375 442 l 256 693 q 279 697 268 697 l 293 696 q 312 694 303 694 q 331 693 321 693 l 331 728 l 26 728 l 26 693 l 88 693 l 279 331 l 115 35 l 26 35 l 26 0 l 257 0 l 257 35 l 161 35 l 303 303 l 432 35 l 357 35 l 357 0 l 663 0 z "},"y":{"ha":694,"x_min":26,"x_max":661,"o":"m 661 693 l 661 728 l 442 728 l 442 693 l 542 693 l 410 254 l 256 693 l 344 693 l 344 728 l 26 728 l 26 693 l 94 693 l 339 38 l 307 -89 q 269 -172 283 -142 q 250 -212 256 -203 q 233 -229 239 -229 q 224 -224 228 -229 q 217 -214 222 -219 q 158 -183 192 -183 q 147 -184 153 -183 q 135 -186 142 -185 q 85 -253 85 -199 q 110 -306 85 -287 q 161 -325 136 -325 q 257 -268 213 -325 q 299 -206 279 -240 q 331 -131 318 -172 l 583 693 l 661 693 z "},"z":{"ha":617,"x_min":42,"x_max":542,"o":"m 542 686 l 542 728 l 74 728 l 74 513 l 110 513 q 165 650 124 604 q 281 693 204 693 l 369 693 l 42 39 l 42 0 l 540 0 l 540 236 l 501 236 q 458 82 493 129 q 331 35 424 35 l 217 35 l 542 686 z "},"{":{"ha":540,"x_min":78,"x_max":458,"o":"m 458 -322 q 367 -276 410 -312 q 325 -158 325 -242 l 325 108 q 286 254 325 210 q 165 311 246 299 q 286 371 247 326 q 325 515 325 414 l 325 782 q 368 900 325 865 q 458 949 411 936 q 263 900 315 949 q 211 779 211 853 l 211 458 q 179 357 211 389 q 78 310 146 324 q 179 267 146 299 q 211 165 211 235 l 211 -156 q 263 -276 211 -229 q 458 -322 314 -325 z "},"|":{"ha":778,"x_min":351,"x_max":428,"o":"m 428 -347 l 428 1042 l 351 1042 l 351 -347 l 428 -347 z "},"}":{"ha":540,"x_min":78,"x_max":457,"o":"m 457 314 q 356 357 388 324 q 325 458 325 390 l 325 779 q 274 900 325 853 q 78 946 221 947 q 169 900 125 935 q 211 782 211 864 l 211 515 q 250 369 211 414 q 369 311 288 326 q 249 253 288 299 q 211 108 211 208 l 211 -158 q 168 -276 211 -242 q 78 -325 122 -314 q 274 -276 221 -325 q 325 -156 325 -229 l 325 165 q 357 267 325 235 q 457 314 388 299 z "},"~":{"ha":694,"x_min":18,"x_max":679,"o":"m 679 367 l 622 404 q 597 369 611 386 q 567 338 582 353 q 493 307 536 307 q 358 350 454 307 q 204 393 264 393 q 90 350 138 393 q 18 261 44 307 l 74 224 q 129 290 97 261 q 203 321 160 321 q 338 278 243 321 q 492 235 432 235 q 606 278 558 235 q 679 367 651 319 z "},"‚":{"ha":463,"x_min":114,"x_max":351,"o":"m 351 0 q 313 121 351 82 q 215 160 274 160 q 144 136 176 160 q 114 71 114 114 q 181 -19 114 -14 l 194 -19 q 261 21 249 -19 q 289 53 269 53 q 310 -4 310 53 q 269 -111 310 -54 q 228 -161 250 -139 q 185 -199 207 -183 q 176 -210 176 -206 q 182 -219 176 -215 q 196 -224 189 -226 q 208 -219 201 -224 q 310 -119 268 -186 q 351 0 351 -53 z "},"ƒ":{"ha":694,"x_min":-39,"x_max":732,"o":"m 732 847 q 697 919 732 890 q 617 949 661 949 q 444 839 513 949 q 381 710 410 783 q 331 540 353 636 l 200 540 l 192 506 l 324 506 l 238 28 q 211 -100 225 -43 q 182 -201 197 -157 q 89 -290 151 -290 q 64 -285 74 -290 q 56 -268 56 -281 q 68 -242 56 -257 q 81 -207 81 -228 q 26 -142 81 -142 l 21 -142 q -39 -214 -39 -142 q -6 -290 -39 -256 q 76 -325 25 -325 q 267 -182 186 -325 q 340 1 307 -111 q 400 269 372 114 l 442 506 l 588 506 l 594 540 l 449 540 l 458 608 q 492 773 474 710 q 528 863 510 836 q 603 914 563 914 q 629 907 618 914 q 639 890 639 903 q 628 867 639 882 q 618 826 618 850 q 668 767 618 767 l 675 767 q 732 847 732 774 z "},"„":{"ha":694,"x_min":58,"x_max":639,"o":"m 639 0 q 600 121 639 82 q 503 160 561 160 q 432 136 464 160 q 401 71 401 114 q 468 -19 401 -14 l 482 -19 q 549 21 536 -19 q 576 53 557 53 q 597 -4 597 53 q 557 -111 597 -54 q 516 -161 538 -139 q 472 -199 494 -183 q 464 -210 464 -206 q 469 -219 464 -215 q 483 -224 476 -226 q 496 -219 489 -224 q 597 -119 556 -186 q 639 0 639 -53 m 296 0 q 257 121 296 82 q 160 160 218 160 q 89 136 121 160 q 58 71 58 114 q 125 -19 58 -14 l 139 -19 q 206 21 193 -19 q 233 53 214 53 q 254 -4 254 53 q 214 -111 254 -54 q 173 -161 194 -139 q 129 -199 151 -183 q 121 -210 121 -206 q 126 -219 121 -215 q 140 -224 133 -226 q 153 -219 146 -224 q 254 -119 213 -186 q 296 0 296 -53 z "},"…":{"ha":1389,"x_min":139,"x_max":1244,"o":"m 1244 68 q 1218 131 1244 104 q 1157 156 1193 156 q 1094 129 1121 156 q 1069 68 1069 104 q 1096 6 1069 32 q 1157 -19 1121 -19 q 1219 7 1193 -19 q 1244 68 1244 32 m 779 68 q 753 131 779 104 q 692 156 728 156 q 629 129 656 156 q 604 68 604 104 q 631 6 604 32 q 692 -19 656 -19 q 754 7 728 -19 q 779 68 779 32 m 314 68 q 288 131 314 104 q 226 156 263 156 q 164 129 190 156 q 139 68 139 104 q 165 6 139 32 q 226 -19 190 -19 q 289 7 263 -19 q 314 68 314 32 z "},"†":{"ha":694,"x_min":76,"x_max":617,"o":"m 617 629 q 556 693 617 690 q 476 668 539 693 q 363 643 415 643 q 389 800 363 729 q 414 885 414 871 q 347 949 410 949 q 281 885 285 949 q 307 799 281 869 q 332 643 332 728 q 217 668 281 643 q 138 693 154 693 q 76 629 76 690 q 138 568 76 568 q 218 593 153 568 q 332 618 281 618 q 324 483 332 547 q 274 364 315 421 q 307 230 294 297 q 325 92 319 163 q 333 -51 331 21 q 335 -197 335 -122 l 360 -197 q 362 -50 360 -122 q 369 93 364 22 q 421 364 381 236 q 372 485 381 421 q 366 550 368 517 q 363 618 364 583 q 478 593 415 618 q 556 568 538 568 q 617 629 617 568 z "},"‡":{"ha":694,"x_min":75,"x_max":617,"o":"m 617 111 q 556 175 617 172 q 476 150 539 175 q 361 125 414 125 q 369 226 361 181 q 413 319 378 274 q 369 467 378 390 q 361 618 361 539 q 476 593 414 618 q 556 568 539 568 q 617 629 617 568 q 556 693 617 690 q 476 668 539 693 q 361 643 414 643 q 386 804 361 746 q 411 885 411 860 q 346 949 411 949 q 281 885 282 949 q 306 803 281 861 q 331 643 331 746 q 215 668 279 643 q 136 693 153 693 q 75 629 75 690 q 136 568 75 568 q 217 593 151 568 q 331 618 279 618 q 322 465 331 538 q 308 392 319 429 q 279 319 297 356 q 324 225 315 271 q 328 178 326 203 q 331 125 331 153 q 215 150 279 125 q 136 175 153 175 q 75 111 75 172 q 136 50 75 50 q 217 75 151 50 q 331 100 279 100 q 306 -58 331 -7 q 282 -132 282 -112 q 346 -204 283 -204 q 410 -132 410 -204 q 385 -57 410 -110 q 361 100 361 -3 q 476 75 414 100 q 556 50 539 50 q 617 111 617 50 z "},"ˆ":{"ha":463,"x_min":11,"x_max":453,"o":"m 453 665 l 279 900 l 185 900 l 11 665 l 71 665 l 232 810 l 393 665 l 453 665 z "},"‰":{"ha":1389,"x_min":10,"x_max":1381,"o":"m 1381 319 q 1343 419 1381 378 q 1253 461 1306 461 q 1075 349 1168 461 q 983 122 983 236 q 1018 15 983 56 q 1108 -26 1053 -26 q 1300 76 1218 -26 q 1381 319 1381 181 m 1346 310 q 1275 108 1346 204 q 1135 13 1204 13 q 1094 31 1108 13 q 1081 79 1081 46 q 1154 303 1081 185 q 1271 419 1226 419 q 1328 390 1308 419 q 1346 310 1346 361 m 881 319 q 843 419 881 378 q 753 461 806 461 q 575 349 668 461 q 483 122 483 236 q 518 15 483 56 q 608 -26 553 -26 q 800 76 718 -26 q 881 319 881 181 m 846 310 q 775 108 846 204 q 635 13 704 13 q 594 31 608 13 q 581 79 581 46 q 654 303 581 185 q 771 419 726 419 q 828 390 808 419 q 846 310 846 361 m 789 981 l 726 981 q 508 846 617 846 l 497 846 q 426 854 453 846 q 389 874 400 863 q 378 888 383 882 q 369 900 374 894 q 278 942 332 942 q 101 829 194 942 q 10 604 10 717 q 44 497 10 538 q 135 456 79 456 q 325 558 243 456 q 407 800 407 661 q 406 824 407 817 q 461 813 426 817 q 482 810 472 811 q 501 810 492 810 q 664 874 596 810 l 124 -25 l 194 -25 l 789 981 m 372 790 q 300 590 372 685 q 161 494 229 494 q 121 513 135 494 q 107 561 107 528 q 179 783 107 667 q 279 896 250 896 q 367 838 310 863 q 372 790 372 822 z "},"Š":{"ha":772,"x_min":96,"x_max":675,"o":"m 607 1278 l 547 1278 l 388 1133 l 226 1278 l 167 1278 l 340 1043 l 435 1043 l 607 1278 m 675 290 q 613 489 675 418 q 389 599 551 557 q 232 651 286 625 q 179 754 179 675 q 231 867 179 819 q 353 914 282 914 q 515 846 451 914 q 592 672 579 775 l 636 672 l 636 935 l 610 935 l 557 881 q 464 932 514 915 q 356 949 414 949 q 174 875 247 949 q 103 688 103 801 q 161 510 103 578 q 350 408 219 443 q 531 336 458 379 q 599 207 599 294 q 538 69 599 126 q 389 14 478 14 q 221 89 285 14 q 136 268 157 164 l 96 268 l 96 -8 l 119 -8 l 186 50 q 278 -3 225 17 q 385 -21 324 -21 q 594 65 513 -21 q 675 290 675 150 z "},"‹":{"ha":463,"x_min":108,"x_max":353,"o":"m 353 71 q 350 83 353 75 q 286 188 326 133 q 248 238 267 215 q 211 278 229 260 q 288 368 247 314 q 350 472 326 424 q 353 486 353 483 q 350 492 353 489 q 343 494 347 494 q 336 492 342 494 q 282 438 308 464 q 229 388 256 411 q 176 340 203 364 q 118 290 149 315 q 108 278 108 281 q 118 265 108 271 q 176 215 149 239 q 231 167 204 190 q 283 117 257 143 q 336 64 308 92 q 344 61 342 61 l 350 63 q 353 71 353 65 z "},"Œ":{"ha":1389,"x_min":24,"x_max":1346,"o":"m 1346 299 l 1306 299 q 1231 100 1285 164 q 1044 35 1178 35 l 863 35 l 863 460 l 896 460 q 1036 404 1001 460 q 1069 276 1069 350 l 1108 276 l 1108 664 l 1069 664 q 1035 544 1069 596 q 896 494 1001 494 l 863 494 l 863 893 l 1018 893 q 1190 851 1132 893 q 1281 678 1249 811 l 1319 678 l 1310 928 l 460 928 q 151 794 281 928 q 24 474 24 660 q 147 133 24 269 q 460 0 268 0 l 1333 0 l 1346 299 m 686 217 q 636 78 686 121 q 494 35 588 35 q 290 121 353 35 q 229 388 229 207 l 229 554 q 294 810 229 724 q 501 893 357 893 q 642 846 599 893 q 686 682 686 797 l 686 217 z "},"‘":{"ha":463,"x_min":113,"x_max":354,"o":"m 354 656 q 286 744 354 739 l 269 746 q 203 706 217 750 q 174 674 192 674 q 154 731 154 674 q 194 838 154 781 q 235 888 214 865 q 279 925 257 910 q 288 936 288 931 q 282 946 288 942 q 268 950 275 953 q 256 946 261 950 q 154 846 196 913 q 113 726 113 779 q 151 606 113 644 q 249 567 190 567 q 322 590 288 567 q 354 656 354 614 z "},"’":{"ha":463,"x_min":114,"x_max":351,"o":"m 351 789 q 313 910 351 871 q 215 949 274 949 q 144 925 176 949 q 114 860 114 903 q 181 769 114 775 l 194 769 q 261 810 249 769 q 289 842 269 842 q 310 785 310 842 q 269 678 310 735 q 228 628 250 650 q 185 590 207 606 q 176 579 176 583 q 182 569 176 574 q 196 565 189 563 q 208 569 201 565 q 310 669 268 603 q 351 789 351 736 z "},"“":{"ha":694,"x_min":57,"x_max":646,"o":"m 646 656 q 578 744 646 739 l 561 746 q 494 706 508 750 q 465 674 483 674 q 446 731 446 674 q 486 838 446 781 q 527 888 506 865 q 571 925 549 910 q 579 936 579 931 q 574 946 579 942 q 560 950 567 953 q 547 946 553 950 q 446 846 488 913 q 404 726 404 779 q 443 606 404 644 q 540 567 482 567 q 614 590 579 567 q 646 656 646 614 m 299 656 q 231 744 299 739 l 214 746 q 147 706 161 750 q 118 674 136 674 q 99 731 99 674 q 139 838 99 781 q 180 888 158 865 q 224 925 201 910 q 232 936 232 931 q 226 946 232 942 q 213 950 219 953 q 200 946 206 950 q 99 846 140 913 q 57 726 57 779 q 96 606 57 644 q 193 567 135 567 q 267 590 232 567 q 299 656 299 614 z "},"”":{"ha":694,"x_min":61,"x_max":646,"o":"m 646 789 q 607 910 646 871 q 510 949 568 949 q 439 925 471 949 q 408 860 408 903 q 475 769 408 775 l 489 769 q 556 810 543 769 q 583 842 564 842 q 604 785 604 842 q 564 678 604 735 q 523 628 544 650 q 479 590 501 606 q 471 579 471 583 q 476 569 471 574 q 490 565 483 563 q 503 569 496 565 q 604 669 563 603 q 646 789 646 736 m 299 789 q 260 910 299 871 q 163 949 221 949 q 92 925 124 949 q 61 860 61 903 q 128 769 61 775 l 142 769 q 208 810 196 769 q 236 842 217 842 q 257 785 257 842 q 217 678 257 735 q 176 628 197 650 q 132 590 154 606 q 124 579 124 583 q 129 569 124 574 q 143 565 136 563 q 156 569 149 565 q 257 669 215 603 q 299 789 299 736 z "},"•":{"ha":435,"x_min":71,"x_max":378,"o":"m 378 463 q 333 572 378 525 q 224 617 286 617 q 115 572 163 617 q 71 463 71 525 q 115 353 71 400 q 225 308 163 308 q 333 353 286 308 q 378 463 378 400 z "},"–":{"ha":694,"x_min":0,"x_max":694,"o":"m 694 243 l 694 317 l 0 317 l 0 243 l 694 243 z "},"—":{"ha":1389,"x_min":0,"x_max":1389,"o":"m 1389 243 l 1389 317 l 0 317 l 0 243 l 1389 243 z "},"˜":{"ha":463,"x_min":-8,"x_max":471,"o":"m 471 844 l 424 844 q 392 793 413 808 q 349 776 371 776 q 254 810 314 776 q 146 842 193 842 q 50 801 90 842 q -8 688 10 761 l 39 688 q 69 739 47 722 q 114 756 92 756 q 208 722 147 756 q 317 690 269 690 q 413 731 372 690 q 471 844 453 771 z "},"™":{"ha":1194,"x_min":44,"x_max":1151,"o":"m 1151 464 l 1151 482 l 1076 482 l 1076 910 l 1151 910 l 1151 928 l 961 928 l 853 610 l 747 928 l 554 928 l 554 910 l 628 910 l 628 482 l 554 482 l 554 464 l 725 464 l 725 482 l 651 482 l 651 904 l 803 464 l 829 464 l 985 904 l 985 482 l 906 482 l 906 464 l 1151 464 m 490 779 l 490 928 l 44 928 l 44 779 l 69 779 q 104 874 74 839 q 185 910 136 910 l 222 910 l 222 482 l 140 482 l 140 464 l 396 464 l 396 482 l 314 482 l 314 910 l 350 910 q 432 874 400 910 q 465 779 461 839 l 490 779 z "},"š":{"ha":540,"x_min":47,"x_max":488,"o":"m 488 900 l 428 900 l 268 756 l 107 900 l 47 900 l 181 719 q 126 676 149 704 q 76 517 76 618 q 133 358 76 407 q 193 319 161 335 q 261 294 225 303 q 378 249 344 275 q 411 153 411 221 q 372 49 411 89 q 283 7 335 7 q 167 61 214 7 q 108 199 121 115 l 71 199 l 71 -4 l 93 -4 l 133 38 q 203 -7 165 10 q 278 -22 242 -22 q 421 39 371 -22 q 469 213 469 100 q 433 368 469 315 q 380 412 415 394 q 292 442 344 429 q 169 493 203 464 q 140 568 140 518 q 171 667 140 626 q 200 694 181 682 l 221 665 l 315 665 l 329 685 q 342 674 336 679 q 354 661 347 668 q 399 564 394 614 l 435 564 l 435 728 l 411 728 l 389 692 q 351 715 372 706 l 488 900 z "},"›":{"ha":463,"x_min":108,"x_max":356,"o":"m 356 278 q 346 290 356 281 q 232 388 283 340 q 180 438 206 411 q 126 492 154 464 q 118 494 121 494 q 111 492 114 494 q 108 483 108 489 q 111 472 108 481 q 175 368 135 422 q 215 318 196 340 q 253 278 235 296 q 215 238 235 260 q 175 188 196 215 q 111 83 135 133 q 108 69 108 72 q 111 63 108 65 l 118 61 q 126 64 121 61 q 181 117 154 92 q 233 167 207 143 q 287 215 260 190 q 346 265 314 240 q 356 278 356 275 z "},"œ":{"ha":1003,"x_min":36,"x_max":969,"o":"m 969 263 l 935 263 q 864 93 918 178 q 724 7 811 7 q 624 74 653 7 q 594 263 594 140 l 594 396 l 932 396 q 957 406 949 396 q 965 432 965 415 q 893 647 965 558 q 724 736 822 736 q 604 713 658 736 q 519 654 553 692 q 435 714 489 689 q 319 736 379 736 q 121 622 206 736 q 36 357 36 508 q 122 92 36 207 q 319 -21 206 -21 q 442 1 396 -21 q 521 57 490 22 q 556 25 536 39 q 599 0 575 11 q 710 -21 646 -21 q 872 49 800 -21 q 969 263 942 118 m 811 526 q 807 467 811 493 q 794 431 803 442 l 594 431 l 594 456 q 617 644 594 582 q 704 708 639 708 q 783 660 756 708 q 811 526 811 611 m 453 267 q 426 72 453 138 q 328 7 399 7 q 229 74 256 7 q 203 267 203 136 l 203 449 q 229 643 203 578 q 328 708 257 708 q 426 642 399 708 q 453 449 453 579 l 453 267 z "},"Ÿ":{"ha":926,"x_min":1,"x_max":926,"o":"m 731 1122 q 708 1174 731 1151 q 657 1194 688 1194 q 604 1172 626 1194 q 583 1122 583 1151 q 606 1071 583 1093 q 657 1050 626 1050 q 710 1072 688 1050 q 731 1122 731 1093 m 449 1122 q 426 1174 449 1151 q 375 1194 406 1194 q 322 1172 344 1194 q 301 1122 301 1151 q 324 1071 301 1093 q 375 1050 344 1050 q 428 1072 406 1050 q 449 1122 449 1093 m 926 893 l 926 928 l 626 928 l 626 893 l 771 893 l 547 494 l 311 893 l 453 893 l 453 928 l 1 928 l 1 893 l 103 893 l 394 421 l 394 35 l 247 35 l 247 0 l 725 0 l 725 35 l 571 35 l 571 451 l 813 893 l 926 893 z "},"¡":{"ha":463,"x_min":138,"x_max":321,"o":"m 317 551 q 290 614 317 588 q 229 639 265 639 q 167 613 193 639 q 142 551 142 588 q 168 489 142 515 q 229 464 193 464 q 292 490 265 464 q 317 551 317 515 m 321 -242 q 286 -53 321 -217 q 247 322 251 108 l 211 322 q 199 123 208 217 q 172 -54 190 29 q 138 -242 138 -215 q 165 -307 138 -283 q 229 -329 192 -329 q 294 -307 268 -329 q 321 -242 321 -285 z "},"¢":{"ha":694,"x_min":89,"x_max":596,"o":"m 596 249 l 561 247 q 504 92 553 174 q 378 10 456 10 q 311 29 331 10 l 461 519 q 504 510 465 510 q 582 585 575 510 q 518 693 582 656 q 515 694 517 694 l 575 893 l 522 893 l 468 715 q 376 731 426 731 q 171 622 251 731 q 89 356 89 515 q 165 90 89 200 q 253 8 201 39 l 189 -201 l 242 -201 l 300 -11 q 353 -18 324 -18 q 508 47 443 -18 q 596 249 572 111 m 457 679 l 426 579 l 275 82 q 251 261 251 144 l 251 449 q 281 635 251 565 q 367 703 307 703 q 435 690 401 703 q 457 679 456 682 z "},"£":{"ha":694,"x_min":22,"x_max":656,"o":"m 656 244 l 624 249 q 579 146 624 182 q 463 111 536 111 q 426 113 444 111 q 388 118 408 115 q 350 125 368 121 q 317 136 332 129 q 350 247 339 192 q 358 299 356 274 q 360 349 360 325 q 356 406 360 378 q 347 449 354 432 l 511 449 l 511 486 l 343 486 q 334 535 339 510 q 322 589 329 561 q 310 699 310 644 q 349 825 310 786 q 453 865 389 865 q 543 842 500 865 q 585 782 585 818 q 561 763 585 763 q 542 765 556 763 l 529 767 q 481 715 497 767 q 479 697 479 708 q 551 622 479 622 l 557 622 q 643 726 643 625 q 582 851 643 807 q 443 896 521 896 q 239 813 311 896 q 165 608 165 728 q 166 571 165 586 q 168 544 167 556 q 172 520 169 535 q 178 486 175 506 l 32 486 l 32 449 l 185 449 q 219 296 185 388 q 246 181 246 224 q 245 166 246 174 q 243 151 244 158 q 196 168 222 163 q 170 172 182 171 q 147 174 158 174 q 54 146 89 174 q 22 76 22 118 q 49 1 22 29 q 126 -28 74 -28 q 201 -8 158 -28 q 279 61 243 11 q 321 31 299 46 q 367 1 343 17 q 485 -28 414 -28 q 610 40 568 -28 q 656 244 651 108 m 236 94 q 186 31 218 56 q 126 6 154 6 q 75 22 96 6 q 56 63 56 39 q 81 117 56 100 q 138 132 107 132 q 182 124 154 132 q 236 94 208 117 z "},"€":{"ha":926,"x_min":1,"x_max":826,"o":"m 826 -8 l 826 275 l 786 275 q 674 68 746 122 q 518 14 600 14 q 336 97 396 14 q 276 338 276 179 l 276 346 l 703 346 l 714 421 l 276 421 l 276 529 l 729 529 l 742 604 l 276 604 q 335 831 278 749 q 510 914 390 914 q 668 863 592 914 q 774 667 744 813 l 814 667 l 814 935 l 782 935 l 728 876 q 638 928 693 906 q 515 949 585 949 q 201 804 332 949 q 90 604 122 717 l 40 604 l 28 529 l 76 529 q 72 460 72 496 q 72 440 72 450 q 74 421 72 431 l 13 421 l 1 346 l 85 346 q 203 124 113 222 q 503 -21 332 -21 q 631 -1 568 -21 q 739 57 689 17 l 796 -8 l 826 -8 z "},"¥":{"ha":694,"x_min":4,"x_max":690,"o":"m 690 861 l 690 896 l 479 896 l 479 861 l 572 861 l 410 478 l 238 861 l 339 861 l 339 896 l 4 896 l 4 861 l 72 861 l 292 406 l 292 363 l 106 363 l 106 328 l 292 328 l 292 249 l 106 249 l 106 214 l 292 214 l 292 35 l 174 35 l 174 0 l 560 0 l 560 35 l 435 35 l 435 214 l 621 214 l 621 249 l 435 249 l 435 328 l 621 328 l 621 363 l 435 363 l 435 436 l 615 861 l 690 861 z "},"¦":{"ha":778,"x_min":350,"x_max":426,"o":"m 426 450 l 426 1042 l 350 1042 l 350 450 l 426 450 m 426 -347 l 426 244 l 350 244 l 350 -347 l 426 -347 z "},"§":{"ha":694,"x_min":101,"x_max":594,"o":"m 594 340 q 533 500 594 431 q 401 624 475 567 q 276 728 319 686 q 233 821 233 769 q 272 897 233 875 q 354 921 311 921 q 410 907 383 921 q 438 879 438 894 q 415 850 438 868 q 393 799 393 832 q 453 740 393 740 l 458 740 q 508 759 492 740 q 525 811 525 778 q 475 913 525 875 q 349 949 426 949 q 211 903 269 949 q 154 779 154 857 q 188 674 154 724 q 289 571 222 621 q 275 573 282 572 q 261 574 268 574 q 161 539 211 574 q 101 415 101 496 q 163 256 101 325 q 294 132 221 189 q 419 28 375 69 q 463 -65 463 -14 q 421 -142 463 -119 q 331 -165 378 -165 q 265 -151 294 -165 q 235 -124 235 -139 q 257 -94 235 -112 q 279 -43 279 -76 q 221 14 279 14 l 213 14 q 147 -56 147 14 q 201 -157 147 -118 q 333 -193 254 -193 q 481 -147 418 -193 q 542 -24 542 -101 q 507 82 542 33 q 407 185 472 133 q 421 183 414 183 q 435 182 428 182 q 535 215 486 182 q 594 340 594 258 m 522 307 q 494 242 522 269 q 431 214 467 214 q 349 243 399 214 q 272 301 303 271 q 232 337 249 318 q 201 374 215 356 q 174 450 174 410 q 201 515 174 489 q 265 543 226 543 q 346 514 297 543 q 389 484 369 499 q 424 456 408 469 q 461 419 443 436 q 494 383 479 401 q 522 307 522 347 z "},"¨":{"ha":463,"x_min":15,"x_max":444,"o":"m 444 744 q 422 796 444 774 q 371 817 401 817 q 318 794 340 817 q 297 744 297 774 q 319 693 297 715 q 371 672 340 672 q 424 694 401 672 q 444 744 444 715 m 163 744 q 140 796 163 774 q 89 817 119 817 q 36 794 58 817 q 15 744 15 774 q 38 693 15 715 q 89 672 58 672 q 142 694 119 672 q 163 744 163 715 z "},"©":{"ha":1056,"x_min":49,"x_max":1008,"o":"m 1008 464 q 867 804 1008 663 q 528 944 726 944 q 189 803 331 944 q 49 464 49 663 q 190 124 49 265 q 529 -17 331 -17 q 868 125 726 -17 q 1008 464 1008 265 m 960 464 q 833 160 960 286 q 528 33 707 33 q 224 160 350 33 q 97 464 97 286 q 224 768 97 642 q 529 894 350 894 q 833 768 707 894 q 960 464 960 642 m 735 263 l 735 365 l 710 365 q 647 253 694 299 q 525 207 601 207 q 410 279 440 207 q 379 475 379 353 q 406 675 379 608 q 511 744 431 744 q 647 701 604 744 q 701 596 692 657 l 726 596 l 726 706 q 635 743 686 718 q 532 767 581 767 q 328 678 411 767 q 244 476 244 590 q 331 269 244 356 q 532 186 415 186 q 646 213 588 186 q 735 263 704 239 z "},"ª":{"ha":417,"x_min":17,"x_max":397,"o":"m 397 651 l 388 664 q 381 658 385 661 q 372 651 378 656 q 356 644 361 644 q 339 650 344 644 q 333 661 333 654 l 333 954 q 292 1028 333 999 q 188 1056 251 1056 q 82 1031 121 1056 q 42 969 40 1004 q 86 933 44 933 q 132 968 128 933 q 124 999 132 986 q 117 1014 117 1013 q 138 1031 117 1022 q 181 1039 156 1039 q 222 1024 203 1039 q 242 988 242 1011 l 242 854 l 153 850 q 54 804 92 839 q 17 713 17 768 q 42 638 17 668 q 108 608 64 608 q 178 622 144 608 q 242 665 211 638 q 263 625 244 642 q 313 608 279 608 q 361 621 342 608 q 397 651 378 632 m 242 765 q 221 683 242 718 q 168 649 203 649 q 124 675 138 649 q 111 738 111 700 q 128 801 111 778 q 175 832 144 824 l 194 833 q 214 831 206 833 q 242 817 229 825 l 242 765 z "},"«":{"ha":694,"x_min":114,"x_max":579,"o":"m 579 71 q 576 83 579 75 q 513 188 553 133 q 474 238 493 215 q 438 278 456 260 q 514 368 474 314 q 576 472 553 424 q 579 486 579 483 q 576 492 579 489 q 569 494 574 494 q 563 492 568 494 q 508 438 535 464 q 456 388 482 411 q 402 340 429 364 q 344 290 375 315 q 335 278 335 281 q 344 265 335 271 q 403 215 375 239 q 457 167 431 190 q 509 117 483 143 q 563 64 535 92 q 571 61 568 61 l 576 63 q 579 71 579 65 m 358 71 q 356 83 358 75 q 292 188 332 133 q 253 238 272 215 q 217 278 235 260 q 293 368 253 314 q 356 472 332 424 q 358 486 358 483 q 356 492 358 489 q 349 494 353 494 q 342 492 347 494 q 288 438 314 464 q 235 388 261 411 q 181 340 208 364 q 124 290 154 315 q 114 278 114 281 q 124 265 114 271 q 182 215 154 239 q 236 167 210 190 q 288 117 263 143 q 342 64 314 92 q 350 61 347 61 l 356 63 q 358 71 358 65 z "},"¬":{"ha":694,"x_min":40,"x_max":656,"o":"m 656 64 l 656 438 l 40 438 l 40 363 l 581 363 l 581 64 l 656 64 z "},"®":{"ha":1056,"x_min":49,"x_max":1008,"o":"m 1008 464 q 867 804 1008 663 q 528 944 726 944 q 189 803 331 944 q 49 464 49 663 q 190 124 49 265 q 529 -17 331 -17 q 868 125 726 -17 q 1008 464 1008 265 m 960 464 q 833 160 960 286 q 528 33 707 33 q 224 160 350 33 q 97 464 97 286 q 224 768 97 642 q 529 894 350 894 q 833 768 707 894 q 960 464 960 642 m 832 213 l 832 231 q 778 243 792 232 q 761 285 764 251 q 726 406 754 347 q 581 488 697 467 q 728 533 683 501 q 771 618 771 564 q 728 701 771 668 q 583 735 686 735 l 251 735 l 251 715 l 342 715 l 342 232 l 251 232 l 251 213 l 546 213 l 546 232 l 457 232 l 457 482 l 485 482 q 618 419 594 482 q 664 213 640 357 l 832 213 m 646 613 q 621 533 646 563 q 526 506 596 506 l 457 506 l 457 713 l 565 713 q 625 690 603 713 q 646 613 646 669 z "},"¯":{"ha":463,"x_min":11,"x_max":450,"o":"m 450 672 l 450 754 l 11 754 l 11 672 l 450 672 z "},"°":{"ha":556,"x_min":69,"x_max":486,"o":"m 486 688 q 425 835 486 774 q 278 896 364 896 q 131 835 192 896 q 69 688 69 774 q 131 540 69 601 q 278 479 192 479 q 425 540 364 479 q 486 688 486 601 m 431 688 q 386 579 431 624 q 278 535 342 535 q 169 579 214 535 q 125 688 125 624 q 169 796 125 751 q 278 840 214 840 q 386 796 342 840 q 431 688 431 751 z "},"±":{"ha":694,"x_min":40,"x_max":660,"o":"m 660 333 l 660 408 l 388 408 l 388 617 l 313 617 l 313 408 l 40 408 l 40 333 l 313 333 l 313 125 l 388 125 l 388 333 l 660 333 m 660 0 l 660 75 l 40 75 l 40 0 l 660 0 z "},"²":{"ha":417,"x_min":26,"x_max":390,"o":"m 390 760 q 342 857 390 817 q 218 896 294 896 q 96 857 144 896 q 46 761 46 817 q 60 714 46 736 q 107 690 75 690 q 163 733 158 690 l 163 742 q 117 781 163 776 q 90 776 107 781 l 85 775 q 74 788 75 775 q 106 843 74 819 q 179 867 138 867 q 254 832 224 867 q 285 744 285 797 q 254 629 285 672 q 221 585 239 607 q 179 544 203 564 l 26 413 l 26 358 l 383 358 l 389 513 l 368 513 q 358 450 368 465 q 322 435 347 435 l 88 435 l 289 599 q 324 628 307 613 q 357 664 340 644 q 390 760 390 699 z "},"³":{"ha":417,"x_min":26,"x_max":393,"o":"m 393 496 q 347 594 393 557 q 201 640 301 632 q 329 696 293 661 q 365 776 365 732 q 317 863 365 826 q 194 896 268 896 q 97 869 136 896 q 57 806 57 842 q 106 757 57 757 q 151 794 147 757 l 151 800 q 133 829 151 815 q 114 849 114 840 q 136 868 114 858 q 181 878 160 878 q 246 853 225 878 q 265 782 265 826 q 236 686 265 721 q 202 660 221 668 q 160 651 183 653 l 111 650 q 92 636 96 650 q 110 628 92 628 l 138 628 q 250 594 214 628 q 286 490 286 561 q 256 399 286 433 q 172 365 224 365 q 114 375 138 365 q 90 399 90 386 q 111 418 90 403 q 132 454 129 431 q 86 497 131 497 l 81 497 q 28 440 31 497 q 72 372 26 403 q 178 344 117 344 q 331 389 267 344 q 393 496 393 432 z "},"´":{"ha":463,"x_min":75,"x_max":392,"o":"m 392 878 q 375 908 392 892 q 336 926 354 926 q 290 904 313 926 q 235 851 263 878 q 181 796 208 824 q 128 740 154 768 q 75 685 101 713 l 144 685 l 360 832 q 392 878 392 854 z "},"µ":{"ha":772,"x_min":32,"x_max":740,"o":"m 740 0 l 740 35 l 644 35 l 644 733 l 390 728 l 390 693 l 494 693 l 494 306 q 446 106 494 190 q 332 24 397 24 q 286 60 301 24 q 272 158 272 93 l 272 733 l 32 728 l 32 693 l 122 693 l 122 200 q 140 75 122 125 q 157 -12 157 25 q 138 -125 157 -51 q 121 -250 121 -194 q 194 -306 121 -306 q 268 -250 268 -306 q 247 -153 268 -222 q 231 -114 242 -136 q 210 -69 221 -92 q 192 -28 200 -47 q 183 0 183 -10 q 192 4 183 7 q 211 -4 200 1 q 233 -15 222 -10 q 251 -21 244 -21 l 331 -21 q 421 11 376 -21 q 496 114 463 40 l 496 -11 q 539 -5 519 -7 q 572 -1 558 -3 q 628 0 586 0 q 740 0 669 0 z "},"¶":{"ha":861,"x_min":103,"x_max":758,"o":"m 758 890 l 758 947 l 457 947 q 204 863 306 947 q 103 653 103 778 q 189 450 103 532 q 397 351 272 371 l 397 -196 l 471 -196 l 471 890 l 610 890 l 610 -196 l 683 -196 l 683 890 l 758 890 z "},"·":{"ha":463,"x_min":139,"x_max":314,"o":"m 314 308 q 288 371 314 344 q 226 396 263 396 q 164 369 190 396 q 139 308 139 344 q 165 246 139 272 q 226 221 190 221 q 289 247 263 221 q 314 308 314 272 z "},"∙":{"ha":463,"x_min":139,"x_max":314,"o":"m 314 308 q 288 371 314 344 q 226 396 263 396 q 164 369 190 396 q 139 308 139 344 q 165 246 139 272 q 226 221 190 221 q 289 247 263 221 q 314 308 314 272 z "},"¸":{"ha":463,"x_min":88,"x_max":379,"o":"m 379 -185 q 347 -110 379 -139 q 265 -82 315 -82 q 253 -82 258 -82 q 240 -83 247 -82 q 230 -86 235 -85 q 219 -90 225 -87 l 257 0 l 206 0 l 146 -137 l 168 -143 l 210 -136 q 253 -154 235 -136 q 269 -194 269 -171 q 246 -232 269 -217 q 188 -247 222 -247 q 135 -240 156 -247 q 104 -228 118 -235 l 88 -272 q 133 -292 108 -286 q 201 -299 164 -299 q 332 -269 283 -299 q 379 -185 379 -240 z "},"¹":{"ha":417,"x_min":51,"x_max":367,"o":"m 367 358 l 367 379 l 261 379 l 261 896 q 216 893 238 894 q 172 889 194 892 q 122 887 151 888 q 51 886 92 886 l 51 865 l 129 865 q 157 858 150 865 q 164 829 164 854 l 164 379 l 57 379 l 57 358 l 367 358 z "},"º":{"ha":417,"x_min":19,"x_max":400,"o":"m 400 832 q 342 989 400 922 q 210 1056 285 1056 q 76 989 135 1056 q 19 832 19 921 q 78 675 19 742 q 210 608 133 608 q 343 675 285 608 q 400 832 400 743 m 292 778 q 274 664 292 701 q 210 625 257 625 q 144 664 163 625 q 128 778 128 703 l 128 886 q 146 1000 128 963 q 210 1039 163 1039 q 275 1000 257 1039 q 292 886 292 960 l 292 778 z "},"»":{"ha":694,"x_min":114,"x_max":582,"o":"m 582 278 q 572 290 582 281 q 458 388 510 340 q 406 438 432 411 q 353 492 381 464 q 344 494 347 494 q 338 492 340 494 q 335 483 335 489 q 338 472 335 481 q 401 368 361 422 q 442 318 422 340 q 479 278 461 296 q 442 238 461 260 q 401 188 422 215 q 338 83 361 133 q 335 69 335 72 q 338 63 335 65 l 344 61 q 353 64 347 61 q 407 117 381 92 q 460 167 433 143 q 513 215 486 190 q 572 265 540 240 q 582 278 582 275 m 361 278 q 351 290 361 281 q 238 388 289 340 q 185 438 211 411 q 132 492 160 464 q 124 494 126 494 q 117 492 119 494 q 114 483 114 489 q 117 472 114 481 q 181 368 140 422 q 221 318 201 340 q 258 278 240 296 q 221 238 240 260 q 181 188 201 215 q 117 83 140 133 q 114 69 114 72 q 117 63 114 65 l 124 61 q 132 64 126 61 q 186 117 160 92 q 239 167 213 143 q 292 215 265 190 q 351 265 319 240 q 361 278 361 275 z "},"¼":{"ha":1042,"x_min":14,"x_max":1026,"o":"m 1026 79 l 1026 226 l 1003 226 l 1003 165 l 938 165 l 938 538 l 872 538 l 610 165 l 610 142 l 840 142 l 840 21 l 771 21 l 771 0 l 1006 0 l 1006 21 l 938 21 l 938 142 l 1003 142 l 1003 79 l 1026 79 m 840 165 l 642 165 l 840 447 l 840 165 m 921 896 l 849 896 l 225 0 l 297 0 l 921 896 m 329 358 l 329 379 l 224 379 l 224 896 q 178 893 200 894 q 135 889 157 892 q 84 887 114 888 q 14 886 54 886 l 14 865 l 92 865 q 119 858 113 865 q 126 829 126 854 l 126 379 l 19 379 l 19 358 l 329 358 z "},"½":{"ha":1042,"x_min":15,"x_max":1026,"o":"m 1026 401 q 978 499 1026 458 q 854 538 931 538 q 732 499 781 538 q 682 403 682 458 q 696 356 682 378 q 743 332 711 332 q 799 375 794 332 l 799 383 q 753 422 799 418 q 726 418 743 422 l 721 417 q 710 429 711 417 q 742 485 710 461 q 815 508 774 508 q 890 474 860 508 q 921 386 921 439 q 890 271 921 314 q 857 227 875 249 q 815 186 839 206 l 663 54 l 663 0 l 1019 0 l 1025 154 l 1004 154 q 994 92 1004 107 q 958 76 983 76 l 724 76 l 925 240 q 960 270 943 254 q 993 306 976 286 q 1026 401 1026 340 m 886 896 l 814 896 l 190 0 l 263 0 l 886 896 m 331 358 l 331 379 l 225 379 l 225 896 q 180 893 201 894 q 136 889 158 892 q 85 887 115 888 q 15 886 56 886 l 15 865 l 93 865 q 121 858 114 865 q 128 829 128 854 l 128 379 l 21 379 l 21 358 l 331 358 z "},"¾":{"ha":1042,"x_min":13,"x_max":1028,"o":"m 1028 79 l 1028 226 l 1004 226 l 1004 165 l 939 165 l 939 538 l 874 538 l 611 165 l 611 142 l 842 142 l 842 21 l 772 21 l 772 0 l 1007 0 l 1007 21 l 939 21 l 939 142 l 1004 142 l 1004 79 l 1028 79 m 842 165 l 643 165 l 842 447 l 842 165 m 911 896 l 839 896 l 215 0 l 288 0 l 911 896 m 379 496 q 333 594 379 557 q 188 640 288 632 q 315 696 279 661 q 351 776 351 732 q 303 863 351 826 q 181 896 254 896 q 83 869 122 896 q 43 806 43 842 q 92 757 43 757 q 138 794 133 757 l 138 800 q 119 829 138 815 q 100 849 100 840 q 122 868 100 858 q 167 878 146 878 q 232 853 211 878 q 251 782 251 826 q 222 686 251 721 q 188 660 207 668 q 146 651 169 653 l 97 650 q 78 636 82 650 q 96 628 78 628 l 124 628 q 236 594 200 628 q 272 490 272 561 q 242 399 272 433 q 158 365 210 365 q 100 375 124 365 q 76 399 76 386 q 97 418 76 403 q 118 454 115 431 q 72 497 117 497 l 67 497 q 14 440 17 497 q 58 372 13 403 q 164 344 103 344 q 317 389 253 344 q 379 496 379 432 z "},"¿":{"ha":617,"x_min":82,"x_max":538,"o":"m 461 553 q 435 615 461 589 q 372 640 407 640 q 311 614 338 640 q 286 553 286 589 q 313 490 286 517 q 374 465 338 465 q 435 492 408 465 q 461 553 461 517 m 538 -160 l 538 -154 q 467 -79 538 -79 l 461 -79 q 394 -144 394 -79 q 431 -201 394 -186 q 467 -228 467 -217 q 418 -274 467 -249 q 321 -297 368 -297 q 211 -260 254 -297 q 168 -172 168 -222 q 228 -61 168 -108 q 324 24 289 -14 q 386 114 371 75 q 403 197 403 151 l 388 328 l 351 328 l 351 290 q 325 213 351 239 q 229 140 303 190 q 133 49 185 111 q 82 -100 82 -11 q 146 -257 82 -185 q 318 -328 208 -328 q 479 -274 418 -328 q 538 -160 538 -219 z "},"À":{"ha":926,"x_min":4,"x_max":922,"o":"m 618 1063 q 564 1118 590 1090 q 510 1174 538 1146 q 457 1228 483 1201 q 403 1282 431 1256 q 357 1304 381 1304 q 317 1286 335 1304 q 300 1256 300 1271 q 333 1210 300 1232 l 549 1063 l 618 1063 m 922 0 l 922 35 l 813 35 l 496 949 l 447 949 l 115 35 l 4 35 l 4 0 l 299 0 l 299 35 l 157 35 l 243 281 l 544 281 l 626 35 l 483 35 l 483 0 l 922 0 m 528 315 l 258 315 l 399 703 l 528 315 z "},"Á":{"ha":926,"x_min":4,"x_max":922,"o":"m 660 1256 q 643 1286 660 1269 q 604 1304 622 1304 q 558 1282 581 1304 q 503 1228 531 1256 q 449 1174 476 1201 q 396 1118 422 1146 q 343 1063 369 1090 l 413 1063 l 628 1210 q 660 1256 660 1232 m 922 0 l 922 35 l 813 35 l 496 949 l 447 949 l 115 35 l 4 35 l 4 0 l 299 0 l 299 35 l 157 35 l 243 281 l 544 281 l 626 35 l 483 35 l 483 0 l 922 0 m 528 315 l 258 315 l 399 703 l 528 315 z "},"Â":{"ha":926,"x_min":4,"x_max":922,"o":"m 681 1043 l 507 1278 l 413 1278 l 239 1043 l 299 1043 l 460 1188 l 621 1043 l 681 1043 m 922 0 l 922 35 l 813 35 l 496 949 l 447 949 l 115 35 l 4 35 l 4 0 l 299 0 l 299 35 l 157 35 l 243 281 l 544 281 l 626 35 l 483 35 l 483 0 l 922 0 m 528 315 l 258 315 l 399 703 l 528 315 z "},"Ã":{"ha":926,"x_min":4,"x_max":922,"o":"m 699 1222 l 651 1222 q 619 1171 640 1186 q 576 1154 599 1154 q 482 1188 542 1154 q 374 1219 421 1219 q 278 1179 318 1219 q 219 1065 238 1139 l 267 1065 q 297 1117 275 1100 q 342 1133 319 1133 q 436 1100 375 1133 q 544 1068 497 1068 q 640 1108 600 1068 q 699 1222 681 1149 m 922 0 l 922 35 l 813 35 l 496 949 l 447 949 l 115 35 l 4 35 l 4 0 l 299 0 l 299 35 l 157 35 l 243 281 l 544 281 l 626 35 l 483 35 l 483 0 l 922 0 m 528 315 l 258 315 l 399 703 l 528 315 z "},"Ä":{"ha":926,"x_min":4,"x_max":922,"o":"m 672 1122 q 650 1174 672 1151 q 599 1194 629 1194 q 546 1172 568 1194 q 525 1122 525 1151 q 547 1071 525 1093 q 599 1050 568 1050 q 651 1072 629 1050 q 672 1122 672 1093 m 390 1122 q 368 1174 390 1151 q 317 1194 347 1194 q 264 1172 286 1194 q 243 1122 243 1151 q 265 1071 243 1093 q 317 1050 286 1050 q 369 1072 347 1050 q 390 1122 390 1093 m 922 0 l 922 35 l 813 35 l 496 949 l 447 949 l 115 35 l 4 35 l 4 0 l 299 0 l 299 35 l 157 35 l 243 281 l 544 281 l 626 35 l 483 35 l 483 0 l 922 0 m 528 315 l 258 315 l 399 703 l 528 315 z "},"Å":{"ha":926,"x_min":4,"x_max":922,"o":"m 601 1138 q 560 1238 601 1196 q 460 1279 518 1279 q 360 1238 401 1279 q 318 1138 318 1196 q 360 1038 318 1079 q 460 996 401 996 q 560 1038 518 996 q 601 1138 601 1079 m 544 1138 q 519 1076 544 1101 q 460 1053 496 1053 q 400 1078 425 1053 q 375 1138 375 1100 q 400 1197 375 1172 q 460 1222 425 1222 q 521 1197 496 1222 q 544 1138 544 1171 m 922 0 l 922 35 l 813 35 l 496 949 l 447 949 l 115 35 l 4 35 l 4 0 l 299 0 l 299 35 l 157 35 l 243 281 l 544 281 l 626 35 l 483 35 l 483 0 l 922 0 m 528 315 l 258 315 l 399 703 l 528 315 z "},"Æ":{"ha":1389,"x_min":28,"x_max":1293,"o":"m 1293 299 l 1253 299 q 1178 100 1232 164 q 992 35 1125 35 l 810 35 l 810 460 l 843 460 q 983 404 949 460 q 1017 276 1017 350 l 1056 276 l 1056 664 l 1017 664 q 982 544 1017 596 q 843 494 949 494 l 810 494 l 810 893 l 965 893 q 1138 851 1079 893 q 1228 678 1196 811 l 1267 678 l 1257 928 l 360 928 l 360 893 q 499 849 494 893 l 500 833 q 476 747 500 797 l 115 35 l 28 35 l 28 0 l 300 0 l 300 35 l 157 35 l 313 340 l 633 340 l 633 35 l 496 35 l 496 0 l 1281 0 l 1293 299 m 633 379 l 333 379 l 606 893 l 633 893 l 633 379 z "},"Ç":{"ha":926,"x_min":72,"x_max":826,"o":"m 826 -8 l 826 275 l 786 275 q 674 68 746 122 q 518 14 600 14 q 336 97 396 14 q 276 338 276 179 l 276 590 q 335 831 276 744 q 510 914 390 914 q 668 863 592 914 q 774 667 744 813 l 814 667 l 814 935 l 782 935 l 728 876 q 638 928 693 906 q 515 949 585 949 q 201 804 333 949 q 72 460 72 660 q 203 124 72 267 q 431 -14 303 11 l 376 -137 l 399 -143 l 440 -136 q 483 -154 465 -136 q 500 -194 500 -171 q 476 -232 500 -217 q 418 -247 453 -247 q 365 -240 386 -247 q 335 -228 349 -235 l 318 -272 q 364 -292 339 -286 q 432 -299 394 -299 q 563 -269 514 -299 q 610 -185 610 -240 q 578 -110 610 -139 q 496 -82 546 -82 q 483 -82 489 -82 q 471 -83 478 -82 q 460 -86 465 -85 q 450 -90 456 -87 l 479 -19 q 490 -21 486 -21 q 503 -21 496 -21 q 631 -1 568 -21 q 739 57 689 17 l 796 -8 l 826 -8 z "},"È":{"ha":926,"x_min":49,"x_max":850,"o":"m 622 1063 q 568 1118 594 1090 q 514 1174 542 1146 q 461 1228 488 1201 q 407 1282 435 1256 q 361 1304 385 1304 q 321 1286 339 1304 q 304 1256 304 1271 q 338 1210 304 1232 l 553 1063 l 622 1063 m 850 299 l 810 299 q 736 100 789 165 q 549 35 683 35 l 363 35 l 363 460 l 400 460 q 540 404 506 460 q 574 276 574 350 l 613 276 l 613 664 l 574 664 q 539 544 574 596 q 400 494 506 494 l 363 494 l 363 893 l 522 893 q 696 851 638 893 q 785 678 754 811 l 824 678 l 814 928 l 49 928 l 49 893 l 186 893 l 186 35 l 49 35 l 49 0 l 838 0 l 850 299 z "},"É":{"ha":926,"x_min":49,"x_max":850,"o":"m 664 1256 q 647 1286 664 1269 q 608 1304 626 1304 q 563 1282 585 1304 q 508 1228 535 1256 q 453 1174 481 1201 q 400 1118 426 1146 q 347 1063 374 1090 l 417 1063 l 632 1210 q 664 1256 664 1232 m 850 299 l 810 299 q 736 100 789 165 q 549 35 683 35 l 363 35 l 363 460 l 400 460 q 540 404 506 460 q 574 276 574 350 l 613 276 l 613 664 l 574 664 q 539 544 574 596 q 400 494 506 494 l 363 494 l 363 893 l 522 893 q 696 851 638 893 q 785 678 754 811 l 824 678 l 814 928 l 49 928 l 49 893 l 186 893 l 186 35 l 49 35 l 49 0 l 838 0 l 850 299 z "},"Ê":{"ha":926,"x_min":49,"x_max":850,"o":"m 685 1043 l 511 1278 l 417 1278 l 243 1043 l 303 1043 l 464 1188 l 625 1043 l 685 1043 m 850 299 l 810 299 q 736 100 789 165 q 549 35 683 35 l 363 35 l 363 460 l 400 460 q 540 404 506 460 q 574 276 574 350 l 613 276 l 613 664 l 574 664 q 539 544 574 596 q 400 494 506 494 l 363 494 l 363 893 l 522 893 q 696 851 638 893 q 785 678 754 811 l 824 678 l 814 928 l 49 928 l 49 893 l 186 893 l 186 35 l 49 35 l 49 0 l 838 0 l 850 299 z "},"Ë":{"ha":926,"x_min":49,"x_max":850,"o":"m 676 1122 q 654 1174 676 1151 q 603 1194 633 1194 q 550 1172 572 1194 q 529 1122 529 1151 q 551 1071 529 1093 q 603 1050 572 1050 q 656 1072 633 1050 q 676 1122 676 1093 m 394 1122 q 372 1174 394 1151 q 321 1194 351 1194 q 268 1172 290 1194 q 247 1122 247 1151 q 269 1071 247 1093 q 321 1050 290 1050 q 374 1072 351 1050 q 394 1122 394 1093 m 850 299 l 810 299 q 736 100 789 165 q 549 35 683 35 l 363 35 l 363 460 l 400 460 q 540 404 506 460 q 574 276 574 350 l 613 276 l 613 664 l 574 664 q 539 544 574 596 q 400 494 506 494 l 363 494 l 363 893 l 522 893 q 696 851 638 893 q 785 678 754 811 l 824 678 l 814 928 l 49 928 l 49 893 l 186 893 l 186 35 l 49 35 l 49 0 l 838 0 l 850 299 z "},"Ì":{"ha":540,"x_min":43,"x_max":496,"o":"m 429 1063 q 375 1118 401 1090 q 321 1174 349 1146 q 268 1228 294 1201 q 214 1282 242 1256 q 168 1304 192 1304 q 128 1286 146 1304 q 111 1256 111 1271 q 144 1210 111 1232 l 360 1063 l 429 1063 m 496 0 l 496 35 l 358 35 l 358 893 l 496 893 l 496 928 l 43 928 l 43 893 l 181 893 l 181 35 l 43 35 l 43 0 l 496 0 z "},"Í":{"ha":540,"x_min":43,"x_max":496,"o":"m 471 1256 q 454 1286 471 1269 q 415 1304 433 1304 q 369 1282 392 1304 q 315 1228 342 1256 q 260 1174 288 1201 q 207 1118 233 1146 q 154 1063 181 1090 l 224 1063 l 439 1210 q 471 1256 471 1232 m 496 0 l 496 35 l 358 35 l 358 893 l 496 893 l 496 928 l 43 928 l 43 893 l 181 893 l 181 35 l 43 35 l 43 0 l 496 0 z "},"Î":{"ha":540,"x_min":43,"x_max":496,"o":"m 492 1043 l 318 1278 l 224 1278 l 50 1043 l 110 1043 l 271 1188 l 432 1043 l 492 1043 m 496 0 l 496 35 l 358 35 l 358 893 l 496 893 l 496 928 l 43 928 l 43 893 l 181 893 l 181 35 l 43 35 l 43 0 l 496 0 z "},"Ï":{"ha":540,"x_min":43,"x_max":496,"o":"m 483 1122 q 461 1174 483 1151 q 410 1194 440 1194 q 357 1172 379 1194 q 336 1122 336 1151 q 358 1071 336 1093 q 410 1050 379 1050 q 463 1072 440 1050 q 483 1122 483 1093 m 201 1122 q 179 1174 201 1151 q 128 1194 158 1194 q 75 1172 97 1194 q 54 1122 54 1151 q 76 1071 54 1093 q 128 1050 97 1050 q 181 1072 158 1050 q 201 1122 201 1093 m 496 0 l 496 35 l 358 35 l 358 893 l 496 893 l 496 928 l 43 928 l 43 893 l 181 893 l 181 35 l 43 35 l 43 0 l 496 0 z "},"Ð":{"ha":1003,"x_min":33,"x_max":935,"o":"m 935 463 q 808 796 935 665 q 458 928 683 928 l 38 928 l 38 897 l 175 899 l 175 547 l 33 547 l 33 503 l 175 503 l 175 35 l 38 35 l 38 0 l 442 0 q 815 135 697 0 q 935 463 935 269 m 744 490 q 683 140 744 247 q 446 35 624 35 l 351 35 l 351 503 l 550 503 l 550 547 l 351 547 l 351 893 l 414 893 q 685 811 622 893 q 744 490 744 728 z "},"Ñ":{"ha":1003,"x_min":26,"x_max":975,"o":"m 736 1222 l 689 1222 q 657 1171 678 1186 q 614 1154 636 1154 q 519 1188 579 1154 q 411 1219 458 1219 q 315 1179 356 1219 q 257 1065 275 1139 l 304 1065 q 335 1117 313 1100 q 379 1133 357 1133 q 474 1100 413 1133 q 582 1068 535 1068 q 678 1108 638 1068 q 736 1222 718 1149 m 975 893 l 975 928 l 660 928 l 660 893 l 793 893 l 793 321 l 382 928 l 26 928 l 26 893 l 163 893 l 163 35 l 26 35 l 26 0 l 343 0 l 343 35 l 207 35 l 207 867 l 796 -18 l 838 -18 l 838 893 l 975 893 z "},"Ò":{"ha":1003,"x_min":68,"x_max":933,"o":"m 658 1063 q 604 1118 631 1090 q 550 1174 578 1146 q 497 1228 524 1201 q 443 1282 471 1256 q 397 1304 421 1304 q 357 1286 375 1304 q 340 1256 340 1271 q 374 1210 340 1232 l 589 1063 l 658 1063 m 933 464 q 803 804 933 660 q 500 949 671 949 q 197 803 328 949 q 68 464 68 658 q 199 124 68 268 q 500 -21 328 -21 q 803 125 671 -21 q 933 464 933 268 m 729 299 q 672 86 729 160 q 500 14 617 14 q 328 86 383 14 q 272 299 272 158 l 272 629 q 328 842 272 769 q 500 914 383 914 q 674 842 615 914 q 729 629 729 767 l 729 299 z "},"Ó":{"ha":1003,"x_min":68,"x_max":933,"o":"m 700 1256 q 683 1286 700 1269 q 644 1304 663 1304 q 599 1282 621 1304 q 544 1228 571 1256 q 489 1174 517 1201 q 436 1118 463 1146 q 383 1063 410 1090 l 453 1063 l 668 1210 q 700 1256 700 1232 m 933 464 q 803 804 933 660 q 500 949 671 949 q 197 803 328 949 q 68 464 68 658 q 199 124 68 268 q 500 -21 328 -21 q 803 125 671 -21 q 933 464 933 268 m 729 299 q 672 86 729 160 q 500 14 617 14 q 328 86 383 14 q 272 299 272 158 l 272 629 q 328 842 272 769 q 500 914 383 914 q 674 842 615 914 q 729 629 729 767 l 729 299 z "},"Ô":{"ha":1003,"x_min":68,"x_max":933,"o":"m 721 1043 l 547 1278 l 453 1278 l 279 1043 l 339 1043 l 500 1188 l 661 1043 l 721 1043 m 933 464 q 803 804 933 660 q 500 949 671 949 q 197 803 328 949 q 68 464 68 658 q 199 124 68 268 q 500 -21 328 -21 q 803 125 671 -21 q 933 464 933 268 m 729 299 q 672 86 729 160 q 500 14 617 14 q 328 86 383 14 q 272 299 272 158 l 272 629 q 328 842 272 769 q 500 914 383 914 q 674 842 615 914 q 729 629 729 767 l 729 299 z "},"Õ":{"ha":1003,"x_min":68,"x_max":933,"o":"m 739 1222 l 692 1222 q 660 1171 681 1186 q 617 1154 639 1154 q 522 1188 582 1154 q 414 1219 461 1219 q 318 1179 358 1219 q 260 1065 278 1139 l 307 1065 q 338 1117 315 1100 q 382 1133 360 1133 q 476 1100 415 1133 q 585 1068 538 1068 q 681 1108 640 1068 q 739 1222 721 1149 m 933 464 q 803 804 933 660 q 500 949 671 949 q 197 803 328 949 q 68 464 68 658 q 199 124 68 268 q 500 -21 328 -21 q 803 125 671 -21 q 933 464 933 268 m 729 299 q 672 86 729 160 q 500 14 617 14 q 328 86 383 14 q 272 299 272 158 l 272 629 q 328 842 272 769 q 500 914 383 914 q 674 842 615 914 q 729 629 729 767 l 729 299 z "},"Ö":{"ha":1003,"x_min":68,"x_max":933,"o":"m 713 1122 q 690 1174 713 1151 q 639 1194 669 1194 q 586 1172 608 1194 q 565 1122 565 1151 q 588 1071 565 1093 q 639 1050 608 1050 q 692 1072 669 1050 q 713 1122 713 1093 m 431 1122 q 408 1174 431 1151 q 357 1194 388 1194 q 304 1172 326 1194 q 283 1122 283 1151 q 306 1071 283 1093 q 357 1050 326 1050 q 410 1072 388 1050 q 431 1122 431 1093 m 933 464 q 803 804 933 660 q 500 949 671 949 q 197 803 328 949 q 68 464 68 658 q 199 124 68 268 q 500 -21 328 -21 q 803 125 671 -21 q 933 464 933 268 m 729 299 q 672 86 729 160 q 500 14 617 14 q 328 86 383 14 q 272 299 272 158 l 272 629 q 328 842 272 769 q 500 914 383 914 q 674 842 615 914 q 729 629 729 767 l 729 299 z "},"×":{"ha":694,"x_min":40,"x_max":657,"o":"m 657 56 l 404 308 l 657 561 l 601 617 l 349 364 l 96 617 l 40 561 l 293 308 l 40 56 l 96 0 l 349 253 l 601 0 l 657 56 z "},"Ø":{"ha":1003,"x_min":68,"x_max":933,"o":"m 933 464 q 803 803 933 660 q 792 815 797 808 q 779 828 786 821 l 896 997 l 826 997 l 736 865 q 500 949 633 949 q 197 803 328 949 q 68 464 68 658 q 197 124 68 269 q 206 115 201 119 q 215 104 210 110 l 89 -81 l 158 -81 l 258 65 q 500 -21 364 -21 q 803 125 671 -21 q 933 464 933 268 m 694 806 l 281 200 q 272 299 272 233 l 272 629 q 328 842 272 769 q 500 914 383 914 q 672 842 617 914 q 683 826 678 835 q 694 806 688 817 m 729 299 q 672 86 729 160 q 500 14 617 14 q 328 86 383 14 q 316 104 322 93 q 303 129 310 115 l 718 738 q 729 629 729 700 l 729 299 z "},"Ù":{"ha":1003,"x_min":21,"x_max":981,"o":"m 660 1063 q 606 1118 632 1090 q 551 1174 579 1146 q 499 1228 525 1201 q 444 1282 472 1256 q 399 1304 422 1304 q 358 1286 376 1304 q 342 1256 342 1271 q 375 1210 342 1232 l 590 1063 l 660 1063 m 981 893 l 981 928 l 663 928 l 663 893 l 800 893 l 800 279 q 738 89 800 156 q 558 24 676 24 q 389 82 443 24 q 335 260 335 138 l 335 893 l 472 893 l 472 928 l 21 928 l 21 893 l 158 893 l 158 322 q 239 57 158 136 q 501 -21 319 -21 q 763 56 682 -21 q 843 303 843 131 l 843 893 l 981 893 z "},"Ú":{"ha":1003,"x_min":21,"x_max":981,"o":"m 701 1256 q 685 1286 701 1269 q 646 1304 664 1304 q 600 1282 622 1304 q 545 1228 572 1256 q 490 1174 518 1201 q 438 1118 464 1146 q 385 1063 411 1090 l 454 1063 l 669 1210 q 701 1256 701 1232 m 981 893 l 981 928 l 663 928 l 663 893 l 800 893 l 800 279 q 738 89 800 156 q 558 24 676 24 q 389 82 443 24 q 335 260 335 138 l 335 893 l 472 893 l 472 928 l 21 928 l 21 893 l 158 893 l 158 322 q 239 57 158 136 q 501 -21 319 -21 q 763 56 682 -21 q 843 303 843 131 l 843 893 l 981 893 z "},"Û":{"ha":1003,"x_min":21,"x_max":981,"o":"m 722 1043 l 549 1278 l 454 1278 l 281 1043 l 340 1043 l 501 1188 l 663 1043 l 722 1043 m 981 893 l 981 928 l 663 928 l 663 893 l 800 893 l 800 279 q 738 89 800 156 q 558 24 676 24 q 389 82 443 24 q 335 260 335 138 l 335 893 l 472 893 l 472 928 l 21 928 l 21 893 l 158 893 l 158 322 q 239 57 158 136 q 501 -21 319 -21 q 763 56 682 -21 q 843 303 843 131 l 843 893 l 981 893 z "},"Ü":{"ha":1003,"x_min":21,"x_max":981,"o":"m 714 1122 q 692 1174 714 1151 q 640 1194 671 1194 q 588 1172 610 1194 q 567 1122 567 1151 q 589 1071 567 1093 q 640 1050 610 1050 q 693 1072 671 1050 q 714 1122 714 1093 m 432 1122 q 410 1174 432 1151 q 358 1194 389 1194 q 306 1172 328 1194 q 285 1122 285 1151 q 307 1071 285 1093 q 358 1050 328 1050 q 411 1072 389 1050 q 432 1122 432 1093 m 981 893 l 981 928 l 663 928 l 663 893 l 800 893 l 800 279 q 738 89 800 156 q 558 24 676 24 q 389 82 443 24 q 335 260 335 138 l 335 893 l 472 893 l 472 928 l 21 928 l 21 893 l 158 893 l 158 322 q 239 57 158 136 q 501 -21 319 -21 q 763 56 682 -21 q 843 303 843 131 l 843 893 l 981 893 z "},"Ý":{"ha":926,"x_min":1,"x_max":926,"o":"m 718 1256 q 701 1286 718 1269 q 663 1304 681 1304 q 617 1282 639 1304 q 562 1228 589 1256 q 507 1174 535 1201 q 454 1118 481 1146 q 401 1063 428 1090 l 471 1063 l 686 1210 q 718 1256 718 1232 m 926 893 l 926 928 l 626 928 l 626 893 l 771 893 l 547 494 l 311 893 l 453 893 l 453 928 l 1 928 l 1 893 l 103 893 l 394 421 l 394 35 l 247 35 l 247 0 l 725 0 l 725 35 l 571 35 l 571 451 l 813 893 l 926 893 z "},"Þ":{"ha":926,"x_min":50,"x_max":894,"o":"m 894 525 q 803 714 894 653 q 540 775 713 775 l 372 775 l 372 893 l 521 893 l 521 928 l 50 928 l 50 893 l 196 893 l 196 35 l 58 35 l 58 0 l 529 0 l 529 35 l 372 35 l 372 269 l 529 269 q 796 338 697 269 q 894 525 894 404 m 699 529 q 660 361 699 417 q 538 306 622 306 l 372 306 l 372 740 l 543 740 q 663 688 626 740 q 699 529 699 635 z "},"ß":{"ha":772,"x_min":35,"x_max":715,"o":"m 715 257 q 646 438 715 365 q 476 522 578 508 q 622 606 578 549 q 665 738 665 664 q 589 889 665 826 q 396 949 510 949 q 207 888 281 949 q 133 700 133 829 l 133 35 l 35 35 l 35 0 l 278 0 l 278 785 q 313 894 278 868 q 392 921 350 921 q 486 879 458 921 q 513 722 513 838 q 486 574 513 613 q 394 536 461 536 q 383 535 389 536 q 369 533 376 535 q 356 521 356 532 q 372 507 356 511 q 403 503 389 503 q 521 439 494 503 q 549 251 549 372 q 535 82 549 142 q 474 21 519 21 q 440 26 451 21 q 429 40 429 33 q 449 67 429 50 q 468 113 468 82 q 410 174 468 174 l 399 174 q 347 153 364 174 q 329 94 329 132 q 365 19 329 51 q 469 -10 400 -10 q 649 71 582 -10 q 715 257 715 150 z "},"à":{"ha":694,"x_min":69,"x_max":657,"o":"m 500 763 q 446 818 472 790 q 392 874 419 846 q 339 928 365 901 q 285 982 313 956 q 239 1004 261 1004 q 199 986 217 1004 q 182 956 182 971 q 215 910 182 932 l 431 763 l 500 763 m 657 53 l 640 72 q 631 65 638 69 q 618 53 625 60 q 592 40 603 40 q 567 49 576 40 q 558 68 558 54 l 558 565 q 494 689 558 642 q 333 736 428 736 q 169 694 232 736 q 108 592 107 651 q 176 529 110 529 q 247 589 242 529 q 235 642 247 618 q 224 667 224 664 q 256 694 224 679 q 324 708 285 708 q 388 683 356 708 q 417 622 417 658 l 417 396 q 381 396 399 396 q 346 394 364 396 q 311 392 328 393 q 279 388 294 390 q 128 311 186 371 q 69 156 69 253 q 107 28 69 79 q 213 -22 144 -22 q 318 1 264 -22 q 417 76 368 24 q 449 7 421 38 q 526 -21 474 -21 q 601 0 572 -21 q 657 53 631 22 m 417 246 q 385 107 417 168 q 303 47 354 47 q 236 90 257 47 q 215 199 215 133 q 242 306 215 267 q 314 357 267 344 q 350 361 335 361 q 374 357 363 361 q 417 332 396 347 l 417 246 z "},"á":{"ha":694,"x_min":69,"x_max":657,"o":"m 554 950 q 538 981 554 965 q 499 999 519 999 q 453 976 475 999 q 398 924 425 950 q 343 868 371 897 q 290 813 317 840 q 238 757 264 785 l 307 757 l 522 904 q 554 950 554 926 m 657 53 l 640 72 q 631 65 638 69 q 618 53 625 60 q 592 40 603 40 q 567 49 576 40 q 558 68 558 54 l 558 565 q 494 689 558 642 q 333 736 428 736 q 169 694 232 736 q 108 592 107 651 q 176 529 110 529 q 247 589 242 529 q 235 642 247 618 q 224 667 224 664 q 256 694 224 679 q 324 708 285 708 q 388 683 356 708 q 417 622 417 658 l 417 396 q 381 396 399 396 q 346 394 364 396 q 311 392 328 393 q 279 388 294 390 q 128 311 186 371 q 69 156 69 253 q 107 28 69 79 q 213 -22 144 -22 q 318 1 264 -22 q 417 76 368 24 q 449 7 421 38 q 526 -21 474 -21 q 601 0 572 -21 q 657 53 631 22 m 417 246 q 385 107 417 168 q 303 47 354 47 q 236 90 257 47 q 215 199 215 133 q 242 306 215 267 q 314 357 267 344 q 350 361 335 361 q 374 357 363 361 q 417 332 396 347 l 417 246 z "},"â":{"ha":694,"x_min":69,"x_max":657,"o":"m 567 781 l 393 1015 l 299 1015 l 125 781 l 185 781 l 346 925 l 507 781 l 567 781 m 657 53 l 640 72 q 631 65 638 69 q 618 53 625 60 q 592 40 603 40 q 567 49 576 40 q 558 68 558 54 l 558 565 q 494 689 558 642 q 333 736 428 736 q 169 694 232 736 q 108 592 107 651 q 176 529 110 529 q 247 589 242 529 q 235 642 247 618 q 224 667 224 664 q 256 694 224 679 q 324 708 285 708 q 388 683 356 708 q 417 622 417 658 l 417 396 q 381 396 399 396 q 346 394 364 396 q 311 392 328 393 q 279 388 294 390 q 128 311 186 371 q 69 156 69 253 q 107 28 69 79 q 213 -22 144 -22 q 318 1 264 -22 q 417 76 368 24 q 449 7 421 38 q 526 -21 474 -21 q 601 0 572 -21 q 657 53 631 22 m 417 246 q 385 107 417 168 q 303 47 354 47 q 236 90 257 47 q 215 199 215 133 q 242 306 215 267 q 314 357 267 344 q 350 361 335 361 q 374 357 363 361 q 417 332 396 347 l 417 246 z "},"ã":{"ha":694,"x_min":69,"x_max":657,"o":"m 585 914 l 538 914 q 506 863 526 878 q 463 846 485 846 q 368 878 424 846 q 260 911 307 911 q 164 871 201 911 q 106 757 124 831 l 153 757 q 183 808 161 793 q 228 825 204 825 q 322 792 261 825 q 431 760 378 760 q 526 799 488 760 q 585 914 564 838 m 657 53 l 640 72 q 631 65 638 69 q 618 53 625 60 q 592 40 603 40 q 567 49 576 40 q 558 68 558 54 l 558 565 q 494 689 558 642 q 333 736 428 736 q 169 694 232 736 q 108 592 107 651 q 176 529 110 529 q 247 589 242 529 q 235 642 247 618 q 224 667 224 664 q 256 694 224 679 q 324 708 285 708 q 388 683 356 708 q 417 622 417 658 l 417 396 q 381 396 399 396 q 346 394 364 396 q 311 392 328 393 q 279 388 294 390 q 128 311 186 371 q 69 156 69 253 q 107 28 69 79 q 213 -22 144 -22 q 318 1 264 -22 q 417 76 368 24 q 449 7 421 38 q 526 -21 474 -21 q 601 0 572 -21 q 657 53 631 22 m 417 246 q 385 107 417 168 q 303 47 354 47 q 236 90 257 47 q 215 199 215 133 q 242 306 215 267 q 314 357 267 344 q 350 361 335 361 q 374 357 363 361 q 417 332 396 347 l 417 246 z "},"ä":{"ha":694,"x_min":69,"x_max":657,"o":"m 554 853 q 532 903 554 881 q 481 925 511 925 q 428 903 449 925 q 407 853 407 882 q 428 801 407 824 q 481 781 449 781 q 532 801 511 781 q 554 853 554 826 m 272 853 q 250 903 272 881 q 199 925 229 925 q 146 903 167 925 q 125 853 125 882 q 146 801 125 824 q 199 781 167 781 q 250 801 229 781 q 272 853 272 826 m 657 53 l 640 72 q 631 65 638 69 q 618 53 625 60 q 592 40 603 40 q 567 49 576 40 q 558 68 558 54 l 558 565 q 494 689 558 642 q 333 736 428 736 q 169 694 232 736 q 108 592 107 651 q 176 529 110 529 q 247 589 242 529 q 235 642 247 618 q 224 667 224 664 q 256 694 224 679 q 324 708 285 708 q 388 683 356 708 q 417 622 417 658 l 417 396 q 381 396 399 396 q 346 394 364 396 q 311 392 328 393 q 279 388 294 390 q 128 311 186 371 q 69 156 69 253 q 107 28 69 79 q 213 -22 144 -22 q 318 1 264 -22 q 417 76 368 24 q 449 7 421 38 q 526 -21 474 -21 q 601 0 572 -21 q 657 53 631 22 m 417 246 q 385 107 417 168 q 303 47 354 47 q 236 90 257 47 q 215 199 215 133 q 242 306 215 267 q 314 357 267 344 q 350 361 335 361 q 374 357 363 361 q 417 332 396 347 l 417 246 z "},"å":{"ha":694,"x_min":69,"x_max":657,"o":"m 471 888 q 429 988 471 946 q 329 1029 388 1029 q 229 988 271 1029 q 188 888 188 946 q 229 788 188 829 q 329 746 271 746 q 429 788 388 746 q 471 888 471 829 m 414 888 q 389 828 414 850 q 329 803 364 803 q 269 828 294 803 q 244 888 244 850 q 269 947 244 922 q 329 972 294 972 q 389 947 364 972 q 414 888 414 922 m 657 53 l 640 72 q 631 65 638 69 q 618 53 625 60 q 592 40 603 40 q 567 49 576 40 q 558 68 558 54 l 558 565 q 494 689 558 642 q 333 736 428 736 q 169 694 232 736 q 108 592 107 651 q 176 529 110 529 q 247 589 242 529 q 235 642 247 618 q 224 667 224 664 q 256 694 224 679 q 324 708 285 708 q 388 683 356 708 q 417 622 417 658 l 417 396 q 381 396 399 396 q 346 394 364 396 q 311 392 328 393 q 279 388 294 390 q 128 311 186 371 q 69 156 69 253 q 107 28 69 79 q 213 -22 144 -22 q 318 1 264 -22 q 417 76 368 24 q 449 7 421 38 q 526 -21 474 -21 q 601 0 572 -21 q 657 53 631 22 m 417 246 q 385 107 417 168 q 303 47 354 47 q 236 90 257 47 q 215 199 215 133 q 242 306 215 267 q 314 357 267 344 q 350 361 335 361 q 374 357 363 361 q 417 332 396 347 l 417 246 z "},"æ":{"ha":926,"x_min":29,"x_max":894,"o":"m 894 263 l 860 263 q 789 93 840 178 q 650 7 736 7 q 551 74 581 7 q 522 263 522 140 l 522 396 l 861 396 q 883 406 875 396 q 890 432 890 417 q 821 647 890 557 q 657 736 753 736 q 553 721 606 736 q 467 675 507 708 q 401 719 451 700 q 293 736 353 736 q 129 694 192 736 q 68 592 67 651 q 136 529 69 529 q 207 589 201 529 q 194 642 207 618 q 183 667 183 664 q 215 694 183 679 q 285 708 244 708 q 350 683 318 708 q 379 622 379 658 l 379 396 q 343 396 361 396 q 308 394 326 396 q 274 392 290 393 q 242 388 257 390 q 88 311 147 371 q 29 156 29 253 q 78 28 29 81 q 211 -22 125 -22 q 329 15 268 -22 q 407 103 389 53 q 489 7 438 36 q 635 -21 540 -21 q 797 49 725 -21 q 894 263 865 119 m 736 431 l 522 431 l 522 456 q 544 644 522 582 q 631 708 565 708 q 708 660 681 708 q 728 603 721 636 q 736 526 736 569 l 736 431 m 379 246 q 347 107 379 168 q 265 47 317 47 q 196 90 217 47 q 175 199 175 133 q 201 306 175 267 q 275 357 228 344 q 311 361 296 361 q 336 357 325 361 q 379 332 358 347 l 379 246 z "},"ç":{"ha":617,"x_min":54,"x_max":564,"o":"m 564 246 l 529 244 q 471 89 521 169 q 343 7 422 7 q 243 72 271 7 q 217 263 217 135 l 217 450 q 246 639 217 568 q 333 708 274 708 q 401 696 368 708 q 439 664 435 686 q 417 631 439 649 q 394 581 394 614 q 472 515 403 515 q 550 590 543 515 q 485 699 550 661 q 343 736 419 736 q 136 628 217 736 q 54 357 54 518 q 131 89 54 199 q 278 -17 193 0 l 225 -137 l 247 -143 l 289 -136 q 332 -154 314 -136 q 349 -194 349 -171 q 325 -232 349 -217 q 267 -247 301 -247 q 214 -240 235 -247 q 183 -228 197 -235 l 167 -272 q 213 -292 188 -286 q 281 -299 243 -299 q 411 -269 363 -299 q 458 -185 458 -240 q 426 -110 458 -139 q 344 -82 394 -82 q 332 -82 338 -82 q 319 -83 326 -82 q 309 -86 314 -85 q 299 -90 304 -87 l 328 -21 q 476 44 413 -19 q 564 246 542 111 z "},"è":{"ha":617,"x_min":44,"x_max":572,"o":"m 461 763 q 354 874 406 817 q 246 982 300 932 q 200 1004 224 1004 q 160 986 178 1004 q 143 956 143 971 q 176 910 143 932 l 392 763 l 461 763 m 572 263 l 538 263 q 513 178 531 221 q 469 93 496 136 q 332 7 417 7 q 238 74 264 7 q 210 263 210 142 l 210 396 l 556 396 q 565 406 565 396 q 567 417 567 411 q 568 432 568 424 q 496 647 568 558 q 324 736 425 736 q 126 621 208 736 q 44 344 44 506 q 125 89 44 199 q 310 -21 206 -21 q 474 49 401 -21 q 572 263 543 118 m 414 526 l 411 431 l 210 431 l 210 456 q 231 644 210 579 q 314 708 249 708 q 389 660 364 708 q 414 526 415 608 z "},"é":{"ha":617,"x_min":44,"x_max":572,"o":"m 482 982 q 465 1013 482 993 q 426 1031 444 1031 q 381 1008 406 1031 q 326 955 353 982 q 271 900 299 928 q 217 844 243 871 q 165 789 192 817 l 235 789 l 450 936 q 482 982 482 957 m 572 263 l 538 263 q 513 178 531 221 q 469 93 496 136 q 332 7 417 7 q 238 74 264 7 q 210 263 210 142 l 210 396 l 556 396 q 565 406 565 396 q 567 417 567 411 q 568 432 568 424 q 496 647 568 558 q 324 736 425 736 q 126 621 208 736 q 44 344 44 506 q 125 89 44 199 q 310 -21 206 -21 q 474 49 401 -21 q 572 263 543 118 m 414 526 l 411 431 l 210 431 l 210 456 q 231 644 210 579 q 314 708 249 708 q 389 660 364 708 q 414 526 415 608 z "},"ê":{"ha":617,"x_min":44,"x_max":572,"o":"m 532 733 l 358 968 l 264 968 l 90 733 l 150 733 l 311 878 l 472 733 l 532 733 m 572 263 l 538 263 q 513 178 531 221 q 469 93 496 136 q 332 7 417 7 q 238 74 264 7 q 210 263 210 142 l 210 396 l 556 396 q 565 406 565 396 q 567 417 567 411 q 568 432 568 424 q 496 647 568 558 q 324 736 425 736 q 126 621 208 736 q 44 344 44 506 q 125 89 44 199 q 310 -21 206 -21 q 474 49 401 -21 q 572 263 543 118 m 414 526 l 411 431 l 210 431 l 210 456 q 231 644 210 579 q 314 708 249 708 q 389 660 364 708 q 414 526 415 608 z "},"ë":{"ha":617,"x_min":44,"x_max":572,"o":"m 528 831 q 507 882 528 858 q 454 903 486 903 q 403 882 424 903 q 381 831 381 857 q 403 781 381 803 q 454 758 424 758 q 507 781 486 758 q 528 831 528 801 m 246 831 q 225 882 246 858 q 172 903 204 903 q 121 882 142 903 q 99 831 99 857 q 121 781 99 803 q 172 758 142 758 q 225 781 204 758 q 246 831 246 801 m 572 263 l 538 263 q 513 178 531 221 q 469 93 496 136 q 332 7 417 7 q 238 74 264 7 q 210 263 210 142 l 210 396 l 556 396 q 565 406 565 396 q 567 417 567 411 q 568 432 568 424 q 496 647 568 558 q 324 736 425 736 q 126 621 208 736 q 44 344 44 506 q 125 89 44 199 q 310 -21 206 -21 q 474 49 401 -21 q 572 263 543 118 m 414 526 l 411 431 l 210 431 l 210 456 q 231 644 210 579 q 314 708 249 708 q 389 660 364 708 q 414 526 415 608 z "},"ì":{"ha":386,"x_min":-25,"x_max":369,"o":"m 293 775 q 240 831 265 803 q 186 886 214 858 q 78 994 132 944 q 32 1017 56 1017 q -8 999 11 1017 q -25 968 -25 983 q 8 922 -25 947 l 224 775 l 293 775 m 369 0 l 369 35 l 268 35 l 268 735 l 18 728 l 18 693 l 118 693 l 118 35 l 14 35 l 14 0 l 369 0 z "},"í":{"ha":386,"x_min":14,"x_max":404,"o":"m 404 964 q 388 994 404 979 q 349 1013 369 1013 q 303 990 325 1013 q 248 938 275 964 q 193 882 221 911 q 140 826 167 854 q 88 771 114 799 l 157 771 l 372 918 q 404 964 404 940 m 369 0 l 369 35 l 268 35 l 268 735 l 18 728 l 18 693 l 118 693 l 118 35 l 14 35 l 14 0 l 369 0 z "},"î":{"ha":386,"x_min":-50,"x_max":392,"o":"m 392 760 l 218 994 l 124 994 l -50 760 l 10 760 l 171 904 l 332 760 l 392 760 m 369 0 l 369 35 l 268 35 l 268 735 l 18 728 l 18 693 l 118 693 l 118 35 l 14 35 l 14 0 l 369 0 z "},"ï":{"ha":386,"x_min":-21,"x_max":408,"o":"m 408 843 q 388 894 408 871 q 335 915 364 915 q 283 894 304 915 q 261 843 261 872 q 283 793 261 814 q 335 771 304 771 q 388 793 365 771 q 408 843 408 814 m 126 843 q 106 894 126 871 q 53 915 82 915 q 1 894 22 915 q -21 843 -21 872 q 1 793 -21 814 q 53 771 22 771 q 106 793 83 771 q 126 843 126 814 m 369 0 l 369 35 l 268 35 l 268 735 l 18 728 l 18 693 l 118 693 l 118 35 l 14 35 l 14 0 l 369 0 z "},"ð":{"ha":694,"x_min":56,"x_max":639,"o":"m 639 461 q 521 792 639 669 q 488 822 507 806 q 444 856 469 838 l 560 924 l 532 956 l 403 881 q 188 950 331 926 l 171 924 q 371 861 321 899 l 185 753 l 211 717 l 407 832 l 410 829 q 468 690 468 764 q 410 724 440 711 q 347 736 381 736 q 140 622 225 736 q 56 353 56 506 q 142 88 56 199 q 347 -22 226 -22 q 563 111 485 -22 q 639 461 639 242 m 472 268 q 444 72 472 143 q 347 6 417 6 q 249 72 275 6 q 222 268 222 138 l 222 438 q 247 640 222 571 q 347 708 272 708 q 447 639 422 708 q 472 438 472 569 l 472 268 z "},"ñ":{"ha":772,"x_min":32,"x_max":740,"o":"m 611 949 l 564 949 q 533 897 556 915 q 489 881 510 881 q 394 913 453 881 q 286 946 336 946 q 190 906 231 946 q 132 792 153 865 l 179 792 q 210 843 188 825 q 254 860 232 860 q 349 826 290 860 q 457 794 407 794 q 553 833 515 794 q 611 949 592 872 m 740 0 l 740 35 l 651 35 l 651 457 q 613 665 651 596 q 481 736 572 736 q 365 706 421 736 q 274 603 310 676 l 274 735 l 32 728 l 32 693 l 126 693 l 126 35 l 32 35 l 32 0 l 361 0 l 361 35 l 274 35 l 274 357 q 322 601 274 515 q 429 686 369 686 q 492 628 476 686 q 502 558 499 600 q 506 463 506 517 l 506 35 l 418 35 l 418 0 l 740 0 z "},"ò":{"ha":694,"x_min":54,"x_max":639,"o":"m 493 767 q 386 878 438 821 q 278 986 332 933 q 232 1008 256 1008 q 192 990 211 1008 q 175 960 175 975 q 208 914 175 936 l 424 767 l 493 767 m 639 357 q 550 624 639 510 q 346 736 463 736 q 142 622 231 736 q 54 357 54 510 q 143 92 54 206 q 346 -21 231 -21 q 551 93 463 -21 q 639 357 639 206 m 472 267 q 446 72 472 138 q 346 7 418 7 q 247 74 274 7 q 221 267 221 136 l 221 449 q 247 643 221 578 q 346 708 275 708 q 446 642 418 708 q 472 449 472 579 l 472 267 z "},"ó":{"ha":694,"x_min":54,"x_max":639,"o":"m 540 978 q 524 1008 540 992 q 485 1026 503 1026 q 439 1004 464 1026 q 331 896 382 951 q 276 840 303 867 q 224 785 250 813 l 293 785 l 508 932 q 540 978 540 951 m 639 357 q 550 624 639 510 q 346 736 463 736 q 142 622 231 736 q 54 357 54 510 q 143 92 54 206 q 346 -21 231 -21 q 551 93 463 -21 q 639 357 639 206 m 472 267 q 446 72 472 138 q 346 7 418 7 q 247 74 274 7 q 221 267 221 136 l 221 449 q 247 643 221 578 q 346 708 275 708 q 446 642 418 708 q 472 449 472 579 l 472 267 z "},"ô":{"ha":694,"x_min":54,"x_max":639,"o":"m 561 768 l 388 1003 l 293 1003 l 119 768 l 179 768 l 340 913 l 501 768 l 561 768 m 639 357 q 550 624 639 510 q 346 736 463 736 q 142 622 231 736 q 54 357 54 510 q 143 92 54 206 q 346 -21 231 -21 q 551 93 463 -21 q 639 357 639 206 m 472 267 q 446 72 472 138 q 346 7 418 7 q 247 74 274 7 q 221 267 221 136 l 221 449 q 247 643 221 578 q 346 708 275 708 q 446 642 418 708 q 472 449 472 579 l 472 267 z "},"õ":{"ha":694,"x_min":54,"x_max":639,"o":"m 596 964 l 549 964 q 517 913 538 928 q 474 896 496 896 q 379 929 439 896 q 271 961 318 961 q 175 922 214 961 q 117 807 136 883 l 164 807 q 194 858 172 842 q 239 875 217 875 q 333 843 272 875 q 442 810 393 810 q 538 850 497 810 q 596 964 578 890 m 639 357 q 550 624 639 510 q 346 736 463 736 q 142 622 231 736 q 54 357 54 510 q 143 92 54 206 q 346 -21 231 -21 q 551 93 463 -21 q 639 357 639 206 m 472 267 q 446 72 472 138 q 346 7 418 7 q 247 74 274 7 q 221 267 221 136 l 221 449 q 247 643 221 578 q 346 708 275 708 q 446 642 418 708 q 472 449 472 579 l 472 267 z "},"ö":{"ha":694,"x_min":54,"x_max":639,"o":"m 557 864 q 536 915 557 894 q 483 936 513 936 q 432 915 453 936 q 410 864 410 894 q 432 814 410 835 q 483 792 454 792 q 536 814 511 792 q 557 864 557 835 m 275 864 q 254 915 275 894 q 201 936 231 936 q 150 915 171 936 q 128 864 128 894 q 150 814 128 835 q 201 792 172 792 q 254 814 229 792 q 275 864 275 835 m 639 357 q 550 624 639 510 q 346 736 463 736 q 142 622 231 736 q 54 357 54 510 q 143 92 54 206 q 346 -21 231 -21 q 551 93 463 -21 q 639 357 639 206 m 472 267 q 446 72 472 138 q 346 7 418 7 q 247 74 274 7 q 221 267 221 136 l 221 449 q 247 643 221 578 q 346 708 275 708 q 446 642 418 708 q 472 449 472 579 l 472 267 z "},"÷":{"ha":694,"x_min":42,"x_max":657,"o":"m 433 526 q 407 589 433 563 q 346 614 382 614 q 283 588 310 614 q 258 526 258 563 q 285 464 258 490 q 346 439 310 439 q 408 465 382 439 q 433 526 433 490 m 657 271 l 657 346 l 42 346 l 42 271 l 657 271 m 433 88 q 407 150 433 124 q 346 175 382 175 q 283 149 310 175 q 258 88 258 124 q 285 25 258 51 q 346 0 310 0 q 408 26 382 0 q 433 88 433 51 z "},"ø":{"ha":694,"x_min":54,"x_max":639,"o":"m 639 357 q 550 622 639 511 q 535 639 543 631 q 519 657 528 647 l 608 839 l 547 839 l 476 694 q 346 736 419 736 q 142 622 231 736 q 54 357 54 510 q 142 92 54 206 q 154 77 147 85 q 168 63 161 69 l 72 -133 l 133 -132 l 210 25 q 346 -21 269 -21 q 551 93 463 -21 q 639 357 639 206 m 449 636 l 225 179 q 221 267 221 208 l 221 449 q 247 643 221 578 q 346 708 275 708 q 446 642 418 708 q 449 636 446 642 m 472 267 q 446 72 472 138 q 346 7 418 7 q 247 72 275 7 q 244 79 246 75 q 242 89 243 83 l 467 550 q 472 449 472 518 l 472 267 z "},"ù":{"ha":772,"x_min":31,"x_max":742,"o":"m 532 769 q 478 825 504 797 q 424 881 451 853 q 371 937 397 910 q 317 989 344 964 q 271 1011 294 1011 q 231 993 249 1011 q 214 963 214 978 q 247 917 214 942 l 463 769 l 532 769 m 742 0 l 742 35 l 646 35 l 646 733 l 392 728 l 392 693 l 496 693 l 496 306 q 447 106 496 190 q 332 24 399 24 q 285 60 300 24 q 271 158 271 93 l 271 733 l 31 728 l 31 693 l 121 693 l 121 201 q 165 39 121 100 q 289 -21 207 -21 q 401 11 349 -21 q 497 114 453 40 l 497 -11 q 540 -5 521 -7 q 574 -1 560 -3 q 629 0 588 0 q 742 0 671 0 z "},"ú":{"ha":772,"x_min":31,"x_max":742,"o":"m 590 964 q 574 994 590 979 q 535 1013 556 1013 q 489 990 511 1013 q 434 938 461 965 q 379 882 407 911 q 326 826 353 854 q 274 771 300 799 l 343 771 l 558 918 q 590 964 590 940 m 742 0 l 742 35 l 646 35 l 646 733 l 392 728 l 392 693 l 496 693 l 496 306 q 447 106 496 190 q 332 24 399 24 q 285 60 300 24 q 271 158 271 93 l 271 733 l 31 728 l 31 693 l 121 693 l 121 201 q 165 39 121 100 q 289 -21 207 -21 q 401 11 349 -21 q 497 114 453 40 l 497 -11 q 540 -5 521 -7 q 574 -1 560 -3 q 629 0 588 0 q 742 0 671 0 z "},"û":{"ha":772,"x_min":31,"x_max":742,"o":"m 607 754 l 433 989 l 339 989 l 165 754 l 225 754 l 386 899 l 547 754 l 607 754 m 742 0 l 742 35 l 646 35 l 646 733 l 392 728 l 392 693 l 496 693 l 496 306 q 447 106 496 190 q 332 24 399 24 q 285 60 300 24 q 271 158 271 93 l 271 733 l 31 728 l 31 693 l 121 693 l 121 201 q 165 39 121 100 q 289 -21 207 -21 q 401 11 349 -21 q 497 114 453 40 l 497 -11 q 540 -5 521 -7 q 574 -1 560 -3 q 629 0 588 0 q 742 0 671 0 z "},"ü":{"ha":772,"x_min":31,"x_max":742,"o":"m 603 882 q 581 933 603 911 q 529 954 560 954 q 476 933 499 954 q 456 882 456 910 q 476 832 456 853 q 529 810 499 810 q 581 832 560 810 q 603 882 603 853 m 321 882 q 299 933 321 911 q 247 954 278 954 q 194 933 217 954 q 174 882 174 910 q 194 832 174 853 q 247 810 217 810 q 299 832 278 810 q 321 882 321 853 m 742 0 l 742 35 l 646 35 l 646 733 l 392 728 l 392 693 l 496 693 l 496 306 q 447 106 496 190 q 332 24 399 24 q 285 60 300 24 q 271 158 271 93 l 271 733 l 31 728 l 31 693 l 121 693 l 121 201 q 165 39 121 100 q 289 -21 207 -21 q 401 11 349 -21 q 497 114 453 40 l 497 -11 q 540 -5 521 -7 q 574 -1 560 -3 q 629 0 588 0 q 742 0 671 0 z "},"ý":{"ha":694,"x_min":26,"x_max":661,"o":"m 661 693 l 661 728 l 442 728 l 442 693 l 542 693 l 410 213 l 256 693 l 281 693 l 272 685 l 342 685 l 557 832 q 589 878 589 854 q 572 908 589 892 q 533 926 551 926 q 488 904 510 926 q 433 851 460 878 q 378 796 406 824 q 346 761 363 778 q 314 728 329 744 l 26 728 l 26 693 l 94 693 l 339 38 l 307 -89 q 269 -172 283 -142 q 250 -212 256 -203 q 233 -229 239 -229 q 224 -224 228 -229 q 217 -214 222 -219 q 158 -183 192 -183 q 147 -184 153 -183 q 135 -186 142 -185 q 85 -253 85 -199 q 110 -306 85 -287 q 161 -325 136 -325 q 257 -268 213 -325 q 299 -206 279 -240 q 331 -131 318 -172 l 583 693 l 661 693 z "},"þ":{"ha":772,"x_min":24,"x_max":707,"o":"m 707 357 q 629 625 707 514 q 444 736 554 736 q 354 708 399 736 q 274 621 311 682 l 274 949 q 202 938 233 942 q 149 931 171 933 q 95 928 126 929 q 24 928 64 928 l 24 893 l 124 893 l 124 -290 l 25 -290 l 25 -325 l 369 -325 l 369 -290 l 274 -290 l 274 82 q 347 1 301 25 q 438 -21 390 -21 q 628 92 546 -21 q 707 357 707 201 m 543 211 q 515 64 543 124 q 443 7 490 7 q 321 86 368 7 q 274 281 274 163 l 274 458 q 288 548 274 506 q 331 631 303 590 q 440 708 383 708 q 517 651 489 708 q 543 504 543 597 l 543 211 z "},"ÿ":{"ha":694,"x_min":26,"x_max":661,"o":"m 661 693 l 661 728 l 600 728 q 601 744 601 733 q 579 796 601 774 q 528 817 558 817 q 475 794 497 817 q 454 744 454 774 q 456 728 454 733 l 442 728 l 442 693 l 476 693 q 528 672 497 672 l 536 672 l 410 213 l 261 674 q 297 693 282 678 l 344 693 l 344 728 l 318 728 q 319 744 319 733 q 297 796 319 774 q 246 817 276 817 q 193 794 215 817 q 172 744 172 774 q 174 728 172 733 l 26 728 l 26 693 l 94 693 l 339 38 l 307 -89 q 269 -172 283 -142 q 250 -212 256 -203 q 233 -229 239 -229 q 224 -224 228 -229 q 217 -214 222 -219 q 158 -183 192 -183 q 147 -184 153 -183 q 135 -186 142 -185 q 85 -253 85 -199 q 110 -306 85 -287 q 161 -325 136 -325 q 257 -268 213 -325 q 299 -206 279 -240 q 331 -131 318 -172 l 583 693 l 661 693 z "},"":{"ha":347,"x_min":0,"x_max":0,"o":""},"":{"ha":347,"x_min":0,"x_max":0,"o":""},"":{"ha":694,"x_min":42,"x_max":657,"o":"m 657 271 l 657 346 l 42 346 l 42 271 l 657 271 z "},"":{"ha":694,"x_min":42,"x_max":657,"o":"m 657 179 l 657 254 l 363 254 l 411 363 l 657 363 l 657 438 l 444 438 l 518 600 l 443 600 l 369 438 l 42 438 l 42 363 l 336 363 l 288 254 l 42 254 l 42 179 l 254 179 l 181 17 l 256 17 l 329 179 l 657 179 z "},"":{"ha":990,"x_min":35,"x_max":957,"o":"m 957 367 q 894 507 957 450 q 760 561 833 561 q 647 535 700 561 q 583 492 621 521 q 496 415 544 463 q 409 492 447 463 q 343 535 371 521 q 232 561 292 561 q 96 506 157 561 q 35 367 35 451 q 97 226 35 282 q 232 172 157 172 q 336 197 278 172 q 496 318 393 222 q 656 197 599 222 q 760 172 714 172 q 896 228 835 172 q 957 367 957 282 m 886 367 q 851 276 886 310 q 760 243 818 243 q 646 281 697 243 q 596 320 619 299 q 549 367 572 342 q 647 454 593 415 q 760 490 700 490 q 853 450 817 490 q 886 367 886 410 m 443 367 q 344 279 399 318 q 232 243 292 243 q 139 276 174 243 q 106 367 106 310 q 140 451 106 413 q 232 490 174 490 q 346 453 293 490 q 396 413 372 435 q 443 367 419 392 z "},"":{"ha":694,"x_min":19,"x_max":674,"o":"m 674 0 l 674 42 l 674 63 l 674 119 l 106 378 l 674 636 l 674 714 l 19 413 l 19 343 l 628 63 l 19 63 l 19 0 l 674 0 z "},"":{"ha":694,"x_min":19,"x_max":674,"o":"m 674 0 l 674 63 l 65 63 l 674 343 l 674 413 l 19 714 l 19 636 l 588 378 l 19 119 l 19 63 l 19 42 l 19 0 l 674 0 z "},"":{"ha":686,"x_min":36,"x_max":642,"o":"m 642 546 q 533 903 642 765 q 272 1040 425 1040 q 168 1025 217 1040 q 126 1010 146 1018 q 90 996 107 1003 l 144 926 q 181 944 163 936 q 218 958 199 951 q 303 972 251 972 q 475 874 413 972 q 535 618 535 774 q 531 544 535 583 q 526 505 529 525 q 519 464 524 485 q 463 508 489 490 q 414 538 438 526 q 311 558 369 558 q 117 465 197 558 q 36 244 36 375 q 121 40 36 111 q 299 -29 207 -29 q 556 156 469 -29 q 642 546 642 340 m 508 415 q 428 111 483 207 q 281 13 371 13 q 185 69 214 13 q 156 206 156 125 q 219 424 156 343 q 358 504 283 504 q 450 476 414 504 q 508 415 488 449 z "},"":{"ha":990,"x_min":19,"x_max":965,"o":"m 965 161 l 933 161 q 858 33 893 63 q 746 4 822 4 l 231 4 l 639 475 l 260 972 l 625 972 q 783 931 747 972 q 814 882 800 911 q 838 814 828 853 l 865 814 l 857 1035 l 167 1035 l 22 1044 l 504 414 l 19 -139 l 100 -135 l 799 -135 q 853 -140 826 -135 q 880 -145 867 -143 q 906 -150 893 -147 q 917 -72 911 -110 q 929 1 922 -35 q 945 76 936 36 q 965 161 954 117 z "},"":{"ha":1143,"x_min":35,"x_max":1115,"o":"m 1115 -140 l 1115 -108 q 1007 -81 1035 -108 q 981 4 981 -54 l 981 874 q 1014 979 981 946 q 1111 1011 1049 1011 l 1111 1043 l 38 1043 l 38 1011 q 136 978 100 1011 q 169 874 169 946 l 169 4 q 143 -82 169 -56 q 35 -108 118 -108 l 35 -140 l 461 -140 l 461 -108 q 353 -79 379 -107 q 326 4 326 -54 l 326 967 l 824 967 l 824 4 q 797 -82 824 -56 q 690 -108 771 -108 l 690 -140 l 1115 -140 z "},"":{"ha":763,"x_min":14,"x_max":736,"o":"m 736 210 l 706 210 q 681 133 706 160 q 624 106 657 106 q 564 135 594 106 q 533 231 533 164 q 538 386 533 283 q 550 557 542 488 l 725 557 l 725 676 l 207 676 q 85 615 129 676 q 14 469 40 554 l 38 469 q 94 539 65 519 q 158 557 126 557 l 224 557 l 183 239 q 161 179 179 207 q 141 149 153 164 q 114 119 129 135 q 89 86 99 104 q 79 49 79 71 q 101 -4 79 18 q 154 -26 124 -26 q 215 3 194 -26 q 244 69 236 32 l 308 557 l 465 557 q 444 354 451 433 q 440 280 442 315 q 438 211 438 244 q 476 38 438 97 q 571 -22 515 -22 q 685 40 636 -22 q 736 210 735 104 z "},"":{"ha":381,"x_min":3,"x_max":404,"o":"m 404 1194 q 374 1253 404 1235 q 313 1272 343 1272 q 192 1119 217 1272 q 167 671 167 967 q 171 235 167 319 q 175 103 175 149 q 164 -15 175 22 q 139 -50 156 -50 q 107 -26 126 -50 q 64 -4 89 -4 q 22 -22 40 -4 q 3 -65 3 -42 q 32 -126 3 -104 q 86 -149 61 -149 q 232 19 197 -149 q 258 237 249 104 q 267 554 267 369 q 263 742 267 651 q 251 918 258 833 q 241 1058 244 1003 q 238 1136 238 1113 q 243 1157 238 1147 q 263 1167 249 1167 q 294 1150 279 1167 q 333 1133 308 1133 q 386 1154 367 1133 q 404 1194 404 1175 z "},"":{"ha":1067,"x_min":47,"x_max":1022,"o":"m 1022 0 l 1022 225 l 1001 225 q 974 157 989 178 q 910 140 958 140 l 690 140 l 693 179 q 917 321 838 213 q 994 554 994 428 q 857 850 994 743 q 535 956 722 956 q 211 849 347 956 q 75 554 75 742 q 157 310 75 411 q 376 179 239 210 l 379 140 l 160 140 q 96 157 113 140 q 68 225 81 175 l 47 225 l 47 0 l 457 0 l 435 211 q 294 319 350 235 q 238 558 238 406 q 319 824 238 733 q 535 911 399 911 q 751 821 669 911 q 832 558 832 732 q 772 319 832 404 q 635 211 711 236 l 613 0 l 1022 0 z "},"":{"ha":763,"x_min":14,"x_max":715,"o":"m 715 1267 l 667 1274 l 490 165 l 217 725 l 14 625 l 36 579 l 169 644 l 507 -53 l 715 1267 z "},"":{"ha":694,"x_min":-1,"x_max":696,"o":"m 696 442 l 636 474 q 576 418 613 438 q 501 399 540 399 q 357 435 476 399 q 196 471 240 471 q 92 446 139 471 q -1 361 40 419 l 58 325 q 122 390 93 371 q 192 408 150 408 q 344 369 228 408 q 506 332 463 332 q 613 361 558 332 q 696 442 665 388 m 696 258 l 636 290 q 576 235 613 254 q 501 215 540 215 q 357 251 476 215 q 196 288 240 288 q 92 263 139 288 q -1 178 40 236 l 58 142 q 122 207 93 188 q 192 225 150 225 q 344 186 228 225 q 506 149 463 149 q 613 178 558 149 q 696 258 665 204 z "},"":{"ha":1003,"x_min":75,"x_max":963,"o":"m 888 783 q 885 789 886 786 q 882 794 883 792 q 857 799 874 800 q 828 782 846 794 q 776 760 810 768 q 799 813 785 796 q 815 842 811 829 q 810 865 818 857 q 800 871 808 868 q 779 867 786 874 q 772 853 774 861 q 771 839 771 847 q 771 819 771 831 q 765 763 774 794 q 731 808 738 790 q 721 826 725 818 q 713 838 717 833 q 681 839 696 854 q 682 806 665 825 q 693 798 686 803 q 711 789 700 793 q 757 754 733 778 q 700 747 721 746 q 665 747 678 749 q 658 743 661 744 q 653 739 656 742 q 647 719 644 733 q 650 713 649 715 q 653 708 651 711 q 678 704 661 700 q 690 710 683 706 q 707 721 697 714 q 760 743 729 735 q 738 690 749 707 q 721 661 722 674 q 725 636 717 644 q 730 633 728 635 q 736 631 732 632 q 756 636 749 629 q 764 650 760 640 q 764 683 765 660 q 771 740 763 704 q 806 694 794 717 q 822 665 814 674 q 856 664 839 647 q 853 696 871 679 q 842 704 849 700 q 825 714 835 708 q 778 749 804 725 q 835 756 815 757 q 869 756 857 754 q 883 764 879 758 q 888 783 892 771 m 963 475 l 946 490 l 917 461 l 458 507 l 451 797 l 514 860 l 499 876 l 336 714 l 351 697 l 426 771 l 438 399 l 813 357 l 746 290 l 761 274 l 963 475 m 335 676 l 93 919 l 79 906 l 321 663 l 335 676 m 954 54 l 732 276 l 718 263 l 940 40 l 954 54 m 718 231 l 703 247 l 639 183 l 431 390 l 238 583 l 301 647 l 286 664 l 75 453 l 92 438 l 156 501 l 326 329 l 103 106 l 117 92 l 340 315 l 556 100 l 492 36 l 508 21 l 718 231 z "},"":{"ha":694,"x_min":0,"x_max":0,"o":""},"":{"ha":686,"x_min":25,"x_max":647,"o":"m 647 524 l 378 1035 l 294 1035 l 25 524 l 294 0 l 378 0 l 647 524 m 564 524 l 336 75 l 108 524 l 336 960 l 564 524 z "},"":{"ha":1003,"x_min":32,"x_max":1006,"o":"m 990 493 q 968 524 990 510 q 919 538 956 531 q 883 548 903 540 q 839 569 863 556 q 883 591 863 583 q 919 601 903 599 q 968 615 956 608 q 990 646 990 629 q 985 663 990 651 q 958 681 975 681 q 936 674 950 681 q 919 660 929 668 q 899 638 910 651 q 831 585 874 610 q 843 671 831 638 q 856 719 853 701 q 822 757 856 757 q 789 719 789 757 q 801 671 789 701 q 814 585 813 638 q 746 638 767 613 q 725 660 735 651 q 708 674 715 668 q 685 681 694 681 q 658 663 668 681 q 653 646 653 651 q 675 615 653 628 q 725 601 689 608 q 804 569 761 594 q 725 538 761 544 q 675 524 690 532 q 653 493 653 511 q 658 475 653 486 q 685 458 668 458 q 708 465 694 458 q 725 479 715 471 q 746 501 735 488 q 814 554 767 526 q 801 468 813 501 q 789 419 789 436 q 822 382 789 382 q 856 419 856 382 q 843 468 853 438 q 831 554 831 501 q 899 501 874 529 q 919 479 910 488 q 936 465 929 471 q 958 458 950 458 q 985 475 974 458 q 989 485 988 481 q 990 493 990 489 m 1006 0 l 1006 35 l 943 35 l 500 575 l 803 893 l 939 893 l 939 928 l 590 928 l 590 893 l 749 893 l 361 481 l 719 35 l 575 35 l 575 0 l 1006 0 m 483 0 l 483 35 l 346 35 l 346 481 l 346 893 l 483 893 l 483 928 l 32 928 l 32 893 l 169 893 l 169 35 l 32 35 l 32 0 l 483 0 z "},"":{"ha":849,"x_min":35,"x_max":814,"o":"m 814 644 l 804 928 l 35 928 l 35 893 l 172 893 l 172 243 l 85 243 l 85 208 l 172 208 l 172 35 l 35 35 l 35 0 l 486 0 l 486 35 l 349 35 l 349 208 l 435 208 l 435 243 l 349 243 l 349 460 l 386 460 q 528 404 493 460 q 561 276 561 350 l 600 276 l 600 664 l 561 664 q 526 544 561 596 q 386 494 493 494 l 349 494 l 349 893 l 513 893 q 686 846 629 893 q 775 644 744 796 l 814 644 z "},"":{"ha":1003,"x_min":72,"x_max":969,"o":"m 717 1278 l 667 1278 q 610 1176 647 1203 q 513 1150 571 1150 q 415 1176 454 1150 q 358 1278 378 1203 l 308 1278 q 372 1110 314 1160 q 513 1060 431 1060 q 653 1110 594 1060 q 717 1278 711 1160 m 969 303 l 969 338 l 535 338 l 535 303 l 675 303 l 675 189 q 628 53 675 92 q 510 14 583 14 q 325 104 374 14 q 276 389 276 194 l 276 578 q 333 831 276 746 q 521 914 389 914 q 672 860 599 914 q 785 667 744 808 l 825 667 l 825 935 l 793 935 l 736 876 q 640 928 699 907 q 511 949 583 949 q 201 804 331 949 q 72 457 72 660 q 200 115 72 251 q 518 -21 325 -21 q 768 64 669 -21 q 872 303 867 147 l 969 303 z "},"":{"ha":617,"x_min":50,"x_max":614,"o":"m 614 688 q 594 728 614 713 q 556 742 576 742 q 503 726 531 742 q 444 665 483 714 l 440 669 q 404 701 424 689 q 451 732 429 714 q 515 900 510 782 l 465 900 q 408 799 446 825 q 311 772 369 772 q 214 799 253 772 q 157 900 176 825 l 107 900 q 171 732 113 782 q 183 722 178 726 q 196 714 189 718 q 140 671 165 697 q 82 500 82 606 q 146 342 82 406 q 164 325 154 333 q 185 310 174 317 q 86 246 121 289 q 50 125 50 201 q 153 -39 50 -28 q 82 -89 104 -67 q 50 -176 50 -121 q 117 -282 50 -239 q 288 -325 182 -325 q 503 -253 414 -325 q 590 -58 590 -181 q 557 47 590 11 q 471 81 525 81 q 185 85 276 83 q 94 154 94 88 q 149 247 94 218 q 299 276 200 276 q 447 340 389 276 q 503 507 503 407 q 463 643 503 586 q 469 653 465 649 q 478 664 474 658 q 506 681 492 681 q 528 657 517 681 q 571 635 538 635 q 601 650 586 635 q 614 688 614 664 m 369 506 q 367 406 369 446 q 363 343 365 365 q 292 300 357 300 q 224 346 232 300 q 219 408 221 368 q 217 507 217 449 q 219 603 217 564 q 226 664 221 642 q 242 692 228 681 q 311 682 271 682 q 356 686 335 682 q 363 664 363 676 q 367 603 365 642 q 369 506 369 564 m 542 -104 q 463 -242 542 -192 q 293 -290 382 -290 q 176 -249 214 -290 q 140 -154 140 -208 q 154 -78 140 -107 q 211 -43 164 -54 q 318 -48 261 -46 q 442 -50 375 -50 q 518 -64 494 -50 q 542 -104 542 -76 z "},"":{"ha":540,"x_min":43,"x_max":496,"o":"m 346 1121 q 324 1172 346 1150 q 272 1193 303 1193 q 219 1171 242 1193 q 199 1121 199 1150 q 221 1069 199 1092 q 272 1049 242 1049 q 325 1071 303 1049 q 346 1121 346 1092 m 496 0 l 496 35 l 358 35 l 358 893 l 496 893 l 496 928 l 43 928 l 43 893 l 181 893 l 181 35 l 43 35 l 43 0 l 496 0 z "},"":{"ha":772,"x_min":96,"x_max":675,"o":"m 675 290 q 613 489 675 418 q 389 599 551 557 q 232 651 286 625 q 179 754 179 675 q 231 867 179 819 q 353 914 282 914 q 515 846 451 914 q 592 672 579 775 l 636 672 l 636 935 l 610 935 l 557 881 q 464 932 514 915 q 356 949 414 949 q 174 875 247 949 q 103 688 103 801 q 161 510 103 578 q 350 408 219 443 q 531 336 458 379 q 599 207 599 294 q 538 69 599 126 q 389 14 478 14 q 221 89 285 14 q 136 268 157 164 l 96 268 l 96 -8 l 119 -8 l 186 50 q 278 -3 225 17 q 306 -12 292 -8 q 338 -18 321 -15 l 285 -137 l 307 -143 l 349 -136 q 392 -154 374 -136 q 408 -194 408 -171 q 385 -232 408 -217 q 326 -247 361 -247 q 274 -240 294 -247 q 243 -228 257 -235 l 226 -272 q 272 -292 247 -286 q 340 -299 303 -299 q 471 -269 422 -299 q 518 -185 518 -240 q 486 -110 518 -139 q 404 -82 454 -82 q 392 -82 397 -82 q 379 -83 386 -82 q 369 -86 374 -85 q 358 -90 364 -87 l 388 -21 q 594 65 515 -21 q 675 290 675 150 z "},"":{"ha":540,"x_min":71,"x_max":469,"o":"m 469 213 q 433 368 469 315 q 380 412 415 394 q 292 442 344 429 q 169 493 203 464 q 140 568 140 518 q 171 667 140 626 q 256 708 200 708 q 354 661 313 708 q 399 564 394 614 l 435 564 l 435 728 l 411 728 l 389 692 q 331 724 364 711 q 256 736 294 736 q 126 676 176 736 q 76 517 76 618 q 133 358 76 407 q 193 319 161 335 q 261 294 225 303 q 378 249 344 275 q 411 153 411 221 q 372 49 411 89 q 283 7 335 7 q 167 61 214 7 q 108 199 121 115 l 71 199 l 71 -4 l 93 -4 l 133 38 q 203 -7 165 10 q 226 -15 214 -11 q 250 -19 239 -18 l 199 -137 l 221 -143 l 263 -136 q 306 -154 288 -136 q 322 -194 322 -171 q 299 -232 322 -217 q 240 -247 275 -247 q 188 -240 208 -247 q 157 -228 171 -235 l 140 -272 q 186 -292 161 -286 q 254 -299 217 -299 q 385 -269 336 -299 q 432 -185 432 -240 q 400 -110 432 -139 q 318 -82 368 -82 q 306 -82 311 -82 q 293 -83 300 -82 q 283 -86 288 -85 q 272 -90 278 -87 l 301 -21 q 421 39 378 -14 q 469 213 469 100 z "},"":{"ha":926,"x_min":72,"x_max":826,"o":"m 713 1256 q 696 1286 713 1269 q 657 1304 675 1304 q 611 1282 633 1304 q 556 1228 583 1256 q 501 1174 529 1201 q 449 1118 475 1146 q 396 1063 422 1090 l 465 1063 l 681 1210 q 713 1256 713 1232 m 826 -8 l 826 275 l 786 275 q 674 68 746 122 q 518 14 600 14 q 336 97 396 14 q 276 338 276 179 l 276 590 q 335 831 276 744 q 510 914 390 914 q 668 863 592 914 q 774 667 744 813 l 814 667 l 814 935 l 782 935 l 728 876 q 638 928 693 906 q 515 949 585 949 q 201 804 333 949 q 72 460 72 660 q 203 124 72 267 q 503 -21 332 -21 q 631 -1 568 -21 q 739 57 689 17 l 796 -8 l 826 -8 z "},"":{"ha":617,"x_min":54,"x_max":564,"o":"m 564 246 l 529 244 q 471 89 521 169 q 343 7 422 7 q 243 72 271 7 q 217 263 217 135 l 217 450 q 246 639 217 568 q 275 685 256 668 l 289 685 l 322 708 l 333 708 q 401 696 368 708 q 439 664 435 686 q 417 631 439 649 q 394 581 394 614 q 472 515 403 515 q 550 590 543 515 q 485 699 550 663 q 363 736 431 732 l 504 832 q 536 878 536 854 q 519 908 536 892 q 481 926 499 926 q 435 904 457 926 q 380 851 407 878 q 325 796 353 824 q 290 758 307 776 q 254 721 272 739 q 136 628 185 693 q 54 357 54 518 q 131 89 54 199 q 319 -21 207 -21 q 476 44 411 -21 q 564 246 542 111 z "},"":{"ha":926,"x_min":72,"x_max":826,"o":"m 732 1278 l 672 1278 l 513 1133 l 351 1278 l 292 1278 l 465 1043 l 560 1043 l 732 1278 m 826 -8 l 826 275 l 786 275 q 674 68 746 122 q 518 14 600 14 q 336 97 396 14 q 276 338 276 179 l 276 590 q 335 831 276 744 q 510 914 390 914 q 668 863 592 914 q 774 667 744 813 l 814 667 l 814 935 l 782 935 l 728 876 q 638 928 693 906 q 515 949 585 949 q 201 804 333 949 q 72 460 72 660 q 203 124 72 267 q 503 -21 332 -21 q 631 -1 568 -21 q 739 57 689 17 l 796 -8 l 826 -8 z "},"":{"ha":617,"x_min":54,"x_max":564,"o":"m 564 246 l 529 244 q 471 89 521 169 q 343 7 422 7 q 243 72 271 7 q 217 263 217 135 l 217 450 q 246 639 217 568 q 275 685 256 668 l 289 665 l 383 665 l 406 694 q 439 664 435 685 q 417 631 439 649 q 394 581 394 614 q 472 515 403 515 q 550 590 543 515 q 485 699 550 663 q 426 724 457 715 l 556 900 l 496 900 l 336 756 l 175 900 l 115 900 l 250 718 q 136 628 188 693 q 54 357 54 518 q 131 89 54 199 q 319 -21 207 -21 q 476 44 411 -21 q 564 246 542 111 z "},"":{"ha":786,"x_min":56,"x_max":744,"o":"m 744 0 l 744 35 l 643 35 l 643 694 l 744 694 l 744 746 l 643 746 l 643 949 q 572 938 603 942 q 518 931 540 933 q 465 928 496 929 q 393 928 433 928 l 393 893 l 493 893 l 493 746 l 347 746 l 347 735 q 328 736 340 736 q 138 622 218 736 q 56 357 56 508 q 128 88 56 197 q 308 -21 200 -21 q 410 4 361 -21 q 494 96 460 31 l 494 -11 q 536 -6 510 -8 q 601 -3 563 -3 q 675 0 640 0 q 744 0 711 0 m 493 619 q 443 694 472 667 l 493 694 l 493 619 m 494 276 q 442 89 494 171 q 325 7 392 7 q 249 69 275 7 q 222 231 222 131 l 222 485 q 247 647 222 585 q 322 708 272 708 q 335 708 329 708 q 347 706 340 707 l 347 694 l 376 694 q 444 622 417 672 q 494 407 494 539 l 494 276 z "},"":{"ha":463,"x_min":44,"x_max":421,"o":"m 421 243 l 421 317 l 44 317 l 44 243 l 421 243 z "},"":{"ha":926,"x_min":4,"x_max":922,"o":"m 678 1050 l 678 1132 l 239 1132 l 239 1050 l 678 1050 m 922 0 l 922 35 l 813 35 l 496 949 l 447 949 l 115 35 l 4 35 l 4 0 l 299 0 l 299 35 l 157 35 l 243 281 l 544 281 l 626 35 l 483 35 l 483 0 l 922 0 m 528 315 l 258 315 l 399 703 l 528 315 z "},"":{"ha":694,"x_min":69,"x_max":657,"o":"m 657 53 l 640 72 q 631 65 638 69 q 618 53 625 60 q 592 40 603 40 q 567 49 576 40 q 558 68 558 54 l 558 565 q 514 672 558 628 l 568 672 l 568 754 l 129 754 l 129 672 l 143 672 q 108 592 107 636 q 176 529 110 529 q 247 589 242 529 q 235 642 247 618 q 224 667 224 664 q 225 672 224 671 l 399 672 q 417 622 417 653 l 417 396 q 381 396 399 396 q 346 394 364 396 q 311 392 328 393 q 279 388 294 390 q 128 311 186 371 q 69 156 69 253 q 107 28 69 79 q 213 -22 144 -22 q 318 1 264 -22 q 417 76 368 24 q 449 7 421 38 q 526 -21 474 -21 q 601 0 572 -21 q 657 53 631 22 m 417 246 q 385 107 417 168 q 303 47 354 47 q 236 90 257 47 q 215 199 215 133 q 242 306 215 267 q 314 357 267 344 q 350 361 335 361 q 374 357 363 361 q 417 332 396 347 l 417 246 z "},"":{"ha":926,"x_min":4,"x_max":922,"o":"m 664 1278 l 614 1278 q 557 1176 594 1203 q 460 1150 518 1150 q 363 1176 401 1150 q 306 1278 325 1203 l 256 1278 q 319 1110 261 1160 q 460 1060 378 1060 q 600 1110 542 1060 q 664 1278 658 1160 m 922 0 l 922 35 l 813 35 l 496 949 l 447 949 l 115 35 l 4 35 l 4 0 l 299 0 l 299 35 l 157 35 l 243 281 l 544 281 l 626 35 l 483 35 l 483 0 l 922 0 m 528 315 l 258 315 l 399 703 l 528 315 z "},"":{"ha":694,"x_min":69,"x_max":657,"o":"m 657 53 l 640 72 q 631 65 638 69 q 618 53 625 60 q 592 40 603 40 q 567 49 576 40 q 558 68 558 54 l 558 565 q 494 689 558 642 q 478 700 486 694 q 460 710 469 706 q 475 720 467 715 q 490 732 483 725 q 554 900 549 782 l 504 900 q 447 799 485 825 q 350 772 408 772 q 253 799 292 772 q 196 900 215 825 l 146 900 q 210 732 151 782 q 224 721 215 726 q 169 694 192 710 q 108 592 107 651 q 176 529 110 529 q 247 589 242 529 q 235 642 247 618 q 224 667 224 664 q 256 694 224 679 l 264 699 q 350 682 303 682 q 368 683 360 682 q 386 685 376 683 l 386 683 q 417 622 417 658 l 417 396 q 381 396 399 396 q 346 394 364 396 q 311 392 328 393 q 279 388 294 390 q 128 311 186 371 q 69 156 69 253 q 107 28 69 79 q 213 -22 144 -22 q 318 1 264 -22 q 417 76 368 24 q 449 7 421 38 q 526 -21 474 -21 q 601 0 572 -21 q 657 53 631 22 m 417 246 q 385 107 417 168 q 303 47 354 47 q 236 90 257 47 q 215 199 215 133 q 242 306 215 267 q 314 357 267 344 q 350 361 335 361 q 374 357 363 361 q 417 332 396 347 l 417 246 z "},"":{"ha":926,"x_min":4,"x_max":922,"o":"m 922 0 l 922 35 l 813 35 l 496 949 l 447 949 l 115 35 l 4 35 l 4 0 l 299 0 l 299 35 l 157 35 l 243 281 l 544 281 l 626 35 l 483 35 l 483 0 l 722 0 q 665 -40 689 -17 q 636 -108 636 -69 q 672 -167 636 -146 q 760 -187 707 -187 q 825 -175 789 -187 q 876 -153 860 -165 l 858 -108 q 818 -126 836 -121 q 785 -131 803 -131 q 738 -117 757 -131 q 717 -76 717 -104 q 731 -32 717 -54 q 761 0 740 -14 l 922 0 m 528 315 l 258 315 l 399 703 l 528 315 z "},"":{"ha":694,"x_min":69,"x_max":661,"o":"m 661 -153 l 643 -108 q 603 -126 621 -121 q 569 -131 588 -131 q 522 -117 542 -131 q 501 -76 501 -104 q 515 -32 501 -54 q 519 -26 518 -29 q 522 -21 519 -24 l 526 -21 q 601 0 572 -21 q 657 53 631 22 l 640 72 q 631 65 638 69 q 618 53 625 60 q 592 40 603 40 q 567 49 576 40 q 558 68 558 54 l 558 565 q 494 689 558 642 q 333 736 428 736 q 169 694 232 736 q 108 592 107 651 q 176 529 110 529 q 247 589 242 529 q 235 642 247 618 q 224 667 224 664 q 256 694 224 679 q 324 708 285 708 q 388 683 356 708 q 417 622 417 658 l 417 396 q 381 396 399 396 q 346 394 364 396 q 311 392 328 393 q 279 388 294 390 q 128 311 186 371 q 69 156 69 253 q 107 28 69 79 q 213 -22 144 -22 q 318 1 264 -22 q 417 76 368 24 q 449 7 421 38 q 482 -14 461 -8 q 465 -27 474 -21 q 450 -40 457 -33 q 421 -108 421 -69 q 457 -167 421 -146 q 544 -187 492 -187 q 610 -175 574 -187 q 661 -153 644 -165 m 417 246 q 385 107 417 168 q 303 47 354 47 q 236 90 257 47 q 215 199 215 133 q 242 306 215 267 q 314 357 267 344 q 350 361 335 361 q 374 357 363 361 q 417 332 396 347 l 417 246 z "},"":{"ha":1003,"x_min":36,"x_max":933,"o":"m 654 1278 l 594 1278 l 435 1133 l 274 1278 l 214 1278 l 388 1043 l 482 1043 l 654 1278 m 933 463 q 807 796 933 665 q 457 928 682 928 l 36 928 l 36 893 l 174 893 l 174 35 l 36 35 l 36 0 l 440 0 q 814 135 696 0 q 933 463 933 269 m 743 490 q 682 140 743 247 q 444 35 622 35 l 350 35 l 350 893 l 413 893 q 683 811 621 893 q 743 490 743 728 z "},"":{"ha":972,"x_min":57,"x_max":951,"o":"m 951 789 q 913 910 951 871 q 815 949 874 949 q 744 925 776 949 q 714 860 714 903 q 781 769 714 775 l 794 769 q 861 810 849 769 q 889 842 869 842 q 910 785 910 842 q 869 678 910 735 q 828 628 850 650 q 785 590 807 606 q 776 579 776 583 q 782 569 776 574 q 796 565 789 563 q 808 569 801 565 q 910 669 868 603 q 951 789 951 736 m 742 0 l 742 35 l 640 35 l 640 949 q 569 938 600 942 q 515 931 538 933 q 462 928 493 929 q 390 928 431 928 l 390 893 l 490 893 l 490 619 q 415 713 461 688 q 326 736 371 736 q 138 622 218 736 q 57 357 57 511 q 128 88 57 197 q 307 -21 199 -21 q 408 4 358 -21 q 492 96 457 31 l 492 -11 q 533 -6 507 -8 q 599 -3 560 -3 q 672 0 638 0 q 742 0 708 0 m 492 276 q 439 89 492 171 q 324 7 389 7 q 249 69 275 7 q 224 231 224 132 l 224 485 q 249 647 224 585 q 321 708 272 708 q 442 622 393 708 q 492 407 492 539 l 492 276 z "},"":{"ha":1003,"x_min":33,"x_max":935,"o":"m 935 463 q 808 796 935 665 q 458 928 683 928 l 38 928 l 38 897 l 175 899 l 175 547 l 33 547 l 33 503 l 175 503 l 175 35 l 38 35 l 38 0 l 442 0 q 815 135 697 0 q 935 463 935 269 m 744 490 q 683 140 744 247 q 446 35 624 35 l 351 35 l 351 503 l 550 503 l 550 547 l 351 547 l 351 893 l 414 893 q 685 811 622 893 q 744 490 744 728 z "},"":{"ha":926,"x_min":49,"x_max":850,"o":"m 682 1050 l 682 1132 l 243 1132 l 243 1050 l 682 1050 m 850 299 l 810 299 q 736 100 789 165 q 549 35 683 35 l 363 35 l 363 460 l 400 460 q 540 404 506 460 q 574 276 574 350 l 613 276 l 613 664 l 574 664 q 539 544 574 596 q 400 494 506 494 l 363 494 l 363 893 l 522 893 q 696 851 638 893 q 785 678 754 811 l 824 678 l 814 928 l 49 928 l 49 893 l 186 893 l 186 35 l 49 35 l 49 0 l 838 0 l 850 299 z "},"":{"ha":617,"x_min":44,"x_max":572,"o":"m 572 263 l 538 263 q 513 178 531 221 q 469 93 496 136 q 332 7 417 7 q 238 74 264 7 q 210 263 210 142 l 210 396 l 556 396 q 565 406 565 396 q 567 417 567 411 q 568 432 568 424 q 496 647 568 557 q 485 660 490 654 q 474 672 481 665 l 525 672 l 525 754 l 86 754 l 86 672 l 169 672 q 148 649 158 661 q 126 621 138 636 q 44 344 44 506 q 125 89 44 199 q 310 -21 206 -21 q 474 49 401 -21 q 572 263 543 118 m 414 526 l 411 431 l 210 431 l 210 456 q 231 644 210 579 q 243 672 235 658 l 382 672 q 385 666 385 669 q 389 660 386 663 q 414 526 415 608 z "},"":{"ha":926,"x_min":49,"x_max":850,"o":"m 539 1121 q 517 1172 539 1150 q 465 1193 496 1193 q 413 1171 435 1193 q 392 1121 392 1150 q 414 1069 392 1092 q 465 1049 435 1049 q 518 1071 496 1049 q 539 1121 539 1092 m 850 299 l 810 299 q 736 100 789 165 q 549 35 683 35 l 363 35 l 363 460 l 400 460 q 540 404 506 460 q 574 276 574 350 l 613 276 l 613 664 l 574 664 q 539 544 574 596 q 400 494 506 494 l 363 494 l 363 893 l 522 893 q 696 851 638 893 q 785 678 754 811 l 824 678 l 814 928 l 49 928 l 49 893 l 186 893 l 186 35 l 49 35 l 49 0 l 838 0 l 850 299 z "},"":{"ha":617,"x_min":44,"x_max":572,"o":"m 572 263 l 538 263 q 513 178 531 221 q 469 93 496 136 q 332 7 417 7 q 238 74 264 7 q 210 263 210 142 l 210 396 l 556 396 q 565 406 565 396 q 567 417 567 411 q 568 432 568 424 q 496 647 568 557 q 381 728 444 711 q 382 743 382 733 q 360 794 382 772 q 308 815 339 815 q 256 793 278 815 q 235 743 235 772 q 239 719 235 729 q 126 621 175 690 q 44 344 44 507 q 125 89 44 199 q 310 -21 206 -21 q 474 49 401 -21 q 572 263 543 118 m 414 526 l 411 431 l 210 431 l 210 456 q 231 644 210 579 q 258 690 239 672 q 308 671 281 671 q 361 693 339 671 q 389 660 378 683 q 414 526 415 608 z "},"":{"ha":926,"x_min":49,"x_max":868,"o":"m 868 -153 l 850 -108 q 810 -126 828 -121 q 776 -131 794 -131 q 729 -117 749 -131 q 708 -76 708 -104 q 722 -32 708 -54 q 753 0 732 -14 l 838 0 l 850 299 l 810 299 q 736 100 789 165 q 549 35 683 35 l 363 35 l 363 460 l 400 460 q 540 404 506 460 q 574 276 574 350 l 613 276 l 613 664 l 574 664 q 539 544 574 596 q 400 494 506 494 l 363 494 l 363 893 l 522 893 q 696 851 638 893 q 785 678 754 811 l 824 678 l 814 928 l 49 928 l 49 893 l 186 893 l 186 35 l 49 35 l 49 0 l 714 0 q 657 -40 681 -17 q 628 -108 628 -69 q 664 -167 628 -146 q 751 -187 699 -187 q 817 -175 781 -187 q 868 -153 851 -165 z "},"":{"ha":617,"x_min":44,"x_max":572,"o":"m 572 263 l 538 263 q 513 178 531 221 q 469 93 496 136 q 332 7 417 7 q 238 74 264 7 q 210 263 210 142 l 210 396 l 556 396 q 565 406 565 396 q 567 417 567 411 q 568 432 568 424 q 496 647 568 558 q 324 736 425 736 q 126 621 208 736 q 44 344 44 506 q 125 89 44 199 q 310 -21 206 -21 q 326 -20 318 -21 q 342 -18 335 -19 q 329 -28 335 -24 q 317 -40 324 -33 q 288 -108 288 -69 q 324 -167 288 -146 q 411 -187 358 -187 q 476 -175 440 -187 q 528 -153 511 -165 l 510 -108 q 469 -126 488 -121 q 436 -131 454 -131 q 389 -117 408 -131 q 368 -76 368 -104 q 382 -32 368 -54 q 421 6 397 -8 l 415 6 q 474 49 449 24 q 572 263 543 118 m 414 526 l 411 431 l 210 431 l 210 456 q 231 644 210 579 q 314 708 249 708 q 389 660 364 708 q 414 526 415 608 z "},"":{"ha":926,"x_min":49,"x_max":850,"o":"m 683 1278 l 624 1278 l 464 1133 l 303 1278 l 243 1278 l 417 1043 l 511 1043 l 683 1278 m 850 299 l 810 299 q 736 100 789 165 q 549 35 683 35 l 363 35 l 363 460 l 400 460 q 540 404 506 460 q 574 276 574 350 l 613 276 l 613 664 l 574 664 q 539 544 574 596 q 400 494 506 494 l 363 494 l 363 893 l 522 893 q 696 851 638 893 q 785 678 754 811 l 824 678 l 814 928 l 49 928 l 49 893 l 186 893 l 186 35 l 49 35 l 49 0 l 838 0 l 850 299 z "},"":{"ha":617,"x_min":44,"x_max":572,"o":"m 572 263 l 538 263 q 513 178 531 221 q 469 93 496 136 q 332 7 417 7 q 238 74 264 7 q 210 263 210 142 l 210 396 l 556 396 q 565 406 565 396 q 567 417 567 411 q 568 432 568 424 q 496 647 568 557 q 397 724 453 700 l 526 900 l 467 900 l 307 756 l 146 900 l 86 900 l 225 713 q 126 621 169 683 q 44 344 44 506 q 125 89 44 199 q 310 -21 206 -21 q 474 49 401 -21 q 572 263 543 118 m 414 526 l 411 431 l 210 431 l 210 456 q 231 644 210 579 q 249 681 238 668 l 260 665 l 354 665 l 369 686 q 389 660 382 674 q 414 526 415 608 z "},"":{"ha":1003,"x_min":72,"x_max":969,"o":"m 969 303 l 969 338 l 535 338 l 535 303 l 675 303 l 675 189 q 628 53 675 92 q 510 14 583 14 q 325 104 374 14 q 276 389 276 194 l 276 578 q 333 831 276 746 q 521 914 389 914 q 672 860 599 914 q 785 667 744 808 l 825 667 l 825 935 l 793 935 l 736 876 q 640 928 699 907 q 511 949 583 949 q 201 804 331 949 q 72 457 72 660 q 200 115 72 251 q 474 -19 311 -6 l 422 -137 l 444 -143 l 486 -136 q 529 -154 511 -136 q 546 -194 546 -171 q 522 -232 546 -217 q 464 -247 499 -247 q 411 -240 432 -247 q 381 -228 394 -235 l 364 -272 q 410 -292 385 -286 q 478 -299 440 -299 q 608 -269 560 -299 q 656 -185 656 -240 q 624 -110 656 -139 q 542 -82 592 -82 q 529 -82 535 -82 q 517 -83 524 -82 q 506 -86 511 -85 q 496 -90 501 -87 l 525 -21 q 768 64 671 -18 q 872 303 867 147 l 969 303 z "},"":{"ha":617,"x_min":50,"x_max":614,"o":"m 614 688 q 594 728 614 713 q 556 742 576 742 q 503 726 531 742 q 444 665 483 714 l 440 669 q 333 732 394 719 l 479 832 q 511 878 511 854 q 494 908 511 892 q 456 926 474 926 q 410 904 432 926 q 355 851 382 878 q 300 796 328 824 q 269 763 285 779 q 238 731 253 746 q 140 671 182 717 q 82 500 82 606 q 146 342 82 406 q 164 325 154 333 q 185 310 174 317 q 86 246 121 289 q 50 125 50 201 q 153 -39 50 -28 q 82 -89 104 -67 q 50 -176 50 -121 q 117 -282 50 -239 q 288 -325 182 -325 q 503 -253 414 -325 q 590 -58 590 -181 q 557 47 590 11 q 471 81 525 81 q 185 85 276 83 q 94 154 94 88 q 149 247 94 218 q 299 276 200 276 q 447 340 389 276 q 503 507 503 407 q 463 643 503 586 q 469 653 465 649 q 478 664 474 658 q 506 681 492 681 q 528 657 517 681 q 571 635 538 635 q 601 650 586 635 q 614 688 614 664 m 369 506 q 367 406 369 446 q 363 343 365 365 q 292 300 357 300 q 224 346 232 300 q 219 408 221 368 q 217 507 217 449 q 219 603 217 564 q 226 664 221 642 q 235 685 228 676 l 264 685 l 299 708 q 364 664 357 708 q 368 603 367 642 q 369 506 369 564 m 542 -104 q 463 -242 542 -192 q 293 -290 382 -290 q 176 -249 214 -290 q 140 -154 140 -208 q 154 -78 140 -107 q 211 -43 164 -54 q 318 -48 261 -46 q 442 -50 375 -50 q 518 -64 494 -50 q 542 -104 542 -76 z "},"":{"ha":540,"x_min":43,"x_max":496,"o":"m 489 1050 l 489 1132 l 50 1132 l 50 1050 l 489 1050 m 496 0 l 496 35 l 358 35 l 358 893 l 496 893 l 496 928 l 43 928 l 43 893 l 181 893 l 181 35 l 43 35 l 43 0 l 496 0 z "},"":{"ha":386,"x_min":-25,"x_max":414,"o":"m 414 672 l 414 754 l -25 754 l -25 672 l 118 672 l 118 35 l 14 35 l 14 0 l 369 0 l 369 35 l 268 35 l 268 672 l 414 672 z "},"":{"ha":540,"x_min":43,"x_max":496,"o":"m 496 0 l 496 35 l 358 35 l 358 893 l 496 893 l 496 928 l 43 928 l 43 893 l 181 893 l 181 35 l 43 35 l 43 0 l 313 0 q 256 -40 279 -17 q 226 -108 226 -69 q 263 -167 226 -146 q 350 -187 297 -187 q 415 -175 379 -187 q 467 -153 450 -165 l 449 -108 q 408 -126 426 -121 q 375 -131 393 -131 q 328 -117 347 -131 q 307 -76 307 -104 q 321 -32 307 -54 q 351 0 331 -14 l 496 0 z "},"":{"ha":386,"x_min":14,"x_max":369,"o":"m 272 986 q 249 1042 272 1018 q 193 1065 225 1065 q 138 1042 161 1065 q 114 985 114 1018 q 138 929 114 953 q 193 906 161 906 q 249 929 225 906 q 272 986 272 953 m 369 0 l 369 35 l 268 35 l 268 735 l 18 728 l 18 693 l 118 693 l 118 35 l 14 35 l 14 0 l 164 0 q 107 -40 131 -17 q 78 -108 78 -69 q 114 -167 78 -146 q 201 -187 149 -187 q 267 -175 231 -187 q 318 -153 301 -165 l 300 -108 q 260 -126 278 -121 q 226 -131 244 -131 q 179 -117 199 -131 q 158 -76 158 -104 q 172 -32 158 -54 q 203 0 182 -14 l 369 0 z "},"":{"ha":1003,"x_min":32,"x_max":1006,"o":"m 1006 0 l 1006 35 l 943 35 l 500 575 l 803 893 l 939 893 l 939 928 l 590 928 l 590 893 l 749 893 l 361 481 l 719 35 l 575 35 l 575 0 l 1006 0 m 483 0 l 483 35 l 346 35 l 346 481 l 346 893 l 483 893 l 483 928 l 32 928 l 32 893 l 169 893 l 169 35 l 32 35 l 32 0 l 240 0 l 181 -137 l 203 -143 l 244 -136 q 288 -154 269 -136 q 304 -194 304 -171 q 281 -232 304 -217 q 222 -247 257 -247 q 169 -240 190 -247 q 139 -228 153 -235 l 122 -272 q 168 -292 143 -286 q 236 -299 199 -299 q 367 -269 318 -299 q 414 -185 414 -240 q 382 -110 414 -139 q 300 -82 350 -82 q 288 -82 293 -82 q 275 -83 282 -82 q 265 -86 269 -85 q 254 -90 260 -87 l 292 0 l 483 0 z "},"":{"ha":772,"x_min":31,"x_max":739,"o":"m 739 0 l 739 35 l 685 35 l 425 458 l 578 693 l 700 693 l 700 728 l 401 728 l 401 693 l 517 693 l 299 396 l 510 35 l 431 35 l 431 0 l 739 0 m 379 -185 q 347 -110 379 -139 q 265 -82 315 -82 q 253 -82 258 -82 q 240 -83 247 -82 q 230 -86 235 -85 q 219 -90 225 -87 l 257 0 l 367 0 l 367 35 l 281 35 l 281 396 l 281 949 q 209 938 240 942 q 156 931 178 933 q 102 928 133 929 q 31 928 71 928 l 31 893 l 131 893 l 131 35 l 42 35 l 42 0 l 206 0 l 146 -137 l 168 -143 l 210 -136 q 253 -154 235 -136 q 269 -194 269 -171 q 246 -232 269 -217 q 188 -247 222 -247 q 135 -240 156 -247 q 104 -228 118 -235 l 88 -272 q 133 -292 108 -286 q 201 -299 164 -299 q 332 -269 283 -299 q 379 -185 379 -240 z "},"":{"ha":849,"x_min":32,"x_max":817,"o":"m 451 1256 q 435 1286 451 1269 q 396 1304 414 1304 q 350 1282 372 1304 q 295 1228 322 1256 q 240 1174 268 1201 q 188 1118 214 1146 q 135 1063 161 1090 l 204 1063 l 419 1210 q 451 1256 451 1232 m 817 313 l 774 313 q 710 108 769 181 q 525 35 651 35 l 346 35 l 346 893 l 490 893 l 490 928 l 32 928 l 32 893 l 169 893 l 169 35 l 32 35 l 32 0 l 801 0 l 817 313 z "},"":{"ha":386,"x_min":15,"x_max":371,"o":"m 344 1186 q 328 1217 344 1200 q 289 1235 307 1235 q 243 1213 265 1235 q 188 1159 215 1186 q 133 1104 161 1132 q 81 1049 107 1076 q 28 993 54 1021 l 97 993 l 313 1140 q 344 1186 344 1163 m 371 0 l 371 35 l 269 35 l 269 949 q 198 938 229 942 q 144 931 167 933 q 91 928 122 929 q 19 928 60 928 l 19 893 l 119 893 l 119 35 l 15 35 l 15 0 l 371 0 z "},"":{"ha":849,"x_min":32,"x_max":817,"o":"m 817 313 l 774 313 q 710 108 769 181 q 525 35 651 35 l 346 35 l 346 893 l 490 893 l 490 928 l 32 928 l 32 893 l 169 893 l 169 35 l 32 35 l 32 0 l 379 0 l 319 -137 l 342 -143 l 383 -136 q 426 -154 408 -136 q 443 -194 443 -171 q 419 -232 443 -217 q 361 -247 396 -247 q 308 -240 329 -247 q 278 -228 292 -235 l 261 -272 q 307 -292 282 -286 q 375 -299 338 -299 q 506 -269 457 -299 q 553 -185 553 -240 q 521 -110 553 -139 q 439 -82 489 -82 q 426 -82 432 -82 q 414 -83 421 -82 q 403 -86 408 -85 q 393 -90 399 -87 l 431 0 l 801 0 l 817 313 z "},"":{"ha":386,"x_min":15,"x_max":371,"o":"m 371 0 l 371 35 l 269 35 l 269 949 q 198 938 229 942 q 144 931 167 933 q 91 928 122 929 q 19 928 60 928 l 19 893 l 119 893 l 119 35 l 15 35 l 15 0 l 179 0 l 119 -137 l 142 -143 l 183 -136 q 226 -154 208 -136 q 243 -194 243 -171 q 219 -232 243 -217 q 161 -247 196 -247 q 108 -240 129 -247 q 78 -228 92 -235 l 61 -272 q 107 -292 82 -286 q 175 -299 138 -299 q 306 -269 257 -299 q 353 -185 353 -240 q 321 -110 353 -139 q 239 -82 289 -82 q 226 -82 232 -82 q 214 -83 221 -82 q 203 -86 208 -85 q 193 -90 199 -87 l 231 0 l 371 0 z "},"":{"ha":849,"x_min":32,"x_max":817,"o":"m 782 789 q 743 910 782 871 q 646 949 704 949 q 575 925 607 949 q 544 860 544 903 q 611 769 544 775 l 625 769 q 692 810 679 769 q 719 842 700 842 q 740 785 740 842 q 700 678 740 735 q 659 628 681 650 q 615 590 638 606 q 607 579 607 583 q 613 569 607 574 q 626 565 619 563 q 639 569 632 565 q 740 669 699 603 q 782 789 782 736 m 817 313 l 774 313 q 710 108 769 181 q 525 35 651 35 l 346 35 l 346 893 l 490 893 l 490 928 l 32 928 l 32 893 l 169 893 l 169 35 l 32 35 l 32 0 l 801 0 l 817 313 z "},"":{"ha":611,"x_min":15,"x_max":586,"o":"m 586 789 q 547 910 586 871 q 450 949 508 949 q 379 925 411 949 q 349 860 349 903 q 415 769 349 775 l 429 769 q 496 810 483 769 q 524 842 504 842 q 544 785 544 842 q 504 678 544 735 q 463 628 485 650 q 419 590 442 606 q 411 579 411 583 q 417 569 411 574 q 431 565 424 563 q 443 569 436 565 q 544 669 503 603 q 586 789 586 736 m 371 0 l 371 35 l 269 35 l 269 949 q 198 938 229 942 q 144 931 167 933 q 91 928 122 929 q 19 928 60 928 l 19 893 l 119 893 l 119 35 l 15 35 l 15 0 l 371 0 z "},"":{"ha":849,"x_min":32,"x_max":817,"o":"m 753 483 q 731 535 753 513 q 679 556 710 556 q 626 533 649 556 q 606 483 606 513 q 628 432 606 454 q 679 411 649 411 q 732 433 710 411 q 753 483 753 454 m 817 313 l 774 313 q 710 108 769 181 q 525 35 651 35 l 346 35 l 346 893 l 490 893 l 490 928 l 32 928 l 32 893 l 169 893 l 169 35 l 32 35 l 32 0 l 801 0 l 817 313 z "},"":{"ha":472,"x_min":15,"x_max":493,"o":"m 493 483 q 471 535 493 513 q 419 556 450 556 q 367 533 389 556 q 346 483 346 513 q 368 432 346 454 q 419 411 389 411 q 472 433 450 411 q 493 483 493 454 m 371 0 l 371 35 l 269 35 l 269 949 q 198 938 229 942 q 144 931 167 933 q 91 928 122 929 q 19 928 60 928 l 19 893 l 119 893 l 119 35 l 15 35 l 15 0 l 371 0 z "},"":{"ha":1003,"x_min":26,"x_max":975,"o":"m 697 1256 q 681 1286 697 1269 q 642 1304 660 1304 q 596 1282 618 1304 q 541 1228 568 1256 q 486 1174 514 1201 q 433 1118 460 1146 q 381 1063 407 1090 l 450 1063 l 665 1210 q 697 1256 697 1232 m 975 893 l 975 928 l 660 928 l 660 893 l 793 893 l 793 321 l 382 928 l 26 928 l 26 893 l 163 893 l 163 35 l 26 35 l 26 0 l 343 0 l 343 35 l 207 35 l 207 867 l 796 -18 l 838 -18 l 838 893 l 975 893 z "},"":{"ha":772,"x_min":32,"x_max":740,"o":"m 740 0 l 740 35 l 651 35 l 651 457 q 613 665 651 596 q 481 736 572 736 q 383 715 431 736 l 554 832 q 586 878 586 854 q 569 908 586 892 q 531 926 549 926 q 485 904 507 926 q 430 851 457 878 q 375 796 403 824 q 324 742 350 768 q 274 689 299 715 l 274 735 l 32 728 l 32 693 l 126 693 l 126 35 l 32 35 l 32 0 l 361 0 l 361 35 l 274 35 l 274 357 q 322 601 274 515 q 429 686 369 686 q 492 628 476 686 q 502 558 499 600 q 506 463 506 517 l 506 35 l 418 35 l 418 0 l 740 0 m 335 685 q 274 603 299 656 l 274 685 l 335 685 z "},"":{"ha":1003,"x_min":26,"x_max":975,"o":"m 975 893 l 975 928 l 660 928 l 660 893 l 793 893 l 793 321 l 382 928 l 26 928 l 26 893 l 163 893 l 163 35 l 26 35 l 26 0 l 164 0 l 104 -137 l 126 -143 l 168 -136 q 211 -154 193 -136 q 228 -194 228 -171 q 204 -232 228 -217 q 146 -247 181 -247 q 93 -240 114 -247 q 63 -228 76 -235 l 46 -272 q 92 -292 67 -286 q 160 -299 122 -299 q 290 -269 242 -299 q 338 -185 338 -240 q 306 -110 338 -139 q 224 -82 274 -82 q 211 -82 217 -82 q 199 -83 206 -82 q 188 -86 193 -85 q 178 -90 183 -87 l 215 0 l 343 0 l 343 35 l 207 35 l 207 867 l 796 -18 l 838 -18 l 838 893 l 975 893 z "},"":{"ha":772,"x_min":32,"x_max":740,"o":"m 740 0 l 740 35 l 651 35 l 651 457 q 613 665 651 596 q 481 736 572 736 q 365 706 421 736 q 274 603 310 676 l 274 735 l 32 728 l 32 693 l 126 693 l 126 35 l 32 35 l 32 0 l 179 0 l 119 -137 l 142 -143 l 183 -136 q 226 -154 208 -136 q 243 -194 243 -171 q 219 -232 243 -217 q 161 -247 196 -247 q 108 -240 129 -247 q 78 -228 92 -235 l 61 -272 q 107 -292 82 -286 q 175 -299 138 -299 q 306 -269 257 -299 q 353 -185 353 -240 q 321 -110 353 -139 q 239 -82 289 -82 q 226 -82 232 -82 q 214 -83 221 -82 q 203 -86 208 -85 q 193 -90 199 -87 l 231 0 l 361 0 l 361 35 l 274 35 l 274 357 q 322 601 274 515 q 429 686 369 686 q 492 628 476 686 q 502 558 499 600 q 506 463 506 517 l 506 35 l 418 35 l 418 0 l 740 0 z "},"":{"ha":1003,"x_min":26,"x_max":975,"o":"m 717 1278 l 657 1278 l 497 1133 l 336 1278 l 276 1278 l 450 1043 l 544 1043 l 717 1278 m 975 893 l 975 928 l 660 928 l 660 893 l 793 893 l 793 321 l 382 928 l 26 928 l 26 893 l 163 893 l 163 35 l 26 35 l 26 0 l 343 0 l 343 35 l 207 35 l 207 867 l 796 -18 l 838 -18 l 838 893 l 975 893 z "},"":{"ha":772,"x_min":32,"x_max":740,"o":"m 740 0 l 740 35 l 651 35 l 651 457 q 613 665 651 596 q 485 736 575 733 l 606 900 l 546 900 l 386 756 l 225 900 l 165 900 l 328 679 q 274 603 296 650 l 274 735 l 32 728 l 32 693 l 126 693 l 126 35 l 32 35 l 32 0 l 361 0 l 361 35 l 274 35 l 274 357 q 322 601 274 513 q 347 638 335 622 q 374 665 360 654 l 433 665 l 447 683 q 492 628 479 675 q 506 463 506 574 l 506 35 l 418 35 l 418 0 l 740 0 z "},"":{"ha":1003,"x_min":68,"x_max":933,"o":"m 718 1050 l 718 1132 l 279 1132 l 279 1050 l 718 1050 m 933 464 q 803 804 933 660 q 500 949 671 949 q 197 803 328 949 q 68 464 68 658 q 199 124 68 268 q 500 -21 328 -21 q 803 125 671 -21 q 933 464 933 268 m 729 299 q 672 86 729 160 q 500 14 617 14 q 328 86 383 14 q 272 299 272 158 l 272 629 q 328 842 272 769 q 500 914 383 914 q 674 842 615 914 q 729 629 729 767 l 729 299 z "},"":{"ha":694,"x_min":54,"x_max":639,"o":"m 639 357 q 550 624 639 510 q 506 672 529 651 l 567 672 l 567 754 l 128 754 l 128 672 l 188 672 q 142 622 164 651 q 54 357 54 510 q 143 92 54 206 q 346 -21 231 -21 q 551 93 463 -21 q 639 357 639 206 m 472 267 q 446 72 472 138 q 346 7 418 7 q 247 74 274 7 q 221 267 221 136 l 221 449 q 247 643 221 578 q 264 672 253 660 l 429 672 q 446 642 440 660 q 472 449 472 579 l 472 267 z "},"":{"ha":1003,"x_min":68,"x_max":933,"o":"m 792 1254 q 775 1288 792 1271 q 739 1306 758 1306 q 701 1292 719 1306 q 611 1206 674 1272 q 545 1138 579 1174 q 474 1063 511 1101 l 546 1063 l 772 1218 q 792 1254 792 1238 m 578 1254 q 563 1288 578 1269 q 526 1306 546 1306 q 488 1292 507 1306 q 452 1260 474 1282 q 399 1206 431 1239 q 333 1138 367 1174 q 261 1063 299 1101 l 333 1063 l 558 1218 q 578 1254 578 1238 m 933 464 q 803 804 933 660 q 500 949 671 949 q 197 803 328 949 q 68 464 68 658 q 199 124 68 268 q 500 -21 328 -21 q 803 125 671 -21 q 933 464 933 268 m 729 299 q 672 86 729 160 q 500 14 617 14 q 328 86 383 14 q 272 299 272 158 l 272 629 q 328 842 272 769 q 500 914 383 914 q 674 842 615 914 q 729 629 729 767 l 729 299 z "},"":{"ha":694,"x_min":54,"x_max":640,"o":"m 426 876 q 411 910 426 892 q 375 928 394 928 q 336 914 356 928 q 301 883 322 904 q 247 828 279 861 q 181 760 215 796 q 110 685 147 724 l 182 685 l 407 840 q 426 876 426 860 m 640 876 q 624 910 640 893 q 588 928 607 928 q 550 914 568 928 q 460 828 522 894 q 417 783 439 806 q 371 735 394 760 q 358 736 364 736 q 346 736 353 736 q 142 622 231 736 q 54 357 54 510 q 143 92 54 206 q 346 -21 231 -21 q 551 93 463 -21 q 639 357 639 206 q 550 624 639 510 q 440 715 501 688 l 621 840 q 640 876 640 860 m 472 267 q 446 72 472 138 q 346 7 418 7 q 247 74 274 7 q 221 267 221 136 l 221 449 q 247 643 221 578 q 344 708 275 708 l 322 685 l 394 685 l 406 693 q 446 642 431 678 q 472 449 472 579 l 472 267 z "},"":{"ha":1003,"x_min":63,"x_max":968,"o":"m 674 1256 q 657 1286 674 1269 q 618 1304 636 1304 q 572 1282 594 1304 q 517 1228 544 1256 q 463 1174 490 1201 q 410 1118 436 1146 q 357 1063 383 1090 l 426 1063 l 642 1210 q 674 1256 674 1232 m 968 0 l 968 32 q 910 28 932 28 q 865 35 878 28 q 832 79 840 47 l 831 147 q 819 264 829 210 q 785 364 808 318 q 565 490 739 454 q 786 569 713 513 q 858 717 858 625 q 781 878 858 829 q 551 928 706 928 l 63 928 l 63 893 l 200 893 l 200 35 l 63 35 l 63 0 l 514 0 l 514 35 l 376 35 l 376 478 l 449 478 q 594 404 550 478 q 624 317 615 368 q 636 199 632 265 l 640 139 q 742 3 661 40 q 843 -17 785 -17 q 968 0 899 -17 m 668 701 q 626 558 668 604 q 494 513 585 513 l 376 513 l 376 893 l 513 893 q 635 847 599 893 q 668 701 668 803 z "},"":{"ha":617,"x_min":42,"x_max":590,"o":"m 590 643 q 561 710 590 682 q 482 736 533 736 q 372 699 422 736 q 281 581 325 664 l 281 696 l 479 832 q 511 878 511 854 q 494 908 511 892 q 456 926 474 926 q 410 904 432 926 q 355 851 382 878 q 300 796 328 824 l 242 733 l 42 728 l 42 693 l 133 693 l 133 35 l 51 35 l 51 0 l 408 0 l 408 35 l 283 35 l 283 314 q 329 572 283 460 q 429 683 375 683 q 433 683 432 683 q 438 682 435 682 q 440 675 440 679 l 435 629 q 507 568 439 568 l 513 568 q 590 643 588 568 z "},"":{"ha":1003,"x_min":63,"x_max":968,"o":"m 968 0 l 968 32 q 910 28 932 28 q 865 35 878 28 q 832 79 840 47 l 831 147 q 819 264 829 210 q 785 364 808 318 q 565 490 739 454 q 786 569 713 513 q 858 717 858 625 q 781 878 858 829 q 551 928 706 928 l 63 928 l 63 893 l 200 893 l 200 35 l 63 35 l 63 0 l 272 0 l 213 -137 l 235 -143 l 276 -136 q 319 -154 301 -136 q 336 -194 336 -171 q 313 -232 336 -217 q 254 -247 289 -247 q 201 -240 222 -247 q 171 -228 185 -235 l 154 -272 q 200 -292 175 -286 q 268 -299 231 -299 q 399 -269 350 -299 q 446 -185 446 -240 q 414 -110 446 -139 q 332 -82 382 -82 q 319 -82 325 -82 q 307 -83 314 -82 q 297 -86 301 -85 q 286 -90 292 -87 l 324 0 l 514 0 l 514 35 l 376 35 l 376 478 l 449 478 q 594 404 550 478 q 624 317 615 368 q 636 199 632 265 l 640 139 q 742 3 661 40 q 843 -17 785 -17 q 968 0 899 -17 m 668 701 q 626 558 668 604 q 494 513 585 513 l 376 513 l 376 893 l 513 893 q 635 847 599 893 q 668 701 668 803 z "},"":{"ha":617,"x_min":42,"x_max":590,"o":"m 590 643 q 561 710 590 682 q 482 736 533 736 q 372 699 422 736 q 281 581 325 664 l 281 735 l 42 728 l 42 693 l 133 693 l 133 35 l 51 35 l 51 0 l 206 0 l 146 -137 l 168 -143 l 210 -136 q 253 -154 235 -136 q 269 -194 269 -171 q 246 -232 269 -217 q 188 -247 222 -247 q 135 -240 156 -247 q 104 -228 118 -235 l 88 -272 q 133 -292 108 -286 q 201 -299 164 -299 q 332 -269 283 -299 q 379 -185 379 -240 q 347 -110 379 -139 q 265 -82 315 -82 q 253 -82 258 -82 q 240 -83 247 -82 q 230 -86 235 -85 q 219 -90 225 -87 l 257 0 l 408 0 l 408 35 l 283 35 l 283 314 q 329 572 283 460 q 429 683 375 683 q 433 683 432 683 q 438 682 435 682 q 440 675 440 679 l 435 629 q 507 568 439 568 l 513 568 q 590 643 588 568 z "},"":{"ha":1003,"x_min":63,"x_max":968,"o":"m 693 1278 l 633 1278 l 474 1133 l 313 1278 l 253 1278 l 426 1043 l 521 1043 l 693 1278 m 968 0 l 968 32 q 910 28 932 28 q 865 35 878 28 q 832 79 840 47 l 831 147 q 819 264 829 210 q 785 364 808 318 q 565 490 739 454 q 786 569 713 513 q 858 717 858 625 q 781 878 858 829 q 551 928 706 928 l 63 928 l 63 893 l 200 893 l 200 35 l 63 35 l 63 0 l 514 0 l 514 35 l 376 35 l 376 478 l 449 478 q 594 404 550 478 q 624 317 615 368 q 636 199 632 265 l 640 139 q 742 3 661 40 q 843 -17 785 -17 q 968 0 899 -17 m 668 701 q 626 558 668 604 q 494 513 585 513 l 376 513 l 376 893 l 513 893 q 635 847 599 893 q 668 701 668 803 z "},"":{"ha":617,"x_min":42,"x_max":590,"o":"m 590 643 q 561 710 590 682 q 482 736 533 736 q 393 713 436 736 l 531 900 l 471 900 l 311 756 l 150 900 l 90 900 l 214 733 l 42 728 l 42 693 l 133 693 l 133 35 l 51 35 l 51 0 l 408 0 l 408 35 l 283 35 l 283 314 q 329 572 283 460 q 429 683 375 683 q 433 683 432 683 q 438 682 435 682 q 440 675 440 679 l 435 629 q 507 568 439 568 l 513 568 q 590 643 588 568 m 336 665 q 281 581 308 633 l 281 665 l 336 665 z "},"":{"ha":772,"x_min":96,"x_max":675,"o":"m 588 1256 q 571 1286 588 1269 q 532 1304 550 1304 q 486 1282 508 1304 q 431 1228 458 1256 q 376 1174 404 1201 q 324 1118 350 1146 q 271 1063 297 1090 l 340 1063 l 556 1210 q 588 1256 588 1232 m 675 290 q 613 489 675 418 q 389 599 551 557 q 232 651 286 625 q 179 754 179 675 q 231 867 179 819 q 353 914 282 914 q 515 846 451 914 q 592 672 579 775 l 636 672 l 636 935 l 610 935 l 557 881 q 464 932 514 915 q 356 949 414 949 q 174 875 247 949 q 103 688 103 801 q 161 510 103 578 q 350 408 219 443 q 531 336 458 379 q 599 207 599 294 q 538 69 599 126 q 389 14 478 14 q 221 89 285 14 q 136 268 157 164 l 96 268 l 96 -8 l 119 -8 l 186 50 q 278 -3 225 17 q 385 -21 324 -21 q 594 65 513 -21 q 675 290 675 150 z "},"":{"ha":540,"x_min":71,"x_max":469,"o":"m 469 213 q 433 368 469 315 q 380 412 415 394 q 292 442 344 429 q 169 493 203 464 q 140 568 140 518 q 171 667 140 626 q 178 676 174 672 q 186 685 182 681 l 221 685 l 256 708 q 354 661 313 708 q 399 564 394 614 l 435 564 l 435 728 l 411 728 l 389 692 q 364 709 378 701 q 331 724 350 717 q 312 729 321 726 q 292 733 303 732 l 436 832 q 468 878 468 854 q 451 908 468 892 q 413 926 431 926 q 367 904 389 926 q 312 851 339 878 q 257 796 285 824 q 189 724 224 758 q 126 676 153 708 q 76 517 76 618 q 133 358 76 407 q 193 319 161 335 q 261 294 225 303 q 378 249 344 275 q 411 153 411 221 q 372 49 411 89 q 283 7 335 7 q 167 61 214 7 q 108 199 121 115 l 71 199 l 71 -4 l 93 -4 l 133 38 q 203 -7 165 10 q 278 -22 242 -22 q 421 39 371 -22 q 469 213 469 100 z "},"":{"ha":926,"x_min":50,"x_max":876,"o":"m 876 631 l 861 928 l 65 928 l 50 631 l 94 631 q 181 843 118 792 q 338 893 244 893 l 376 893 l 376 35 l 231 35 l 231 0 l 438 0 l 378 -137 l 400 -143 l 442 -136 q 485 -154 467 -136 q 501 -194 501 -171 q 478 -232 501 -217 q 419 -247 454 -247 q 367 -240 388 -247 q 336 -228 350 -235 l 319 -272 q 365 -292 340 -286 q 433 -299 396 -299 q 564 -269 515 -299 q 611 -185 611 -240 q 579 -110 611 -139 q 497 -82 547 -82 q 485 -82 490 -82 q 472 -83 479 -82 q 462 -86 467 -85 q 451 -90 457 -87 l 489 0 l 699 0 l 699 35 l 553 35 l 553 893 l 589 893 q 746 842 682 893 q 832 631 808 793 l 876 631 z "},"":{"ha":463,"x_min":36,"x_max":442,"o":"m 442 93 l 414 107 q 382 54 403 75 q 328 33 363 33 q 286 47 299 33 q 275 94 275 63 l 275 669 l 406 669 l 406 711 l 275 711 l 275 881 l 125 872 l 125 711 l 36 711 l 36 669 l 125 669 l 125 92 q 158 4 125 29 q 228 -19 179 -12 l 176 -137 l 199 -143 l 240 -136 q 283 -154 265 -136 q 300 -194 300 -171 q 276 -232 300 -217 q 218 -247 253 -247 q 165 -240 186 -247 q 135 -228 149 -235 l 118 -272 q 164 -292 139 -286 q 232 -299 194 -299 q 363 -269 314 -299 q 410 -185 410 -240 q 378 -110 410 -139 q 296 -82 346 -82 q 283 -82 289 -82 q 271 -83 278 -82 q 260 -86 265 -85 q 250 -90 256 -87 l 279 -21 q 390 18 351 -19 q 442 93 432 57 z "},"":{"ha":926,"x_min":50,"x_max":876,"o":"m 693 1278 l 633 1278 l 474 1133 l 313 1278 l 253 1278 l 426 1043 l 521 1043 l 693 1278 m 876 631 l 861 928 l 65 928 l 50 631 l 94 631 q 181 843 118 792 q 338 893 244 893 l 376 893 l 376 35 l 231 35 l 231 0 l 699 0 l 699 35 l 553 35 l 553 893 l 589 893 q 746 842 682 893 q 832 631 808 793 l 876 631 z "},"":{"ha":653,"x_min":36,"x_max":631,"o":"m 631 789 q 592 910 631 871 q 494 949 553 949 q 424 925 456 949 q 393 860 393 903 q 460 769 393 775 l 474 769 q 540 810 528 769 q 568 842 549 842 q 589 785 589 842 q 549 678 589 735 q 508 628 529 650 q 464 590 486 606 q 456 579 456 583 q 461 569 456 574 q 475 565 468 563 q 488 569 481 565 q 589 669 547 603 q 631 789 631 736 m 442 93 l 414 107 q 382 54 403 75 q 328 33 363 33 q 286 47 299 33 q 275 94 275 63 l 275 669 l 406 669 l 406 711 l 275 711 l 275 881 l 125 872 l 125 711 l 36 711 l 36 669 l 125 669 l 125 92 q 158 4 125 29 q 267 -21 189 -21 q 390 18 351 -21 q 442 93 432 57 z "},"":{"ha":1003,"x_min":21,"x_max":981,"o":"m 719 1050 l 719 1132 l 281 1132 l 281 1050 l 719 1050 m 981 893 l 981 928 l 663 928 l 663 893 l 800 893 l 800 279 q 738 89 800 156 q 558 24 676 24 q 389 82 443 24 q 335 260 335 138 l 335 893 l 472 893 l 472 928 l 21 928 l 21 893 l 158 893 l 158 322 q 239 57 158 136 q 501 -21 319 -21 q 763 56 682 -21 q 843 303 843 131 l 843 893 l 981 893 z "},"":{"ha":772,"x_min":31,"x_max":742,"o":"m 742 0 l 742 35 l 646 35 l 646 733 l 604 732 l 604 754 l 165 754 l 165 731 l 31 728 l 31 693 l 121 693 l 121 201 q 165 39 121 100 q 289 -21 207 -21 q 401 11 349 -21 q 497 114 453 40 l 497 -11 q 540 -5 521 -7 q 574 -1 560 -3 q 629 0 588 0 q 742 0 671 0 m 496 306 q 447 106 496 190 q 332 24 399 24 q 285 60 300 24 q 271 158 271 93 l 271 672 l 496 672 l 496 306 z "},"":{"ha":1003,"x_min":21,"x_max":981,"o":"m 643 1138 q 601 1238 643 1196 q 501 1279 560 1279 q 401 1238 443 1279 q 360 1138 360 1196 q 401 1038 360 1079 q 501 996 443 996 q 601 1038 560 996 q 643 1138 643 1079 m 586 1138 q 561 1076 586 1101 q 501 1053 538 1053 q 442 1078 467 1053 q 417 1138 417 1100 q 442 1197 417 1172 q 501 1222 467 1222 q 563 1197 538 1222 q 586 1138 586 1171 m 981 893 l 981 928 l 663 928 l 663 893 l 800 893 l 800 279 q 738 89 800 156 q 558 24 676 24 q 389 82 443 24 q 335 260 335 138 l 335 893 l 472 893 l 472 928 l 21 928 l 21 893 l 158 893 l 158 322 q 239 57 158 136 q 501 -21 319 -21 q 763 56 682 -21 q 843 303 843 131 l 843 893 l 981 893 z "},"":{"ha":772,"x_min":31,"x_max":742,"o":"m 742 0 l 742 35 l 646 35 l 646 733 l 525 731 q 527 745 526 738 q 528 760 528 753 q 486 860 528 818 q 386 901 444 901 q 286 860 328 901 q 244 760 244 818 q 245 747 244 753 q 247 733 246 740 l 31 728 l 31 693 l 121 693 l 121 201 q 165 39 121 100 q 289 -21 207 -21 q 401 11 349 -21 q 497 114 453 40 l 497 -11 q 540 -5 521 -7 q 574 -1 560 -3 q 629 0 588 0 q 742 0 671 0 m 471 760 q 465 729 471 742 l 392 728 l 392 693 l 440 693 q 386 675 418 675 q 326 700 351 675 q 301 760 301 722 q 326 819 301 794 q 386 844 351 844 q 447 819 422 844 q 471 760 471 793 m 496 306 q 447 106 496 190 q 332 24 399 24 q 285 60 300 24 q 271 158 271 93 l 271 678 q 278 668 274 672 q 286 660 282 664 q 386 618 328 618 q 486 660 444 618 q 496 671 493 667 l 496 306 z "},"":{"ha":1003,"x_min":21,"x_max":981,"o":"m 793 1254 q 776 1288 793 1271 q 740 1306 760 1306 q 703 1292 721 1306 q 613 1206 675 1272 q 547 1138 581 1174 q 475 1063 513 1101 l 547 1063 l 774 1218 q 793 1254 793 1238 m 579 1254 q 564 1288 579 1269 q 528 1306 547 1306 q 489 1292 508 1306 q 453 1260 475 1282 q 400 1206 432 1239 q 334 1138 368 1174 q 263 1063 300 1101 l 335 1063 l 560 1218 q 579 1254 579 1238 m 981 893 l 981 928 l 663 928 l 663 893 l 800 893 l 800 279 q 738 89 800 156 q 558 24 676 24 q 389 82 443 24 q 335 260 335 138 l 335 893 l 472 893 l 472 928 l 21 928 l 21 893 l 158 893 l 158 322 q 239 57 158 136 q 501 -21 319 -21 q 763 56 682 -21 q 843 303 843 131 l 843 893 l 981 893 z "},"":{"ha":694,"x_min":51,"x_max":643,"o":"m 643 172 l 572 243 q 625 331 606 281 q 642 432 642 378 q 624 533 642 488 q 572 621 607 582 l 643 692 l 607 728 l 536 657 q 449 710 499 690 q 347 726 400 726 q 246 708 292 726 q 158 657 196 689 l 88 728 l 51 692 l 124 621 q 69 533 88 581 q 53 432 53 485 q 71 331 53 376 q 122 243 90 281 l 51 172 l 88 136 l 158 207 q 246 154 196 174 q 347 138 293 138 q 449 156 403 138 q 536 207 499 175 l 607 136 l 643 172 m 572 432 q 506 272 572 339 q 347 207 440 207 q 188 274 254 207 q 122 432 122 339 q 189 592 122 525 q 347 657 254 657 q 507 590 440 657 q 572 432 572 525 z "},"":{"ha":1003,"x_min":21,"x_max":981,"o":"m 981 893 l 981 928 l 663 928 l 663 893 l 800 893 l 800 279 q 738 89 800 156 q 558 24 676 24 q 389 82 443 24 q 335 260 335 138 l 335 893 l 472 893 l 472 928 l 21 928 l 21 893 l 158 893 l 158 322 q 239 57 158 136 q 501 -21 319 -21 q 537 -20 519 -21 q 569 -18 554 -19 q 543 -40 554 -29 q 514 -108 514 -69 q 550 -167 514 -146 q 638 -187 585 -187 q 703 -175 667 -187 q 754 -153 738 -165 l 736 -108 q 696 -126 714 -121 q 663 -131 681 -131 q 615 -117 635 -131 q 594 -76 594 -104 q 608 -32 594 -54 q 617 -19 613 -25 q 626 -10 621 -14 q 763 56 715 10 q 843 303 843 131 l 843 893 l 981 893 z "},"":{"ha":772,"x_min":31,"x_max":758,"o":"m 758 -153 l 740 -108 q 700 -126 718 -121 q 667 -131 685 -131 q 619 -117 639 -131 q 599 -76 599 -104 q 613 -32 599 -54 q 642 0 624 -12 l 742 0 l 742 35 l 646 35 l 646 733 l 392 728 l 392 693 l 496 693 l 496 306 q 447 106 496 190 q 332 24 399 24 q 285 60 300 24 q 271 158 271 93 l 271 733 l 31 728 l 31 693 l 121 693 l 121 201 q 165 39 121 100 q 289 -21 207 -21 q 401 11 349 -21 q 497 114 453 40 l 497 -11 q 540 -5 521 -7 q 574 -1 558 -3 q 585 -1 578 -1 q 603 0 592 -1 q 574 -18 588 -8 q 547 -40 560 -28 q 518 -108 518 -69 q 554 -167 518 -146 q 642 -187 589 -187 q 707 -175 671 -187 q 758 -153 742 -165 z "},"":{"ha":849,"x_min":54,"x_max":794,"o":"m 624 1256 q 607 1286 624 1269 q 568 1304 586 1304 q 522 1282 544 1304 q 467 1228 494 1256 q 413 1174 440 1201 q 360 1118 386 1146 q 307 1063 333 1090 l 376 1063 l 592 1210 q 624 1256 624 1232 m 794 299 l 757 299 q 649 71 717 108 q 481 35 579 35 l 256 35 l 792 888 l 792 928 l 122 928 l 100 678 l 143 678 q 244 858 175 822 q 413 893 313 893 l 594 893 l 54 38 l 54 0 l 783 0 l 794 299 z "},"":{"ha":617,"x_min":42,"x_max":542,"o":"m 542 686 l 542 728 l 322 728 l 475 832 q 507 878 507 854 q 490 908 507 892 q 451 926 469 926 q 406 904 428 926 q 351 851 378 878 q 296 796 324 824 q 264 761 281 778 q 232 728 247 744 l 74 728 l 74 513 l 110 513 q 165 650 124 604 q 221 685 188 674 l 260 685 l 272 693 l 281 693 l 369 693 l 42 39 l 42 0 l 540 0 l 540 236 l 501 236 q 458 82 493 129 q 331 35 424 35 l 217 35 l 542 686 z "},"":{"ha":849,"x_min":54,"x_max":794,"o":"m 499 1121 q 476 1172 499 1150 q 425 1193 456 1193 q 372 1171 394 1193 q 351 1121 351 1150 q 374 1069 351 1092 q 425 1049 394 1049 q 478 1071 456 1049 q 499 1121 499 1092 m 794 299 l 757 299 q 649 71 717 108 q 481 35 579 35 l 256 35 l 792 888 l 792 928 l 122 928 l 100 678 l 143 678 q 244 858 175 822 q 413 893 313 893 l 594 893 l 54 38 l 54 0 l 783 0 l 794 299 z "},"":{"ha":617,"x_min":42,"x_max":542,"o":"m 542 686 l 542 728 l 381 728 q 382 743 382 733 q 360 794 382 772 q 308 815 339 815 q 256 793 278 815 q 235 743 235 772 q 236 728 235 733 l 74 728 l 74 513 l 110 513 q 165 650 124 604 q 257 692 196 685 q 308 671 278 671 q 361 693 339 671 l 369 693 l 42 39 l 42 0 l 540 0 l 540 236 l 501 236 q 458 82 493 129 q 331 35 424 35 l 217 35 l 542 686 z "},"":{"ha":463,"x_min":139,"x_max":314,"o":"m 314 308 q 288 371 314 344 q 226 396 263 396 q 164 369 190 396 q 139 308 139 344 q 165 246 139 272 q 226 221 190 221 q 289 247 263 221 q 314 308 314 272 z "}}}
